<svg width="10" height="3" viewBox="0 0 10 3" fill="none" xmlns="http://www.w3.org/2000/svg">
<path d="M9.84152 2.67301C9.55626 2.86678 9.19176 2.97578 8.74802 3C8.30428 3 7.87639 2.97578 7.46434 2.92734C7.36926 2.92734 7.29002 2.91522 7.22662 2.891C7.16323 2.84256 7.09984 2.81834 7.03645 2.81834C6.97306 2.79412 6.90967 2.80623 6.84628 2.85467C6.78288 2.87889 6.6878 2.87889 6.56101 2.85467C6.49762 2.85467 6.45008 2.84256 6.41838 2.81834L6.3233 2.74568C6.22821 2.74568 6.13312 2.7699 6.03804 2.81834C5.97464 2.84256 5.8954 2.85467 5.80032 2.85467C5.00792 2.90311 4.16799 2.91522 3.28051 2.891C2.42472 2.84256 1.55309 2.87889 0.66561 3C0.602219 2.90311 0.507132 2.85467 0.380349 2.85467C0.285262 2.83045 0.206022 2.79412 0.142631 2.74568C0.142631 2.57612 0.110935 2.35813 0.0475437 2.0917C0.0158479 1.82526 0 1.55882 0 1.29239C0 1.02595 0.0316957 0.783737 0.0950872 0.565745C0.158479 0.32353 0.285262 0.141868 0.475436 0.0207613C0.919176 0.0207613 1.33122 0.0692043 1.71157 0.16609C2.09192 0.238754 2.47227 0.287197 2.85261 0.311419C3.04279 0.311419 3.21712 0.287198 3.37559 0.238755C3.56577 0.190312 3.7401 0.16609 3.89857 0.16609C4.02536 0.16609 4.12044 0.190312 4.18384 0.238755C4.27892 0.262976 4.37401 0.287197 4.4691 0.311419C4.81775 0.359862 5.15055 0.33564 5.46751 0.238755C5.78447 0.117647 6.11727 0.0449825 6.46593 0.0207613C6.6878 -0.0276817 6.79873 0.0086504 6.79873 0.129758C6.83043 0.226644 6.92551 0.262976 7.08399 0.238755C7.17908 0.214533 7.33756 0.190311 7.55943 0.16609C7.7813 0.117647 8.01902 0.0813149 8.27258 0.057093C8.55784 0.0328719 8.81141 0.0207613 9.03328 0.0207613C9.28685 0.0207613 9.46117 0.0449828 9.55626 0.0934258C9.80983 0.190312 9.95246 0.33564 9.98415 0.529412C10.0158 0.698962 10 0.904844 9.93661 1.14706C9.90491 1.38927 9.85737 1.6436 9.79398 1.91003C9.76228 2.17647 9.77813 2.4308 9.84152 2.67301ZM4.08875 1.11073C4.21553 1.15917 4.29477 1.15917 4.32647 1.11073C4.35816 1.03806 4.42155 1.01384 4.51664 1.03806C4.54834 0.868512 4.4691 0.807958 4.27892 0.856401C4.12044 0.904844 4.05705 0.989619 4.08875 1.11073ZM8.60539 1.83737C8.76387 1.86159 8.84311 1.83737 8.84311 1.76471C8.8748 1.66782 8.89065 1.55882 8.89065 1.43772H8.60539V1.83737Z" fill="white"/>
</svg>
