<svg width="11" height="11" viewBox="0 0 11 11" fill="none" xmlns="http://www.w3.org/2000/svg">
<path d="M5.43188 0.516623C5.48865 0.552804 5.50758 0.598029 5.48865 0.652301C5.46973 0.688481 5.45081 0.733707 5.43188 0.787978C5.41296 0.824158 5.39404 0.860339 5.37511 0.89652C5.37511 0.932701 5.41296 0.959836 5.48865 0.977928C5.56435 0.977928 5.61166 0.959837 5.63058 0.923656C5.6495 0.887475 5.6495 0.84225 5.63058 0.787978C5.63058 0.733707 5.62112 0.688481 5.6022 0.652301C5.6022 0.598029 5.62112 0.552804 5.65897 0.516623C5.92389 0.570894 6.15098 0.570894 6.34021 0.516623C6.52945 0.462352 6.71868 0.534713 6.90792 0.733708C6.94576 1.34878 6.90792 1.96385 6.79437 2.57892C6.68083 3.19399 6.67137 3.71861 6.76599 4.15278C6.95522 4.06233 7.135 4.03519 7.30531 4.07137C7.47562 4.10756 7.66486 4.13469 7.87301 4.15278C8.00548 4.17087 8.12848 4.17087 8.24202 4.15278C8.37448 4.1166 8.51641 4.1166 8.6678 4.15278C8.70565 4.17087 8.74349 4.18896 8.78134 4.20705C8.81919 4.22514 8.8665 4.24323 8.92327 4.26132C9.07465 4.27941 9.22604 4.27941 9.37743 4.26132C9.52882 4.22514 9.68021 4.19801 9.83159 4.17992C9.98298 4.16183 10.1249 4.16183 10.2574 4.17992C10.4088 4.17992 10.5601 4.23419 10.7115 4.34273C10.7872 4.65027 10.8062 4.98494 10.7683 5.34674C10.7305 5.69046 10.6926 5.998 10.6548 6.26935C10.5223 6.41407 10.3425 6.51357 10.1154 6.56784C9.90729 6.60402 9.65182 6.60402 9.34904 6.56784C9.3112 6.56784 9.27335 6.5588 9.2355 6.54071C9.21658 6.50453 9.17873 6.48644 9.12196 6.48644C8.97058 6.45025 8.81919 6.4593 8.6678 6.51357C8.53533 6.54975 8.42179 6.52262 8.32718 6.43216C8.15687 6.50453 7.92032 6.53166 7.61755 6.51357C7.33369 6.49548 7.0593 6.46835 6.79437 6.43216C6.68083 6.59498 6.64299 6.77588 6.68083 6.97487C6.7376 7.15578 6.76599 7.34573 6.76599 7.54472C6.76599 7.79799 6.74707 8.05125 6.70922 8.30451C6.67137 8.53969 6.65245 8.78391 6.65245 9.03717C6.65245 9.25426 6.67137 9.47134 6.70922 9.68843C6.74707 9.88742 6.67137 10.0593 6.48214 10.204C6.2929 10.1316 6.09421 10.1045 5.88605 10.1226C5.67789 10.1226 5.47919 10.1316 5.28996 10.1497C5.10072 10.1497 4.92095 10.1497 4.75064 10.1497C4.58033 10.1316 4.4384 10.0502 4.32486 9.90551C4.41948 9.70652 4.4384 9.50752 4.38163 9.30853C4.32486 9.09145 4.28701 8.8834 4.26809 8.68441C4.24917 8.34069 4.27755 7.99698 4.35325 7.65326C4.44786 7.29146 4.47625 6.91156 4.4384 6.51357C3.8707 6.40503 3.27461 6.38694 2.65013 6.4593C2.04458 6.51357 1.41064 6.48644 0.748322 6.37789C0.615858 6.10654 0.559088 5.799 0.578011 5.45529C0.615858 5.09348 0.615858 4.71358 0.578011 4.31559C0.691552 4.09851 0.890249 4.0171 1.1741 4.07137C1.47688 4.10756 1.77019 4.13469 2.05404 4.15278C2.45144 4.17087 2.81098 4.14374 3.13268 4.07137C3.4733 3.98092 3.80446 3.95379 4.12616 3.98997C4.22078 3.7367 4.25863 3.4563 4.2397 3.14877C4.22078 2.82314 4.21132 2.50656 4.21132 2.19903C4.23024 2.0543 4.24917 1.90958 4.26809 1.76486C4.28701 1.62013 4.30594 1.47541 4.32486 1.33069C4.34378 1.1136 4.35325 0.932701 4.35325 0.787978C4.37217 0.625165 4.46679 0.498533 4.6371 0.408081C4.86418 0.408081 5.01557 0.435217 5.09126 0.489488C5.18588 0.543758 5.29942 0.552804 5.43188 0.516623ZM5.85766 3.14877C5.85766 3.00405 5.86712 2.88646 5.88605 2.79601C5.90497 2.68746 5.83874 2.6151 5.68735 2.57892C5.68735 2.85028 5.74412 3.04023 5.85766 3.14877ZM5.74412 4.34273C5.70627 4.17992 5.70627 4.04424 5.74412 3.9357C5.78197 3.82716 5.75358 3.72766 5.65897 3.63721C5.65897 3.78193 5.64004 3.91761 5.6022 4.04424C5.58327 4.15278 5.63058 4.25228 5.74412 4.34273ZM4.69387 4.96685C4.80741 4.96685 4.92095 4.96685 5.03449 4.96685C5.14803 4.94876 5.21426 4.89449 5.23319 4.80403C5.17642 4.76785 5.07234 4.78594 4.92095 4.85831C4.78849 4.93067 4.71279 4.96685 4.69387 4.96685ZM7.7027 5.02112C7.74055 4.96685 7.7784 4.94876 7.81624 4.96685C7.79732 4.93067 7.78786 4.89449 7.78786 4.85831C7.80678 4.80403 7.79732 4.76785 7.75947 4.74976C7.75947 4.78594 7.73109 4.83117 7.67432 4.88544C7.61755 4.93971 7.62701 4.98494 7.7027 5.02112ZM6.96469 5.21107C6.94576 5.12062 6.9363 5.03921 6.9363 4.96685C6.9363 4.8764 6.88899 4.82212 6.79437 4.80403C6.83222 4.89449 6.85115 4.97589 6.85115 5.04825C6.85115 5.12062 6.88899 5.17489 6.96469 5.21107ZM8.61103 5.02112C8.62995 4.98494 8.64888 4.93971 8.6678 4.88544C8.68672 4.81308 8.64888 4.78594 8.55426 4.80403C8.55426 4.93067 8.57318 5.00303 8.61103 5.02112ZM9.03681 5.02112C9.15035 5.02112 9.23551 4.98494 9.29227 4.91258C9.23551 4.89449 9.19766 4.86735 9.17873 4.83117C9.17873 4.79499 9.13142 4.78594 9.03681 4.80403V5.02112ZM9.66128 5.02112C9.69913 4.93067 9.67074 4.88544 9.57613 4.88544C9.48151 4.88544 9.4342 4.91258 9.4342 4.96685C9.47205 4.96685 9.50043 4.97589 9.51936 4.99398C9.5572 5.01207 9.60451 5.02112 9.66128 5.02112ZM2.84883 5.10252C3.03806 5.13871 3.2273 5.14775 3.41653 5.12966C3.62469 5.09348 3.82339 5.0573 4.01262 5.02112C3.80446 5.00303 3.58684 4.98494 3.35976 4.96685C3.13268 4.94876 2.96237 4.99398 2.84883 5.10252ZM5.17642 5.45529C5.27103 5.49147 5.33727 5.44624 5.37511 5.31961C5.43188 5.17489 5.41296 5.10252 5.31834 5.10252C5.33727 5.19298 5.28996 5.31056 5.17642 5.45529ZM9.17873 5.26534C9.21658 5.19298 9.1882 5.1568 9.09358 5.1568C8.99896 5.1568 8.96111 5.17489 8.98004 5.21107C9.07465 5.21107 9.14089 5.22916 9.17873 5.26534ZM1.1741 5.40102C1.24979 5.41911 1.2971 5.45529 1.31603 5.50956C1.35387 5.56383 1.39172 5.6181 1.42957 5.67237C1.41064 5.58192 1.41064 5.50956 1.42957 5.45529C1.46741 5.38293 1.50526 5.31961 1.54311 5.26534C1.46741 5.21107 1.39172 5.21107 1.31603 5.26534C1.25926 5.31961 1.21195 5.36483 1.1741 5.40102ZM5.68735 5.6181C5.74412 5.6181 5.78197 5.60905 5.80089 5.59096C5.83874 5.57287 5.87659 5.56383 5.91443 5.56383C5.91443 5.49147 5.90497 5.4372 5.88605 5.40102C5.88605 5.34674 5.83874 5.31961 5.74412 5.31961C5.70627 5.35579 5.68735 5.45529 5.68735 5.6181ZM1.68503 5.6181C1.68503 5.78091 1.77019 5.85327 1.9405 5.83518C2.11081 5.799 2.23382 5.76282 2.30951 5.72664C2.29059 5.63619 2.24328 5.5186 2.16758 5.37388C2.05404 5.53669 1.89319 5.6181 1.68503 5.6181ZM3.95585 5.6181C4.12616 5.65428 4.27755 5.68142 4.41002 5.69951C4.5614 5.69951 4.67494 5.6181 4.75064 5.45529C4.59925 5.47338 4.44786 5.49147 4.29648 5.50956C4.16401 5.52765 4.05047 5.56383 3.95585 5.6181ZM5.43188 7.73467C5.48865 7.53568 5.54542 7.34573 5.6022 7.16482C5.65897 6.96583 5.68735 6.7397 5.68735 6.48644C5.6495 6.41407 5.54542 6.39598 5.37511 6.43216C5.43188 6.66734 5.44135 6.89347 5.4035 7.11055C5.38458 7.32764 5.39404 7.53568 5.43188 7.73467ZM6.05636 6.8392C6.05636 6.78493 6.05636 6.69447 6.05636 6.56784C6.07528 6.42312 6.06582 6.39598 6.02797 6.48644C6.02797 6.52262 6.01851 6.61307 5.99959 6.75779C5.99959 6.88442 6.01851 6.91156 6.05636 6.8392ZM5.17642 9.71556C5.13857 9.55275 5.14803 9.39898 5.2048 9.25426C5.26157 9.09144 5.25211 8.95577 5.17642 8.84723C5.15749 8.91959 5.12911 9.00099 5.09126 9.09144C5.05341 9.16381 5.02503 9.24521 5.00611 9.33566C4.98718 9.40802 4.98718 9.48039 5.00611 9.55275C5.02503 9.60702 5.0818 9.66129 5.17642 9.71556Z" fill="white"/>
</svg>
