<?xml version="1.0" encoding="UTF-8" standalone="no"?>
<!DOCTYPE svg PUBLIC "-//W3C//DTD SVG 1.1//EN" "http://www.w3.org/Graphics/SVG/1.1/DTD/svg11.dtd">
<svg width="100%" height="100%" viewBox="0 0 23 19" version="1.1" xmlns="http://www.w3.org/2000/svg" xmlns:xlink="http://www.w3.org/1999/xlink" xml:space="preserve" xmlns:serif="http://www.serif.com/" style="fill-rule:evenodd;clip-rule:evenodd;">
<path d="M15.911,6.363c0,2.279 -1.029,4.95 -2.33,7.08c-0.645,1.058 -1.337,1.947 -1.961,2.561c-0.313,0.308 -0.594,0.531 -0.83,0.674c-0.247,0.149 -0.384,0.172 -0.425,0.172c-0.041,0 -0.178,-0.023 -0.425,-0.172c-0.236,-0.143 -0.517,-0.366 -0.83,-0.674c-0.624,-0.614 -1.316,-1.503 -1.961,-2.561c-1.301,-2.13 -2.33,-4.801 -2.33,-7.08c0,-2.708 2.419,-5.013 5.546,-5.013c3.127,0 5.546,2.305 5.546,5.013Z" style="fill:none;fill-rule:nonzero;stroke:#fff;stroke-width:1.5px;"/>
<circle cx="10.365" cy="6.896" r="2.398" style="fill:none;stroke:#fff;stroke-width:1.5px;"/>
<path d="M21.319,17.35l-20.5,0" style="fill:none;fill-rule:nonzero;stroke:#fff;stroke-width:1.5px;stroke-linecap:round;"/>
</svg>
