<svg width="23" height="19" viewBox="0 0 23 19" fill="none" xmlns="http://www.w3.org/2000/svg">
<path d="M15.9112 6.36272C15.9112 8.64156 14.8818 11.313 13.5812 13.4434C12.9357 14.5009 12.2443 15.3901 11.6197 16.0042C11.3069 16.3118 11.026 16.5354 10.7903 16.6777C10.5433 16.8267 10.4063 16.85 10.3649 16.85C10.3235 16.85 10.1865 16.8267 9.93954 16.6777C9.70383 16.5354 9.4229 16.3118 9.11007 16.0042C8.4855 15.3901 7.79409 14.5009 7.14856 13.4434C5.84802 11.313 4.8186 8.64156 4.8186 6.36272C4.8186 3.65541 7.23787 1.35001 10.3649 1.35001C13.4919 1.35001 15.9112 3.65541 15.9112 6.36272Z" stroke="#F48953" stroke-width="1.5"/>
<circle cx="10.3648" cy="6.89632" r="2.39815" stroke="#F48953" stroke-width="1.5"/>
<line x1="21.3186" y1="17.35" x2="0.818604" y2="17.35" stroke="#F48953" stroke-width="1.5" stroke-linecap="round"/>
</svg>
