<svg width="29" height="23" viewBox="0 0 29 23" fill="none" xmlns="http://www.w3.org/2000/svg">
<path d="M17.5667 9.65228C17.5667 14.1069 13.8771 17.7521 9.28337 17.7521C4.68967 17.7521 1 14.1069 1 9.65228C1 5.19762 4.68967 1.55249 9.28337 1.55249C13.8771 1.55249 17.5667 5.19762 17.5667 9.65228Z" stroke="white" stroke-width="2"/>
<path d="M15.1881 3.49827C16.559 3.10775 18.0086 3.07069 19.3964 3.38967C20.7841 3.70861 22.0622 4.37248 23.1082 5.31518C24.154 6.25779 24.9331 7.44779 25.3714 8.76993C25.8097 10.0921 25.893 11.5034 25.6123 12.8681C25.3316 14.2329 24.696 15.5059 23.765 16.5631C22.8338 17.6205 21.6392 18.4257 20.296 18.8996C18.9529 19.3736 17.5082 19.4997 16.1023 19.2665C14.6965 19.0334 13.3779 18.4491 12.2733 17.5722" stroke="white" stroke-width="2"/>
<path d="M10.6973 13.4611L10.6973 13.4611L10.7 13.4601C11.0926 13.3233 11.4306 13.1535 11.709 12.9474C11.8795 12.8434 11.9734 12.6763 11.9734 12.4746C11.9734 12.3391 11.9297 12.2131 11.8417 12.1085C11.7333 11.967 11.5797 11.8829 11.395 11.8829C11.2798 11.8829 11.1719 11.9159 11.0757 11.9764L11.0665 11.9822L11.0578 11.9888C10.5962 12.339 10.0906 12.5111 9.53396 12.5111C8.94339 12.5111 8.42275 12.3435 7.96357 12.0088C7.59416 11.7336 7.31174 11.3801 7.11686 10.9428L8.85262 10.961V10.961H8.85524C9.00521 10.961 9.15311 10.917 9.26817 10.8043C9.38795 10.6943 9.4446 10.549 9.4446 10.3914C9.4446 10.2338 9.38795 10.0884 9.26817 9.97848C9.15346 9.86612 9.00609 9.82199 8.85658 9.82173L6.82096 9.80183C6.81156 9.69549 6.80659 9.57941 6.80635 9.45329L8.85283 9.47301L8.85283 9.47302H8.85524C9.00521 9.47302 9.15312 9.42896 9.26817 9.31626C9.38795 9.20633 9.4446 9.06099 9.4446 8.90338C9.4446 8.74576 9.38795 8.60043 9.26817 8.49049C9.15347 8.37814 9.00611 8.334 8.8566 8.33374L6.98101 8.31495C7.1554 7.76949 7.44448 7.33032 7.84523 6.98912C8.32398 6.58767 8.88306 6.38682 9.53396 6.38682C10.0816 6.38682 10.5915 6.56151 11.0696 6.92084L11.0875 6.93425L11.1074 6.94429C11.1966 6.98919 11.2992 7.0261 11.4059 7.0261C11.5841 7.0261 11.7329 6.94527 11.8408 6.81252L11.8502 6.80099L11.8581 6.78843C11.9238 6.6845 11.9734 6.56446 11.9734 6.43442C11.9734 6.2251 11.8696 6.05891 11.7 5.95197C11.3955 5.72558 11.0572 5.55033 10.6863 5.42586C10.3107 5.29979 9.92625 5.23651 9.53396 5.23651C8.91122 5.23651 8.33099 5.37789 7.79747 5.66201C7.26637 5.93749 6.82117 6.3234 6.46342 6.81671C6.14388 7.25735 5.9186 7.75557 5.78613 8.30855L5.27939 8.3007L5.27939 8.30067H5.27552C5.12224 8.30067 4.97575 8.34629 4.85701 8.45256L4.85153 8.45746L4.84636 8.46267C4.73428 8.57552 4.68616 8.71971 4.68616 8.87031C4.68616 9.02092 4.73428 9.16511 4.84636 9.27795L4.85153 9.28316L4.85701 9.28806C4.97513 9.39378 5.12072 9.43948 5.27314 9.43995L5.64951 9.44648C5.64957 9.5637 5.65303 9.6799 5.65992 9.79507L5.27971 9.78869L5.27971 9.78866H5.27552C5.12224 9.78866 4.97575 9.83428 4.85701 9.94055L4.85153 9.94545L4.84636 9.95066C4.73428 10.0635 4.68616 10.2077 4.68616 10.3583C4.68616 10.5089 4.73428 10.6531 4.84636 10.7659L4.85153 10.7712L4.85701 10.7761C4.97525 10.8819 5.12101 10.9276 5.27359 10.9279L5.87688 10.9364C6.04009 11.4443 6.28187 11.8967 6.60346 12.2909L6.60343 12.2909L6.60657 12.2946C6.97148 12.7246 7.40394 13.0622 7.90272 13.3055L7.9027 13.3055L7.90695 13.3075C8.41542 13.5438 8.95872 13.6614 9.53396 13.6614C9.91436 13.6614 10.3025 13.5936 10.6973 13.4611Z" fill="white" stroke="white" stroke-width="0.5"/>
</svg>
