<svg width="22" height="18" viewBox="0 0 22 18" fill="none" xmlns="http://www.w3.org/2000/svg">
<path d="M15.8426 5.77309C15.8426 8.05193 14.8132 10.7234 13.5126 12.8538C12.8671 13.9113 12.1757 14.8005 11.5511 15.4146C11.2383 15.7222 10.9574 15.9458 10.7217 16.088C10.4747 16.2371 10.3377 16.2604 10.2963 16.2604C10.2549 16.2604 10.1179 16.2371 9.87094 16.088C9.63523 15.9458 9.35429 15.7222 9.04147 15.4146C8.4169 14.8005 7.72549 13.9113 7.07996 12.8538C5.77941 10.7234 4.75 8.05193 4.75 5.77309C4.75 3.06578 7.16926 0.760376 10.2963 0.760376C13.4233 0.760376 15.8426 3.06578 15.8426 5.77309Z" stroke="#F48953" stroke-width="1.5"/>
<circle cx="10.2962" cy="6.30672" r="2.39815" stroke="#F48953" stroke-width="1.5"/>
<line x1="21.25" y1="16.7604" x2="0.75" y2="16.7604" stroke="#F48953" stroke-width="1.5" stroke-linecap="round"/>
</svg>
