<svg width="18" height="16" viewBox="0 0 18 16" fill="none" xmlns="http://www.w3.org/2000/svg">
<g clip-path="url(#clip0)">
<path d="M16.0346 12.8282L14.4835 11.2711C14.0285 10.8142 13.3401 10.6759 12.7523 10.939C12.4565 11.0714 12.1437 11.2573 11.8799 11.5222C10.1071 13.3019 4.30518 7.47728 6.07794 5.6975C6.34183 5.43264 6.52701 5.11865 6.65893 4.82174C6.92098 4.23159 6.7832 3.54054 6.32807 3.08366L4.77706 1.52654C4.02726 0.773803 2.77255 0.974004 2.27855 1.91604C1.76178 2.90163 1.37269 4.29664 1.80122 6.00535C2.71603 9.65279 7.94005 14.8973 11.5732 15.8157C13.2753 16.2459 14.6648 15.8553 15.6466 15.3365C16.585 14.8406 16.7844 13.581 16.0346 12.8282Z" fill="#A0A6A7"/>
</g>
<defs>
<clipPath id="clip0">
<rect width="17" height="16" fill="white" transform="translate(0.555176)"/>
</clipPath>
</defs>
</svg>
