<svg width="22" height="21" viewBox="0 0 22 21" fill="none" xmlns="http://www.w3.org/2000/svg">
<g clip-path="url(#clip0_4524_5355)">
<path d="M10.8897 10.4567C13.4995 10.4567 15.6152 8.36701 15.6152 5.78928C15.6152 3.21155 13.4995 1.12189 10.8897 1.12189C8.27978 1.12189 6.16406 3.21155 6.16406 5.78928C6.16406 8.36701 8.27978 10.4567 10.8897 10.4567Z" stroke="#F48953" stroke-width="1.5" stroke-miterlimit="10" stroke-linecap="round" stroke-linejoin="round"/>
<path d="M1.72168 18.3948H20.2776" stroke="#F48953" stroke-width="1.5" stroke-miterlimit="10" stroke-linecap="round" stroke-linejoin="round"/>
<mask id="path-3-inside-1_4524_5355" fill="white">
<path d="M19.7466 19.1152C19.7466 17.9678 19.5206 16.8317 19.0815 15.7716C18.6425 14.7116 17.9989 13.7484 17.1876 12.9371C16.3763 12.1258 15.4131 11.4822 14.3531 11.0432C13.293 10.6041 12.1569 10.3781 11.0095 10.3781C9.86217 10.3781 8.72604 10.6041 7.666 11.0432C6.60597 11.4822 5.6428 12.1258 4.83149 12.9371C4.02018 13.7484 3.37661 14.7116 2.93753 15.7716C2.49845 16.8317 2.27246 17.9678 2.27246 19.1152L11.0095 19.1152H19.7466Z"/>
</mask>
<path d="M19.7466 19.1152C19.7466 17.9678 19.5206 16.8317 19.0815 15.7716C18.6425 14.7116 17.9989 13.7484 17.1876 12.9371C16.3763 12.1258 15.4131 11.4822 14.3531 11.0432C13.293 10.6041 12.1569 10.3781 11.0095 10.3781C9.86217 10.3781 8.72604 10.6041 7.666 11.0432C6.60597 11.4822 5.6428 12.1258 4.83149 12.9371C4.02018 13.7484 3.37661 14.7116 2.93753 15.7716C2.49845 16.8317 2.27246 17.9678 2.27246 19.1152L11.0095 19.1152H19.7466Z" stroke="#F48953" stroke-width="3" mask="url(#path-3-inside-1_4524_5355)"/>
</g>
<defs>
<clipPath id="clip0_4524_5355">
<rect width="22" height="21" fill="white"/>
</clipPath>
</defs>
</svg>
