<svg width="30" height="22" viewBox="0 0 30 22" fill="none" xmlns="http://www.w3.org/2000/svg">
<g clip-path="url(#clip0)">
<path d="M17.6087 0.647034H13.0435V3.23527H17.6087V0.647034Z" stroke="#F48953" stroke-width="1.5" stroke-miterlimit="10" stroke-linecap="round" stroke-linejoin="round"/>
<path d="M16.382 3.23529C16.382 3.23529 16.1665 4.7994 16.8991 5.10354C17.5886 5.45112 20.2174 6.27662 20.2174 7.5366V19.3109C20.2174 20.4405 19.3124 21.3529 18.1919 21.3529H12.4603C11.3398 21.3529 10.4348 20.4405 10.4348 19.3109V7.58005C10.4348 6.45041 13.6239 5.14698 14.0117 4.92975C14.615 4.40838 14.2703 3.23529 14.2703 3.23529H16.382V3.23529Z" stroke="#F48953" stroke-width="1.5" stroke-miterlimit="10" stroke-linecap="round" stroke-linejoin="round"/>
<path d="M20.2599 11.3457C20.7269 10.8686 21.2789 10.435 21.9158 10.1748C22.213 10.0447 22.5527 10.0447 22.8499 10.1314C23.1471 10.2181 23.6142 10.3482 23.9963 10.3049C24.6757 10.2615 25.3975 9.95793 25.8221 10.088C28.1999 10.7819 29.4312 12.8635 29.2189 15.5089C29.0066 17.9808 27.0959 20.0624 24.6757 20.366C22.9348 20.5828 21.3214 19.9323 20.2174 18.7614" stroke="#F48953" stroke-width="1.5" stroke-miterlimit="10" stroke-linecap="round" stroke-linejoin="round"/>
<path d="M23.9963 10.0447C23.9963 10.0447 24.9305 8.22326 25.992 7.48602" stroke="#F48953" stroke-width="1.5" stroke-miterlimit="10" stroke-linecap="round" stroke-linejoin="round"/>
<path d="M10.3923 12.3854C9.79791 11.2145 9.03363 10.0002 7.88721 9.3497C7.29277 9.00276 6.48603 8.82929 5.80667 8.95939C5.467 9.04613 5.12732 9.17623 4.8301 9.43643C4.70272 9.56653 4.6178 9.69663 4.53288 9.82673C4.02336 10.6507 4.1932 11.865 4.32058 12.4288C4.44796 13.1226 4.78764 13.7731 5.21224 14.4236C5.76421 15.291 6.52849 16.0716 7.33523 16.7654C8.35427 17.6762 9.50069 18.4134 10.4348 18.9772" stroke="#F48953" stroke-width="1.5" stroke-miterlimit="10" stroke-linecap="round" stroke-linejoin="round"/>
<path d="M4.44795 10.0002C4.44795 10.0002 0.796397 8.87264 0.753937 7.65836C0.711477 6.44409 2.79201 7.4849 2.79201 7.4849C-1.28414 2.41096 2.66463 0.0691441 4.53287 5.83695C5.46699 3.75534 8.43918 5.70685 5.76421 8.95937C5.80667 8.95937 4.99993 8.82927 4.44795 10.0002Z" stroke="#F48953" stroke-width="1.5" stroke-miterlimit="10" stroke-linecap="round" stroke-linejoin="round"/>
</g>
<defs>
<clipPath id="clip0">
<rect width="30" height="22" fill="white"/>
</clipPath>
</defs>
</svg>
