<?xml version="1.0" encoding="UTF-8" standalone="no"?>
<!DOCTYPE svg PUBLIC "-//W3C//DTD SVG 1.1//EN" "http://www.w3.org/Graphics/SVG/1.1/DTD/svg11.dtd">
<svg width="100%" height="100%" viewBox="0 0 48 35" version="1.1" xmlns="http://www.w3.org/2000/svg" xmlns:xlink="http://www.w3.org/1999/xlink" xml:space="preserve" xmlns:serif="http://www.serif.com/" style="fill-rule:evenodd;clip-rule:evenodd;stroke-linecap:round;stroke-linejoin:round;stroke-miterlimit:10;">
  <rect x="21.213" y="1.672" width="6.715" height="3.562" style="fill:none;fill-rule:nonzero;stroke:#fff;stroke-width:1.5px;"/>
  <path d="M26.183,5.234c0,0 -0.336,2.42 0.805,2.89c1.075,0.538 5.171,1.815 5.171,3.764l0,18.214c0,1.747 -1.41,3.159 -3.156,3.159l-8.932,0c-1.745,0 -3.156,-1.412 -3.156,-3.159l0,-18.147c0,-1.747 4.97,-3.764 5.574,-4.1c0.94,-0.806 0.403,-2.621 0.403,-2.621l3.291,0Z" style="fill:none;fill-rule:nonzero;stroke:#fff;stroke-width:1.5px;"/>
  <path d="M32.159,19.281c0.739,-0.739 1.612,-1.411 2.619,-1.815c0.47,-0.201 1.007,-0.201 1.477,-0.067c0.471,0.135 1.209,0.336 1.814,0.269c1.074,-0.067 2.216,-0.538 2.887,-0.336c3.761,1.075 5.708,4.301 5.373,8.401c-0.336,3.831 -3.358,7.057 -7.186,7.528c-2.753,0.336 -5.305,-0.672 -7.051,-2.487" style="fill:none;fill-rule:nonzero;stroke:#fff;stroke-width:1.5px;"/>
  <path d="M38.069,17.265c0,0 1.477,-2.823 3.156,-3.966" style="fill:none;fill-rule:nonzero;stroke:#fff;stroke-width:1.5px;"/><path d="M16.915,20.222c-0.94,-1.815 -2.149,-3.697 -3.962,-4.705c-0.94,-0.537 -2.216,-0.806 -3.29,-0.605c-0.537,0.135 -1.075,0.336 -1.545,0.74c-0.201,0.201 -0.336,0.403 -0.47,0.605c-0.806,1.277 -0.537,3.159 -0.336,4.032c0.202,1.075 0.739,2.084 1.411,3.092c0.873,1.344 2.081,2.554 3.357,3.629c1.612,1.412 3.425,2.554 4.903,3.428" style="fill:none;fill-rule:nonzero;stroke:#fff;stroke-width:1.5px;"/>
  <path d="M7.514,16.525c0,0 -5.775,-1.747 -5.842,-3.629c-0.068,-1.882 3.223,-0.269 3.223,-0.269c-6.447,-7.863 -0.202,-11.493 2.753,-2.554c1.478,-3.226 6.178,-0.201 1.948,4.839c0.067,0 -1.209,-0.201 -2.082,1.613Z" style="fill:none;fill-rule:nonzero;stroke:#fff;stroke-width:1.5px;"/>
</svg>
