
    <svg version="1.1" id="Calque_1" xmlns="http://www.w3.org/2000/svg" xmlns:xlink="http://www.w3.org/1999/xlink" x="0px" y="0px" viewBox="0 0 390.6 185.9" style="enable-background:new 0 0 390.6 185.9;" xml:space="preserve">     
      <path fill="#00AD73" d="M21.4,85.3c-0.7-0.1-1.4-0.4-1.9-0.9c-0.5-0.5-0.7-1.2-0.8-1.9c0-0.7,0.2-1.4,0.6-1.9c0.5-0.4,1.2-0.7,1.9-0.6c1,0,1-0.4,2-0.4c0.7,0,1.2,0.6,1.7,1.1c0.6,0.4,0.9,1,1,1.6c0,0.7-0.3,1.3-0.8,1.7c-0.5,0.5-0.9,1.2-1.7,1.2c-1,0-1-0.3-2-0.3C21.4,84.9,21.4,85.3,21.4,85.3z"/>
      <path fill="#00AD73" d="M33.8,84.4c-0.7,0.1-1.3-0.1-1.9-0.4c-0.4-0.5-0.6-1.2-0.6-1.9c-0.1-0.7,0.1-1.4,0.5-1.9c0.5-0.6,1.1-0.9,1.9-1c1.1,0,1.1,0.1,2.1,0s1.1,0.2,2.1,0.2s1.1,0,2.1,0s1.1-0.2,2.1-0.2s1.1,0,2.1,0s1-0.4,2.1-0.4s1.1,0.1,2.1,0.1s1-0.2,2.1-0.2s1.1,0.1,2.1,0.1s1.1,0.1,2.1,0.1s1.1-0.2,2.1-0.3s1.1-0.1,2.1-0.1s1.1,0.3,2.1,0.3c0.7,0,1.3,0.2,1.8,0.6c0.5,0.5,0.7,1.1,0.7,1.7c0,0.7,0.2,1.5-0.3,2c-0.5,0.5-1.2,0.9-2,0.9c-1.1,0-1.1-0.4-2.1-0.4s-1,0.5-2.1,0.6L55.1,84C54,84,54,83.7,53,83.7s-1.1,0.2-2.1,0.2s-1,0.2-2.1,0.3s-1.1-0.1-2.1,0s-1,0.2-2.1,0.3s-1.1-0.1-2.1-0.1s-1.1,0-2.1,0s-1.1,0.1-2.1,0.1S37,84.3,36,84.3s-1,0.4-2.1,0.4C33.9,84.8,33.8,84.4,33.8,84.4z"/>
      <path fill="#00AD73" d="M2.5,105.1c-0.7,0-1.3-0.3-1.7-0.9c-0.5-0.4-0.7-1-0.8-1.7c-0.1-0.7,0.1-1.4,0.5-1.9c0.5-0.5,1.2-0.8,1.9-0.8c1,0,1-0.2,2-0.2s1-0.1,2.1-0.1s1,0.1,2.1,0.1s1,0.1,2.1,0.1s1-0.1,2-0.1s1-0.2,2-0.2s1,0.1,2.1,0s1-0.1,2-0.1s1,0.1,2.1,0.1s1-0.3,2-0.3s1,0.2,2.1,0.1c1.1,0,1-0.3,2-0.4s1,0.4,2.1,0.3s1-0.3,2-0.4s1,0.2,2.1,0.2s1-0.5,2-0.5s1,0.3,2.1,0.3s1-0.3,2-0.4s1,0,2.1,0s1,0,2.1,0s1-0.1,2.1-0.1s1,0,2.1,0s1-0.1,2-0.2s1,0.1,2.1,0s1-0.1,2.1-0.2s1,0,2.1,0s1,0,2.1,0c1.1,0,1,0,2.1-0.1l2.1-0.1c0.7-0.1,1.4,0.1,2,0.6c0.4,0.6,0.6,1.3,0.5,2c0.1,0.7,0,1.4-0.4,1.9c-0.5,0.5-1.2,0.9-1.9,0.9c-1,0-1-0.4-2.1-0.4s-1,0.4-2,0.4s-1,0.2-2,0.2s-1,0-2.1,0.1s-1-0.2-2-0.1s-1-0.1-2.1-0.1s-1,0.1-2.1,0.2s-1,0.1-2,0.1s-1-0.1-2-0.1s-1,0.3-2,0.4s-1,0-2.1,0s-1,0.1-2,0.1s-1-0.1-2.1,0s-1,0.3-2,0.3s-1-0.4-2.1-0.4s-1,0.3-2,0.3s-1,0.2-2,0.2s-1-0.3-2.1-0.3s-1,0.4-2,0.4s-1-0.2-2.1-0.2s-1,0.2-2,0.3s-1,0.1-2,0.2s-1-0.1-2.1,0s-1-0.2-2.1-0.2s-1,0-2.1,0.1s-1,0.2-2.1,0.2s-1,0-2.1,0s-1,0.4-2.1,0.4s-1-0.1-2.1-0.1C2.5,105.1,2.5,105.1,2.5,105.1z"/>
      <path fill="#003C3C" d="M349.8,153L349.8,153c-0.7,0-1.5-0.1-2.2-0.3c-0.7-0.1-1.4-0.4-2.1-0.6c-0.7-0.2-1.4-0.4-2-0.7c-0.6-0.3-1.3-0.7-1.9-1.1c-0.5-0.5-1-1-1.5-1.6c-0.6-0.5-1.1-1-1.5-1.5c-0.4-0.6-0.7-1.3-0.9-2c-0.7-1.3-1-2.8-0.9-4.2c0-1-0.3-0.9-0.3-1.9s0.4-1,0.3-1.9s-0.3-1-0.3-1.9s-0.2-1-0.2-1.9s0.3-1,0.3-2s-0.4-0.9-0.4-1.9s0.2-1,0.2-1.9c-0.1-0.7-0.1-1.4-0.1-2.2c0.1-0.7,0.2-1.5,0.4-2.2c0.3-0.7,0.6-1.4,0.9-2c0.4-0.6,0.9-1.2,1.4-1.7c0.9-1.1,2-2.1,3.1-3c0.6-0.4,1.3-0.7,1.9-0.9c0.6-0.4,1.3-0.7,2-1c0.7-0.1,1.5-0.1,2.2-0.1v-0.2c0.7,0,1.5,0.1,2.2,0.2c0.7,0.1,1.4,0.3,2.1,0.6c0.7,0.1,1.4,0.4,2.1,0.6c0.7,0.3,1.3,0.7,1.9,1.1c0.5,0.5,1,1.1,1.4,1.7c0.5,0.5,1,1.1,1.4,1.7c0.4,0.6,0.6,1.3,0.9,1.9c0.3,0.7,0.9,1.2,1.1,1.9c0.2,0.7,0.2,1.5,0.3,2.2c0,1-0.4,1-0.4,2s0.5,0.9,0.6,1.9s0,1,0.1,1.9s-0.4,1-0.3,2s0.2,1,0.2,1.9s0.2,1,0.3,1.9s-0.1,1,0,1.9c0.1,0.7,0.1,1.5,0.1,2.2c-0.1,0.7-0.3,1.4-0.6,2.1c-0.2,0.7-0.5,1.4-0.9,2c-0.3,0.6-0.7,1.3-1.1,1.9c-0.5,0.5-1,1-1.6,1.4c-0.5,0.5-0.9,1.2-1.5,1.6c-0.7,0.3-1.4,0.5-2.1,0.6c-0.6,0.3-1.3,0.6-2,0.8C351.3,152.7,350.5,152.9,349.8,153z"/>
      <path fill="#003C3C" d="M183.5,160.3v-0.2c-0.7,0-1.4,0-2.1-0.1c-0.7,0-1.5-0.1-2.2-0.2c-0.7-0.2-1.4-0.6-2-0.9c-0.7-0.3-1.3-0.6-1.9-1c-0.6-0.4-1.1-0.9-1.6-1.5c-0.4-0.6-0.8-1.2-1.2-1.9c-0.3-0.6-0.6-1.3-0.8-2c-0.6-1.3-1-2.7-1.1-4.2c-0.1-1,0.1-1,0-1.9s-0.1-1-0.1-1.9s0.1-1,0.1-1.9s-0.3-1-0.3-1.9s0.2-1,0.1-1.9s-0.3-1-0.4-1.9s0.4-1,0.3-1.9c-0.1-0.7-0.2-1.4-0.2-2.2c0.2-0.7,0.4-1.4,0.7-2c0.1-0.7,0.2-1.5,0.4-2.2c0.3-0.6,1-1.1,1.5-1.6c0.4-0.6,0.8-1.2,1.3-1.8c0.6-0.5,1.1-0.9,1.8-1.3c0.6-0.4,1.3-0.7,2-0.9c0.7-0.3,1.4-0.5,2.1-0.7c0.7-0.1,1.4-0.2,2.2-0.2v-0.1c0.7,0,1.4,0.1,2.2,0.2c0.7,0.1,1.4,0.2,2.1,0.4c0.7,0.2,1.4,0.5,2,0.9c0.6,0.3,1.2,0.7,1.8,1.2c1.7,1.4,3.1,3.1,4.1,5c0.2,0.7,0.2,1.5,0.3,2.2c0.3,0.7,0.5,1.4,0.6,2.1c0,1,0.1,1,0.2,1.9s-0.4,1-0.3,1.9s0.4,0.9,0.4,1.9s0.2,1,0.2,1.9s0,1,0.1,1.9s-0.1,1-0.1,1.9s-0.1,1-0.1,1.9c0.1,0.7,0.1,1.4,0,2.2c-0.1,0.7-0.2,1.4-0.4,2.1c-0.3,0.7-0.6,1.3-1,1.9c-0.3,0.7-0.6,1.4-0.9,2c-1,1.1-2,2.1-3.2,2.9c-0.6,0.4-1.3,0.7-2,0.9c-0.6,0.3-1.3,0.6-2,0.9C184.9,160.4,184.2,160.4,183.5,160.3z"/>
      <path fill="#FFFFFF" d="M233.7,134.8c0.8,0.7,1.1,0,2.1,0s1-0.4,2-0.5s1,0,2-0.1s1,0,2,0s1-0.1,2-0.1s1,0.2,2.1,0.1s1-0.1,2-0.1s1,0.1,2,0c1-0.1,1,0,2,0s1-0.2,2-0.2s1,0,2,0c1,0,1-0.3,2-0.3s1-0.1,2-0.2s1,0.2,2,0.1s1-0.1,2-0.1s1,0.1,2,0s1,0.1,2,0s1-0.1,2-0.2s1-0.3,2-0.4s1,0.3,2,0.2s1-0.4,2-0.4s1,0.1,2,0.1s1-0.1,2-0.1l2-0.1c1,0,1-0.1,2-0.1s1,0,2,0s1-0.1,2-0.1s1,0.1,2,0s1-0.1,2-0.2l2-0.1c1,0,1-0.1,2-0.1l2-0.1c1-0.1,1,0.1,2,0.1s1-0.2,2-0.3s1,0.1,2,0.1s1-0.4,2-0.5s1,0.4,2.1,0.3s1-0.3,2-0.4s1-0.2,2-0.3s1,0.3,2.1,0.3s1-0.2,2-0.2s1-0.3,2-0.4s1,0.2,2.1,0.2s1-0.1,2-0.2s1-0.1,2-0.1s1-0.2,2-0.2s1,0.1,2,0s1-0.1,2-0.1s1,0.2,2,0.2s1-0.4,2-0.4l2-0.1c1-0.1,1,0.2,2,0.1s1-0.2,2-0.2s1,0,2,0s1,0,2,0s1-0.4,2-0.5s1,0,2-0.1s1,0.1,2,0s1,0.1,2,0s1,0.1,2.1,0s1-0.2,2-0.3s1.3,0.6,2-0.1s0-1-0.1-2s0.1-1,0-2.1s0-1-0.1-2s-0.2-1-0.3-2s-0.1-1-0.2-2s0.3-1,0.3-2.1s-0.4-1-0.4-2s0-1-0.1-2s0.1-1,0.1-2.1s-0.4-1-0.4-2s0.2-1,0.2-2.1s0-1,0-2.1l-0.1-2c0-1-0.2-1-0.3-2s0.2-1,0.1-2.1s-0.1-1-0.1-2s0-1-0.1-2s-0.2-1-0.3-2.1s-0.1-1-0.1-2s0-1,0-2.1s0.1-1,0.1-2.1s0-1,0-2s-0.4-1-0.4-2s0.1-1,0-2.1s-0.2-1-0.2-2.1s0.3-1,0.2-2.1s-0.5-1-0.5-2s0-1,0-2s0.2-1,0.1-2.1s-0.1-1-0.2-2.1s-0.2-1-0.2-2s0.3-1,0.3-2.1s-0.3-1-0.4-2s-0.3-1-0.3-2s0.2-1,0.1-2.1s0.2-1,0.1-2.1s-0.1-1-0.2-2s-0.3-1-0.4-2s-0.1-1-0.1-2s0.4-1.1,0.3-2.1s-0.3-1-0.3-2s-0.2-1-0.2-2s-0.1-1-0.1-2.1s0.1-1,0.1-2.1s-0.4-1-0.4-2s0-1,0-2.1s0.2-1,0.2-2.1s-0.3-1-0.4-2s-0.1-1-0.1-2s0-1-0.1-2.1s0.2-1,0.1-2.1s0-1,0-2s0-1,0-2s0.1-1,0-2.1s-0.5-1-0.5-2s0.4-1,0.4-2.1s-0.2-1-0.2-2.1s0-1-0.1-2.1c-0.1-0.6-0.3-1.3-0.6-1.8c-0.3-1.2-0.9-2.4-1.8-3.3c0.2-0.8,0.2-1.6,0.2-2.5c-0.5-0.4-1.1-0.7-1.7-0.9c-0.6-0.3-1.2-0.6-1.8-0.8c-0.7,0-1.3,0.1-2,0.2c-1,0-1,0.1-2.1,0.2s-1-0.1-2.1,0s-1-0.2-2.1-0.1s-1,0.3-2,0.4l-2.1,0.1c-1,0-1-0.2-2.1-0.1s-1,0.2-2.1,0.3s-1-0.2-2.1-0.2s-1,0.1-2,0.1s-1,0.4-2,0.5s-1-0.3-2.1-0.2s-1,0.3-2,0.4s-1-0.2-2.1-0.2s-1,0-2.1,0.1s-1,0.1-2.1,0.2s-1-0.1-2.1,0s-1,0-2.1,0s-1,0.2-2.1,0.2s-1,0.1-2.1,0.1s-1,0.2-2.1,0.3s-1,0.2-2.1,0.2s-1.1-0.4-2.1-0.4s-1,0.4-2,0.4s-1-0.1-2.1-0.1s-1,0.3-2.1,0.3s-1,0-2.1,0s-1,0.1-2.1,0.2s-1-0.2-2.1-0.2s-1,0.1-2.1,0.1S285,5,284,5s-1-0.2-2.1-0.2s-1-0.1-2.1,0s-1,0-2.1,0.1s-1,0-2.1,0s-1,0.1-2.1,0.2s-1,0-2.1,0s-1,0.3-2.1,0.4s-1-0.2-2.1-0.1s-1,0.3-2,0.4l-2.1,0.1c-1,0-1,0.1-2.1,0.1s-1-0.1-2.1-0.1s-1,0.2-2.1,0.3s-1-0.1-2.1-0.1c-1.1,0.1-1-0.2-2.1-0.1s-1,0.4-2.1,0.4s-1,0.1-2.1,0.2s-1.1-0.4-2.1-0.3l-2.1,0.1c-1,0-1,0.5-2.1,0.5s-1-0.3-2.1-0.2s-1,0.1-2.1,0.2s-1,0.3-2.1,0.3l-2.1,0.1c-1,0.1-1-0.1-2.1,0l-2.1,0.1c-1,0-1.3-0.7-2,0s0.1,1,0.1,2s0,1,0.1,2.1s0.1,1,0.1,2s-0.1,1,0,2.1s0.2,1,0.3,2s0.1,1,0.1,2s-0.2,1-0.2,2.1s-0.1,1-0.1,2.1s0.1,1,0.1,2s0.3,1,0.4,2s0,1,0,2.1s0.2,1,0.3,2s0.1,1,0.1,2s-0.1,1,0,2.1s-0.1,1-0.1,2.1s0.1,1,0.2,2s0.2,1,0.2,2c0,1,0,1,0,2.1s0.1,1,0.1,2.1s-0.1,1-0.1,2.1s0.3,1,0.3,2s-0.2,1-0.1,2.1s0.3,1,0.4,2.1s-0.4,1-0.3,2.1s0.3,1,0.4,2s-0.2,1-0.1,2.1s0.5,1,0.5,2s-0.3,1-0.3,2.1s0.3,1,0.4,2s0,1,0,2.1s0,1,0,2.1s0.1,1,0.1,2.1s0,1,0,2.1s0.1,1,0.2,2s-0.1,1,0,2.1s0.1,1,0.2,2.1s0,1,0.1,2.1s0,1,0.1,2s0.1,1,0.1,2.1s0.1,1,0.1,2.1s0.2,1,0.3,2s-0.3,1-0.3,2.1s0.4,1,0.4,2s0.1,1,0.2,2.1s-0.4,1-0.3,2.1s0.4,1,0.4,2s0.2,1,0.2,2.1s0,1,0.1,2.1s-0.2,1-0.1,2.1s-0.1,1-0.1,2.1s0.1,1,0.2,2s0.1,1,0.1,2.1s-0.1,1-0.1,2.1s0.3,1,0.4,2s0,1,0,2.1s0.1,1,0.1,2.1s-0.1,1,0,2.1s0.3,1,0.3,2s-0.4,1.1-0.3,2.1s0.3,1,0.3,2s0.4,1.1,0.2,2.1S232.9,134.1,233.7,134.8z"/>
      <path fill="#003C3C" d="M233.7,137.3c-0.6,0-1.2-0.3-1.7-0.7c-0.5-0.5-1.2-1-1.2-1.7c0-1,0-1-0.1-2.1s0-1,0-2.1s-0.1-1-0.1-2s0.2-1,0.1-2.1s-0.1-1-0.1-2.1s0.1-1,0-2.1s0-1-0.1-2.1s-0.2-1-0.2-2s0-1,0-2.1s-0.3-1-0.3-2s-0.1-1-0.2-2.1s0.2-1,0.1-2.1s-0.1-1-0.1-2.1s0-1,0-2s0.1-1,0-2.1s-0.1-1-0.2-2s-0.3-1-0.3-2s0.2-1,0.2-2.1s-0.4-1-0.4-2s0.1-1,0.1-2.1s-0.1-1-0.1-2.1L229,90c0-1-0.1-1-0.1-2.1s0-1,0-2.1s-0.1-1-0.1-2.1s0.1-1,0-2.1s-0.1-1-0.2-2.1s0-1-0.1-2.1l-0.1-2.1c-0.1-1,0-1-0.1-2s0.1-1,0.1-2.1s-0.2-1-0.3-2s0.1-1,0.1-2.1s-0.4-1-0.5-2s0.4-1,0.3-2.1s-0.3-1-0.3-2.1s-0.2-1-0.3-2s0.3-1.1,0.3-2.1s-0.2-1-0.2-2s-0.3-1-0.4-2s0.2-1,0.2-2.1s-0.1-1-0.2-2s-0.1-1-0.1-2.1s-0.2-1-0.2-2s0.1-1,0.1-2.1s-0.1-1-0.1-2.1s0.2-1,0.2-2.1s-0.4-1-0.4-2l-0.1-2.1c0-1,0.2-1,0.1-2.1s-0.2-1-0.2-2.1s0-1,0-2.1s0-1,0-2.1s-0.4-1-0.5-2s0-1-0.1-2.1s0.1-1,0-2.1s0.1-1,0-2.1s0.1-1,0-2.1s-0.2-1-0.3-2.1s-0.1-1-0.1-2.1s0-1-0.1-2.1s0.1-1,0-2.1c0-0.7,0.2-1.3,0.7-1.8c0.4-0.5,1-0.9,1.7-1c1,0,1-0.1,2.1-0.2s1.1,0.3,2.1,0.3s1-0.3,2.1-0.4s1,0,2.1-0.1s1,0.1,2.1,0.1s1-0.4,2.1-0.4s1,0.2,2.1,0.2s1,0,2.1,0l2.1-0.1c1,0,1-0.2,2.1-0.3c1.1,0,1,0.2,2.1,0.2s1-0.1,2.1-0.1s1,0,2.1-0.1s1-0.2,2.1-0.3c1.1,0,1-0.1,2.1-0.1s1,0,2.1,0s1,0.1,2.1,0.1s1,0,2.1-0.1s1-0.4,2-0.4s1,0.1,2.1,0s1-0.2,2.1-0.2s1,0.3,2.1,0.2s1-0.5,2-0.6s1,0,2.1,0s1,0.2,2.1,0.2s1-0.1,2.1-0.2s1-0.2,2.1-0.2s1,0.3,2.1,0.3s1-0.3,2-0.3s1-0.3,2.1-0.3s1,0.2,2.1,0.1s1,0.2,2.1,0.1s1-0.1,2.1-0.2s1-0.3,2.1-0.4l2.1-0.1c1,0,1,0.4,2.1,0.3s1-0.3,2.1-0.3s1-0.2,2.1-0.2s1-0.1,2.1-0.1s1,0.1,2.1,0.1s1-0.4,2.1-0.4s1,0,2.1,0s1,0.2,2.1,0.2s1-0.3,2-0.4s1-0.1,2.1-0.1l2.1-0.1c1-0.1,1,0.2,2.1,0.1s1,0,2.1-0.1s1,0,2.1,0s1,0.1,2.1,0s1-0.5,2-0.5s1,0.4,2.1,0.3s1-0.2,2.1-0.2s1,0,2.1,0s1-0.3,2.1-0.4s1,0,2.1-0.1s1-0.1,2.1-0.1c0.7,0,1.5,0.1,2.2,0.2c0.7,0.1,1.4,0.3,2.1,0.5c0.7,0.3,1.3,0.7,1.8,1.2c1.4,0.5,2.6,1.4,3.5,2.6c0.4,0.6,0.7,1.3,1,2c0.2,0.7,0.4,1.4,0.5,2.1c0.3,0.7,0.5,1.4,0.6,2.1c0,1,0,1,0.1,2s-0.2,1-0.1,2.1s0.2,1,0.3,2s-0.2,1-0.2,2s0.1,1,0.1,2s0.4,1,0.5,2s-0.3,1-0.2,2.1s0.3,1,0.4,2s-0.2,1-0.2,2.1s0,1,0.1,2.1s0.1,1,0.2,2s-0.1,1,0,2s0,1,0,2s0.2,1,0.2,2s0.1,1,0.1,2s0.2,1,0.3,2s0.2,1,0.2,2s-0.4,1-0.4,2.1s0.4,1,0.4,2s-0.1,1-0.1,2s0.3,1,0.3,2s0,1,0,2.1s0.1,1,0.1,2.1s-0.2,1-0.2,2.1s0.1,1,0.1,2s0.4,1,0.5,2s-0.2,1-0.2,2.1s-0.1,1,0,2.1s0,1,0.1,2.1s0,1,0,2s0.1,1,0.1,2.1s0,1,0,2s0.3,1,0.4,2s-0.1,1-0.1,2s0.3,1,0.4,2s0,1,0.1,2.1s0.1,1,0.1,2s-0.1,1-0.1,2.1s0.2,1,0.3,2s-0.1,1-0.1,2.1s-0.2,1-0.1,2.1s0.4,1,0.4,2s0.1,1,0.1,2s-0.4,1-0.3,2.1s0,1,0.1,2.1s0.5,1,0.5,2s-0.3,1-0.2,2.1s0.1,1,0.2,2s0.3,1,0.3,2s0,1,0.1,2.1s-0.1,1,0,2s0.1,1,0.1,2.1s0,1,0.1,2.1s0.1,1,0.1,2s0,1,0.1,2.1s0.1,1,0.1,2.1s-0.1,1,0,2.1s0.2,1,0.3,2c0,0.7-0.2,1.5-0.7,2.1c-0.6,0.5-1.3,0.7-2,0.7c-1,0.1-1-0.1-2-0.1s-1,0.1-2,0.1s-1,0.3-2,0.4s-1,0-2,0s-1,0.2-2,0.3s-1,0.1-2,0.1s-1-0.1-2,0s-1-0.1-2-0.1s-1,0.1-2,0.2s-1,0.2-2,0.2s-1-0.1-2,0s-1,0.1-2,0.1s-1-0.1-2-0.1s-1,0.3-2,0.3s-1-0.2-2-0.1s-1,0.3-2,0.4s-1-0.4-2.1-0.3s-1,0.3-2,0.4s-1-0.2-2-0.1s-1,0.5-2,0.5s-1-0.3-2-0.3s-1,0.3-2,0.4s-1,0-2,0s-1,0-2,0s-1,0.1-2,0.1s-1,0-2,0s-1,0.1-2,0.2s-1-0.1-2,0s-1,0.1-2,0.2s-1,0-2,0.1s-1,0-2,0s-1,0.1-2,0.1l-2,0.1c-1,0-1,0.2-2,0.3s-1-0.3-2.1-0.3s-1,0.4-2,0.4s-1,0.1-2,0.2s-1-0.4-2.1-0.3s-1,0.4-2,0.4s-1,0.2-2,0.2l-2,0.1c-1,0-1-0.1-2-0.1s-1-0.1-2-0.1s-1,0.1-2,0.2s-1,0.1-2,0.1s-1-0.1-2-0.1s-1,0.3-2,0.4s-1,0-2,0s-1,0.1-2,0.1s-1-0.1-2,0s-1,0.3-2,0.3s-1-0.4-2.1-0.3c-1.1,0.1-1,0.3-2,0.3s-1,0.2-2,0.2s-1-0.3-2.1-0.3s-1,0.4-2,0.4s-1-0.2-2.1-0.2s-1,0.3-2,0.3s-1,0.1-2,0.2s-1-0.1-2.1,0s-1-0.2-2.1-0.2s-1,0-2.1,0.1C233.8,137.1,233.7,137.3,233.7,137.3z M230.6,9.7c-0.7,0.8,0,1.1,0,2.1s0.4,1,0.5,2s0,1,0.1,2.1s0,1,0,2.1s0.1,1,0.1,2.1s-0.2,1-0.2,2.1s0.1,1,0.1,2.1s-0.1,1,0,2.1s0,1,0.1,2.1s0.2,1,0.2,2.1s0,1,0,2.1s0.3,1,0.3,2.1s0.1,1,0.2,2.1s-0.2,1-0.1,2.1s0.1,1,0.1,2.1s-0.1,1,0,2.1c0.1,1.1-0.1,1,0,2.1s0.1,1,0.2,2.1s0.3,1,0.4,2.1s-0.3,1.1-0.2,2.1s0.4,1,0.4,2.1s-0.1,1,0,2.1s0.1,1,0.1,2.1s0,1,0.1,2.1s0.1,1,0.1,2.1s0,1,0,2.1s0.1,1,0.1,2.1s-0.1,1,0,2.1s0.1,1,0.2,2.1s0,1,0.1,2.1s0.1,1,0.1,2.1s0,1,0.1,2.1s-0.1,1.1-0.1,2.1s0.2,1,0.3,2.1s-0.1,1-0.1,2.1s0.4,1,0.5,2.1s-0.4,1.1-0.3,2.1s0.3,1,0.3,2.1s0.2,1,0.3,2.1s-0.3,1.1-0.3,2.1s0.2,1,0.2,2.1s0.3,1,0.4,2.1s-0.2,1.1-0.2,2.1s0.1,1,0.2,2.1s0.1,1,0.1,2.1s0.2,1,0.2,2.1s-0.1,1.1-0.1,2.1s0.1,1,0.1,2.1s-0.2,1-0.2,2.1s0.4,1,0.4,2.1s0.1,1,0.1,2.1s-0.2,1-0.1,2.1s0.2,1,0.2,2.1s0,1,0,2.1s0,1,0,2.1s0.4,1,0.5,2.1s0,1,0.1,2.1s-0.1,1,0,2.1s-0.8,1.4,0,2.1s1.1,0.1,2.1,0s1-0.2,2-0.3s1-0.1,2.1-0.1l2,0c1-0.1,1,0.1,2.1,0s1,0,2-0.1s1-0.2,2-0.3s1-0.1,2-0.2s1,0.3,2.1,0.3s1-0.3,2-0.4c1-0.1,1,0,2.1-0.1s1,0.1,2.1,0.1s1-0.4,2-0.4s1,0.2,2.1,0.2s1,0,2.1,0l2-0.1c1-0.1,1-0.2,2-0.3s1,0.2,2.1,0.1s1-0.1,2-0.1s1,0,2.1-0.1s1-0.2,2-0.3s1-0.1,2-0.1s1,0.1,2.1,0s1,0.1,2.1,0.1s1,0,2.1,0s1-0.4,2-0.4s1,0.1,2.1,0.1s1-0.2,2-0.2s1,0.3,2.1,0.2s1-0.5,2-0.6s1,0,2.1,0s1,0.2,2.1,0.1s1-0.1,2.1-0.2s1-0.2,2-0.2s1,0.3,2.1,0.3s1-0.3,2-0.4s1-0.3,2-0.3s1,0.2,2.1,0.1s1,0.2,2.1,0.1s1-0.1,2-0.2s1-0.3,2-0.4l2.1-0.1c1-0.1,1,0.4,2.1,0.3s1-0.3,2-0.3s1-0.1,2-0.2s1-0.1,2.1-0.1s1,0.1,2.1,0.1s1-0.4,2-0.4s1,0,2.1-0.1s1,0.2,2.1,0.2s1-0.3,2-0.4s1-0.1,2-0.1s1,0,2.1-0.1s1,0.2,2.1,0.1s1,0,2.1-0.1s1,0,2.1,0s1,0.1,2.1,0s1-0.5,2-0.5s1.5,1,2.2,0.3s-0.1-1.2-0.2-2.2s0-1-0.1-2s-0.3-1-0.4-2s0-1-0.1-2s-0.1-1-0.1-2s0.1-1,0-2s0-1-0.1-2s0.2-1,0.2-2s-0.4-1-0.4-2s-0.1-1-0.2-2s0.1-1,0-2.1s0.2-1,0.1-2s-0.3-1-0.4-2s0-1-0.1-2s0.2-1,0.1-2s-0.2-1-0.3-2s0.2-1,0.2-2.1s-0.1-1-0.1-2s-0.4-1-0.5-2s0.3-1,0.2-2.1s-0.3-1-0.4-2s0.2-1,0.2-2.1s0-1-0.1-2s-0.1-1-0.2-2s0.1-1,0-2s0-1,0-2.1s-0.2-1-0.2-2s-0.1-1-0.1-2s-0.2-1-0.3-2s-0.2-1-0.2-2s0.4-1,0.4-2.1s-0.4-1-0.4-2s0.1-1,0.1-2.1s-0.3-1-0.3-2s0-1,0-2s-0.1-1-0.1-2s0.2-1,0.2-2.1s-0.1-1-0.1-2s-0.4-1-0.5-2s0.2-1,0.2-2s0.1-1,0-2s0-1-0.1-2s0-1,0-2s-0.1-1-0.1-2s0-1,0-2s-0.4-1-0.4-2s0.1-1,0.1-2.1s-0.3-1-0.4-2l-0.1-2c0-1-0.1-1-0.1-2s0.1-1,0.1-2s-0.2-1-0.3-2s0.1-1,0.1-2.1s0.2-1,0.1-2s-0.4-1-0.4-2s-0.1-1-0.1-2s0.4-1,0.3-2.1c0-0.8-0.2-1.6-0.6-2.3c-0.3-0.7-1.1-1.1-1.7-1.6c-0.5-0.6-1.1-1.1-1.8-1.5c-0.8-0.2-1.6-0.3-2.3-0.2c-1,0-1,0.3-2,0.3s-1,0-2.1,0.1s-1-0.1-2.1,0l-2,0.1c-1,0-1,0-2.1,0.1l-2.1,0.1L331.2,7c-1,0-1,0.1-2.1,0.1s-1-0.1-2.1,0s-1,0.2-2,0.3s-1,0.1-2,0.2s-1-0.2-2.1-0.2s-1-0.1-2.1-0.1s-1,0.1-2.1,0.1s-1,0.3-2,0.4s-1,0-2.1,0s-1,0.2-2.1,0.3s-1,0.1-2,0.1s-1-0.1-2.1,0s-1-0.1-2.1-0.1s-1,0.1-2.1,0.2s-1,0.2-2,0.2s-1,0-2.1,0s-1,0.1-2.1,0.1s-1-0.1-2.1-0.1s-1,0.3-2,0.3s-1-0.2-2.1-0.1s-1,0.3-2,0.4s-1-0.3-2.1-0.3s-1,0.3-2,0.4s-1-0.2-2.1-0.2s-1,0.5-2,0.5s-1-0.3-2.1-0.3s-1,0.3-2,0.4s-1,0-2.1,0s-1,0-2.1,0s-1,0.1-2,0.1s-1,0-2.1,0s-1,0.1-2.1,0.2s-1-0.1-2.1,0s-1,0.1-2.1,0.2s-1,0-2.1,0.1s-1,0-2.1,0l-2.1,0.1l-2.1,0.1c-1,0-1,0.2-2.1,0.3s-1-0.3-2.1-0.3s-1,0.3-2.1,0.4s-1,0.1-2.1,0.2s-1-0.4-2.1-0.3s-1,0.4-2.1,0.4s-1,0.2-2.1,0.2s-1,0-2.1,0.1s-1-0.2-2.1-0.1c-0.7,0.1-1.3,0.1-2-0.1C231.7,9.3,231.3,9,230.6,9.7z"/>
      <path fill="#F48953" d="M318,130.8c0.8,0.7,0.9,0,1.9,0s1-0.1,2.1-0.2s1,0.2,2.1,0.1s1,0,2.1,0s1,0.1,2.1,0s1-0.1,2.1-0.1s1-0.2,2.1-0.2s1-0.2,2-0.3s1,0.2,2.1,0.1s1-0.3,2-0.4s1.1,0.4,2.1,0.3s1-0.2,2.1-0.2s1,0,2.1-0.1s1-0.2,2-0.3s1-0.2,2.1-0.2s1,0.1,2.1,0s1,0.2,2.1,0.2s1-0.2,2-0.3s1-0.3,2.1-0.3s1,0.3,2.1,0.3s1-0.4,2-0.4s1,0.1,2.1,0.1s1-0.1,2.1-0.1s1,0.2,2.1,0.2s1-0.4,2-0.4l2.1-0.1c1,0,1,0.1,2.1,0.1s1-0.2,2-0.2s1,0.2,2.1,0.2s1-0.5,2-0.5s1,0.2,2.1,0.1s1-0.3,2.1-0.4s1,0,2.1-0.1s1.3,0.8,2,0s0.2-1,0.2-2s-0.2-1-0.2-2.1s0-1-0.1-2.1s-0.3-1-0.3-2.1s0.2-1,0.1-2.1s0-1-0.1-2.1s-0.2-1-0.2-2.1s-0.1-1-0.2-2.1s-0.2-1-0.3-2.1s0.1-1,0-2.1s-0.1-1-0.2-2.1s0-1-0.1-2.1s-0.1-1-0.1-2.1s0.3-1,0.2-2.1s0.1-1,0-2.1s-0.2-1-0.3-2.1s0.1-1,0-2.1s-0.1-1-0.2-2.1s0.6-1.3-0.2-2s-1-0.2-2-0.1s-1,0.4-2,0.4s-1,0-2.1,0.1s-1,0-2.1,0s-1-0.2-2.1-0.1s-1,0.4-2,0.5s-1,0-2.1,0.1s-1-0.2-2.1-0.1s-1,0.2-2,0.2s-1-0.1-2.1-0.1s-1,0.2-2.1,0.2s-1-0.2-2.1-0.2s-1,0.2-2,0.3s-1,0.1-2.1,0.2s-1,0.2-2,0.3s-1-0.3-2.1-0.2s-1,0-2.1,0s-1,0.1-2.1,0.2l-2.1,0.1c-1,0-1,0.2-2.1,0.3s-1-0.2-2.1-0.2l-2.1,0.1c-1,0-1-0.1-2.1,0s-1,0.1-2.1,0.1l-2.1,0.1c-1,0.1-1,0.1-2.1,0.2s-1,0.2-2.1,0.2l-2.1,0.1c-1,0-1-0.1-2.1,0l-2.1,0.1c-1,0-1,0-2.1,0s-1,0-2.1,0s-1,0.4-2.1,0.5s-1.2-0.8-1.9,0s0,0.9,0.1,1.9s0.1,1,0.1,2.1s-0.2,1-0.2,2.1s0.1,1,0.1,2.1s0,1,0,2.1s0,1,0.1,2.1s0.2,1,0.2,2.1s0,1,0,2.1s0.2,1,0.3,2.1s0.1,1,0.2,2.1s-0.2,1-0.1,2.1s0.1,1,0.1,2.1s0,1,0,2.1s-0.1,1,0,2.1s0.1,1,0.2,2.1s0.3,1,0.4,2.1s-0.3,1-0.2,2.1s0.5,1.1,0.4,2.1S317.2,130.1,318,130.8z"/>
      <path fill="#003C3C" d="M317.8,133.4c-0.7,0.1-1.4,0-2-0.4c-0.5-0.4-0.4-1.2-0.4-2c0-1-0.4-1-0.5-2s0.2-1.1,0.2-2.1s-0.2-1-0.3-2.1s-0.2-1-0.3-2.1s0-1-0.1-2.1s0.4-1,0.3-2.1s-0.1-1-0.2-2.1s-0.3-1-0.4-2.1s0.2-1,0.1-2.1s-0.3-1-0.4-2.1s0.3-1.1,0.3-2.1s-0.2-1-0.2-2.1s-0.1-1-0.1-2.1s-0.1-1-0.1-2.1s-0.1-1-0.2-2.1s0-1,0-2.1s-0.2-1-0.2-2.1s0.1-1,0-2.1s-0.1-1-0.1-2.1c0-0.7,0.3-1.4,0.8-1.9c0.5-0.5,1.1-0.9,1.8-0.9c1-0.1,1,0.1,2.1,0.1s1-0.3,2-0.4s1,0.1,2.1,0.1s1,0.2,2.1,0.2s1-0.4,2-0.4s1,0.1,2.1,0s1-0.2,2-0.3s1,0,2.1,0s1,0.2,2.1,0.2s1-0.4,2-0.4s1,0.1,2.1,0.1s1,0,2.1-0.1s1,0,2.1,0s1,0,2.1-0.1s1,0,2.1-0.1s1-0.4,2-0.4s1,0.2,2.1,0.1s1,0.1,2.1,0s1-0.4,2-0.4s1-0.2,2.1-0.2s1,0,2.1,0s1,0.3,2.1,0.3s1,0,2.1-0.1s1-0.3,2-0.4s1-0.1,2.1-0.1s1-0.1,2.1-0.1s1,0.1,2.1,0.1s1,0,2.1,0s1-0.3,2-0.4s1,0.3,2.1,0.3s1-0.5,2-0.5s1,0.1,2.1,0.1s1-0.1,2.1-0.1s1-0.2,2.1-0.2c0.7,0,1.5,0.3,2,0.8c0.4,0.5,0.6,1.2,0.6,1.9c0,1,0.3,1,0.4,2.1s0,1,0.1,2.1s0,1,0,2.1s-0.1,1-0.1,2.1s0,1,0,2.1s0.2,1,0.3,2.1s0.2,1,0.3,2.1s-0.4,1.1-0.3,2.1s0.3,1,0.4,2.1s-0.2,1-0.1,2.1s0,1,0.1,2.1s0.1,1,0.2,2.1s-0.1,1-0.1,2.1s0.4,1,0.5,2s0,1,0,2.1s-0.3,1.1-0.2,2.1s0.4,1,0.4,2.1s0,1,0,2.1s0,1,0.1,2.1c0,0.7-0.3,1.3-0.8,1.8c-0.4,0.6-1.1,0.9-1.8,1c-1,0-1-0.2-2.1-0.2s-1,0.2-2,0.3s-1,0.2-2.1,0.2s-1,0-2.1,0s-1-0.1-2.1-0.1s-1,0.1-2.1,0.2s-1,0.1-2.1,0.1s-1-0.1-2.1,0s-1,0.1-2.1,0.1s-1-0.1-2.1,0s-1,0.2-2.1,0.2s-1,0.2-2.1,0.3s-1-0.2-2.1-0.1s-1,0.2-2.1,0.2s-1-0.1-2.1-0.1s-1,0.5-2,0.5s-1-0.2-2.1-0.1s-1,0.2-2,0.2s-1,0.1-2.1,0.1s-1-0.1-2.1,0s-1,0-2.1,0.1s-1-0.1-2.1,0l-2.1,0.1c-1,0-1-0.1-2.1,0s-1,0.3-2,0.3s-1-0.1-2.1-0.1s-1,0.1-2.1,0.1s-1-0.1-2.1-0.1s-1,0.1-2.1,0.1s-1,0-2.1,0.1s-1,0.1-2.1,0.1s-1,0.4-2,0.5s-1-0.2-2.1-0.2s-1,0.3-2.1,0.3C317.9,133.7,317.9,133.4,317.8,133.4z M318.7,94c-0.7,0.7,0.4,1.1,0.4,2.1s-0.4,1-0.4,2s0.4,1,0.4,2s-0.2,1-0.2,2s0.2,1,0.3,2s0.2,1,0.3,2s0,1,0.1,2s-0.4,1-0.3,2s0.1,1,0.2,2s0.3,1,0.4,2s-0.2,1-0.1,2s0.3,1,0.4,2s-0.3,1-0.3,2s0.2,1,0.2,2s0.1,1,0.1,2s0.1,1,0.1,2s-0.6,1.2,0.1,1.9s0.9,0,1.9-0.1s1-0.2,2-0.2s1,0.1,2,0.1l2-0.1c1,0,1,0,2,0s1-0.1,2-0.2s1,0.1,2,0.1s1-0.3,2-0.4s1,0.1,2,0.1s1,0.2,2,0.2s1-0.4,2-0.4s1,0.1,2,0s1-0.2,2-0.3s1,0,2,0s1,0.2,2,0.2s1-0.4,2-0.5s1,0.1,2,0.1s1,0,2-0.1s1,0,2,0s1,0,2,0s1,0,2-0.1s1-0.4,2-0.4s1,0.2,2,0.1s1,0.1,2,0s1-0.4,2-0.4s1-0.1,2-0.2s1,0,2,0s1,0.3,2,0.3s1,0,2-0.1s1-0.3,2-0.4s1-0.1,2-0.1s1.3,0.7,2-0.1s0.1-0.9,0.1-1.9s0-1,0-2s-0.3-1-0.4-2s0.3-1,0.3-2s-0.5-1-0.5-2s0.1-1,0.1-2s-0.1-1-0.1-2s-0.2-1-0.2-2s0-1,0-2s0.3-1,0.2-2s-0.3-1-0.4-2l-0.1-2c0-1,0-1,0-2s0.1-1,0.1-2s0-1,0-2s-0.2-1-0.3-2s0.5-1.2-0.2-1.8s-0.9-0.3-1.9-0.2s-1,0.3-2,0.4s-1-0.2-2-0.1s-1,0-2,0.1s-1,0.1-2,0.2s-1-0.1-2-0.1s-1,0.4-2,0.4s-1,0-2,0s-1-0.3-2-0.2s-1,0.4-2,0.4s-1,0-2,0.1s-1,0-2,0.1s-1-0.1-2,0s-1,0.2-2,0.2s-1-0.2-2-0.2s-1,0.2-2,0.3s-1,0.1-2,0.2s-1,0-2,0s-1-0.1-2-0.1s-1,0.1-2,0.2s-1,0.1-2,0.1s-1-0.1-2,0l-2,0.1c-1,0-1-0.1-2,0s-1,0.2-2,0.2s-1,0.2-2,0.3s-1-0.2-2-0.2s-1,0.2-2,0.2s-1-0.1-2-0.1s-1,0.5-2,0.5c-0.7,0.1-1.4,0-2.1-0.1C319.7,93.8,319.4,93.3,318.7,94L318.7,94z"/>
      <path fill="#00AD73" d="M289.2,92.6c0.8,0.6,0.9,0.1,1.9,0s1-0.1,2-0.1s1-0.2,2-0.2s1,0,2,0s1,0.3,2.1,0.2s1-0.3,2-0.4l2-0.1c1,0,1,0,2-0.1s1,0.1,2,0.1s1,0,2,0s1-0.2,2-0.3s1-0.2,2-0.3s1,0.4,2.1,0.3s1-0.3,2-0.4s1,0.2,2.1,0.1s1,0,2-0.1s1-0.1,2-0.2s1,0.1,2.1,0.1s1-0.4,2-0.5s1,0,2,0s1,0.3,2.1,0.2s1-0.4,2-0.4s1,0,2-0.1l2-0.1c1,0,1,0.1,2,0s1-0.2,2-0.2s1,0.2,2,0.2s1-0.2,2-0.3s1-0.2,2-0.2s1,0,2,0s1,0.1,2,0.1s1-0.1,2-0.2s1-0.1,2-0.1s1,0.1,2,0l2-0.1c1-0.1,1,0.1,2,0s1-0.2,2-0.2s1-0.2,2-0.3s1,0.2,2.1,0.1s1-0.2,2-0.2s1,0.1,2,0.1s1-0.5,2-0.5s1,0.2,2.1,0.1s1-0.2,2-0.2s1-0.1,2-0.1s1,0.1,2.1,0s1.4,0.8,2,0s-0.1-1-0.2-2s-0.2-1-0.4-2s-0.1-1-0.2-2s-0.4-1-0.5-2s0-1-0.2-2.1s-0.2-1-0.4-2s0-1-0.2-2.1s-0.2-1-0.4-2s-0.1-1-0.3-2s-0.2-1-0.4-2s-0.6-0.9-0.7-2s0.1-1.1-0.1-2.1s-0.4-1-0.6-2s-0.1-1-0.3-2s-0.1-1-0.3-2s-0.2-1-0.4-2s0.1-1.1-0.1-2.1s-0.5-1-0.6-2s0-1-0.2-2.1s-0.3-1-0.5-2s0.1-1.1,0-2.1l-0.3-2c-0.2-1-0.5-1-0.7-2c0-0.7,0-1.4-0.1-2.1c-0.3-0.6-0.6-1.2-0.9-1.8c-0.2-0.6-0.5-1.3-0.8-1.9c-0.4-0.5-0.8-1.1-1.3-1.6c-0.3-0.6-0.7-1.2-1.1-1.7c-0.5-0.5-1-1-1.5-1.4c-0.6-0.3-1.2-0.6-1.9-0.9c-0.6-0.4-1.1-0.7-1.7-1c-0.6-0.3-1.3-0.5-1.9-0.7c-0.6-0.3-1.2-0.5-1.9-0.8c-0.7-0.1-1.3-0.2-2-0.3c-0.7,0-1.3,0-2,0c-1,0-1,0.4-2,0.4s-1-0.1-2-0.1s-1-0.2-2-0.1s-1,0.3-2,0.4s-1,0-2,0s-1,0.2-2,0.2s-1,0-2,0.1s-1-0.1-2-0.1s-1,0.2-2,0.2s-1,0.1-2,0.1s-1-0.2-2-0.1s-1,0.4-2,0.4s-1,0-2,0s-1-0.2-2-0.2s-1,0.4-2,0.4s-1,0-2,0s-1,0.2-2,0.2s-1-0.1-2,0s-1-0.2-2-0.2s-1,0.2-2,0.3s-1-0.1-2-0.1s-1,0.2-2,0.2s-1,0.3-2,0.3s-1-0.1-2-0.1s-1-0.2-2-0.2s-1,0.5-2,0.5s-1-0.2-2-0.2s-1-0.1-2-0.1s-1,0.5-2,0.5s-1-0.3-2-0.3s-1,0.2-2,0.3s-1,0.2-2,0.2s-1-0.2-2-0.2s-1,0-2,0.1s-1,0.4-2,0.4s-1,0.1-2,0.1s-1-0.1-2,0s-1,0.1-2,0.2s-1-0.2-2-0.1s-1.5-0.7-2.1,0.1s0,1.1,0.2,2.1s0.2,1,0.4,2s0.3,1,0.5,2s0.4,1,0.5,2s0,1.1,0.1,2.1c0.2,1,0.4,1,0.6,2S281,45,281.2,46s0.3,1,0.5,2s0.1,1,0.3,2s0.3,1,0.5,2s0.3,1,0.5,2s0.1,1,0.2,2.1s-0.1,1.1,0.1,2.1s0.3,1,0.5,2s0.4,1,0.5,2s-0.2,1.1,0,2.1s0.5,1,0.7,2s0,1.1,0.2,2.1s0.2,1,0.4,2s-0.1,1.1,0.1,2.1s0.5,1,0.7,2l0.3,2.1c0.2,1,0,1.1,0.1,2.1s0.3,1,0.5,2s-0.1,1.1,0.1,2.1s0.6,1,0.8,2s-0.1,1.1,0.1,2.1s0.4,1,0.6,2c0.2,0.7,0.3,1.4,0.3,2.1C288.9,91.7,288.4,92,289.2,92.6z"/>
      <path fill="#FFFFFF" d="M343.9,29.4c-0.6,0.6-0.1,0.8-0.1,1.8s0.1,1,0,2s0.1,1-0.1,2s-0.3,0.9-0.5,1.9s-0.1,1-0.4,1.9s-0.5,0.9-0.8,1.8s0,1.1-0.3,2c-0.3,0.9-0.7,0.8-1.1,1.8s0,1.1-0.5,2s-0.9,0.8-1.3,1.8s-0.1,1.1-0.6,2s-0.7,0.9-1.2,1.8s-0.3,1-0.9,2s-0.3,1-0.9,2s-0.5,1-1.1,1.9s-0.9,0.8-1.4,1.8s-0.5,1-1,1.9s-0.3,1.1-0.8,2s-0.7,0.9-1.2,1.8s-0.3,1-0.8,2s-0.8,0.8-1.3,1.8s-0.3,1-0.8,2s-0.4,1-0.8,1.9s-0.4,1-0.8,1.9s-0.3,1-0.7,1.9s-0.4,0.9-0.7,1.9s-0.2,1-0.4,2s-0.4,0.9-0.6,1.9s-0.2,1-0.4,1.9s-0.2,0.9-0.3,1.9s0,1,0,2s-0.6,0.9-0.2,1.9s0.9-0.1,2.1,0c0.6,0,1.4,0.2,2.2,0.3s1.5,0.4,2.2,0.4s1.3-0.2,2-0.2s1.5,0.2,2.1,0.2s1.4-0.1,2-0.1s1.5,0,2.1,0c1.1-0.1,2-0.1,2-0.4c-0.2-0.6-0.4-1.3-0.4-2c0-0.5,0.3-1.1,0.4-1.9c0.1-0.6,0.2-1.2,0.3-1.9s0.3-1.2,0.5-1.9s0.4-1.2,0.5-1.9s0.4-1.2,0.6-1.9s0.1-1.4,0.4-2s0.7-1.2,1-1.8s0.6-1.2,0.9-1.9s0.3-1.4,0.6-2s0.5-1.3,0.9-2s0.7-1.2,1-1.9s1-1.1,1.4-1.8s0.7-1.3,1.1-1.9s0.5-1.4,0.8-2s0.7-1.3,1-1.9s0.7-1.3,1.1-1.9s0.9-1.2,1.2-1.9s0.8-1.2,1.1-1.9s0.4-1.4,0.8-2s1-1.2,1.3-1.8s0.2-1.4,0.5-2.1s0.8-1.2,1-1.9s0.5-1.3,0.8-1.9s0.4-1.3,0.6-2s0.5-1.3,0.7-1.9s0.7-1.2,0.9-1.8s0.1-1.4,0.2-2s0.3-1.3,0.4-1.9s0.2-1.3,0.3-1.9s0.3-1.3,0.3-1.8c0-1.2,1-1.8-0.1-2.1s-1,0.2-2.1,0.2s-1,0.2-2,0.2s-1.2-0.4-2.3-0.4s-1,0.3-2,0.3s-1.2-0.2-2.2-0.2s-1.1,0-2.1,0c-0.7,0.1-1.4,0.1-2.1,0.1C344.8,29.1,344.5,28.8,343.9,29.4z"/>
      <path fill="#003C3C" d="M290.1,95.4c-1.2-0.2-2.2-1-2.5-2.2c-0.2-1-0.1-1-0.3-2.1s-0.3-1-0.5-2s-0.1-1-0.2-2.1s-0.1-1-0.3-2.1s-0.1-1-0.3-2s-0.2-1-0.4-2s-0.5-1-0.6-2s-0.1-1-0.3-2.1s-0.1-1-0.3-2.1s-0.1-1-0.2-2.1s-0.4-1-0.5-2s0-1.1-0.1-2.1s-0.5-1-0.7-2s0-1.1-0.2-2.1s0-1.1-0.1-2.1s-0.2-1-0.4-2s-0.4-1-0.6-2s-0.1-1-0.3-2s0.1-1.1-0.1-2.1s-0.6-1-0.8-2s0.2-1.1,0-2.1s-0.1-1-0.3-2.1s-0.6-1-0.7-2l-0.3-2c-0.2-1,0-1.1-0.1-2.1s-0.4-1-0.5-2s0.3-1.1,0.1-2.1s-0.2-1-0.4-2s-0.5-1-0.7-2s0-1.1-0.2-2.1c-0.3-1.4,0.7-2.7,2-3c0.1,0,0.3,0,0.4,0c1,0,1,0.1,2,0s1-0.3,2-0.4s1-0.1,2-0.2s1,0.1,2,0s1-0.2,2-0.3s1,0.1,2,0.1s1,0,2,0s1-0.1,2-0.2s1,0.1,2,0s1,0.1,2,0.1s1-0.3,2-0.3s1-0.2,2-0.2s1,0.1,2,0.1s1-0.2,2-0.3s1,0.2,2,0.2s1-0.4,2-0.4s1,0.1,2,0.1s1,0,2-0.1s1-0.2,2-0.2s1,0.1,2,0s1-0.2,2-0.2s1,0.3,2,0.3s1-0.5,2-0.5s1,0.2,2,0.1s1-0.2,2-0.2s1,0,2,0s1,0.2,2,0.2s1-0.1,2-0.2s1-0.3,2-0.4s1,0.1,2,0s1,0.2,2,0.2s1-0.1,2-0.2s1-0.3,2-0.4s1,0,2,0s1-0.2,2-0.2s1,0.3,2,0.3s1-0.3,2-0.3s1,0,2,0s1-0.3,2-0.3s1,0.3,2.1,0.2c0.7,0,1.3,0,2,0.1c0.7,0,1.4-0.1,2,0s1.3,0.3,2,0.5s1.3,0.3,1.9,0.6c0.6,0.2,1.2,0.5,1.8,0.8c0.6,0.3,1.1,0.7,1.7,1.1c0.6,0.3,1.2,0.6,1.8,1c0.5,0.5,0.9,1,1.3,1.6c0.5,0.5,1,0.9,1.4,1.4c0.4,0.5,0.8,1.1,1.2,1.6c0.4,0.6,0.8,1.1,1.1,1.7c0.3,0.6,0.6,1.2,0.8,1.8c0.2,0.7,0.3,1.3,0.5,2c0.2,0.6,0.4,1.3,0.5,1.9c0.2,1,0.2,1,0.3,2s0,1,0.2,2s0.1,1,0.3,2s0.2,1,0.4,2s0.6,0.9,0.7,2s0.2,1,0.3,2s0.2,1,0.4,2s0.1,1,0.2,2.1s0.3,1,0.4,2s0,1,0.2,2.1s0,1.1,0.1,2.1s0.1,1,0.3,2s0.2,1,0.4,2s0.3,1,0.5,2s0.1,1,0.3,2s0.1,1,0.3,2s0.5,1,0.7,2s0,1,0.2,2.1s-0.1,1.1,0.1,2.1s0.4,1,0.5,2s0.4,1,0.5,2s0.1,1,0.3,2.1s-0.2,1.1,0,2.1c0.2,0.7,0.2,1.5-0.2,2.2c-0.5,0.6-1.3,0.9-2.1,0.9c-1,0-1,0-2,0s-1,0.2-2,0.3s-1,0.1-2,0.2s-1-0.1-2,0s-1,0.1-2,0.1s-1-0.2-2-0.1s-1,0.2-2,0.2s-1,0.2-2,0.3s-1-0.1-2-0.1s-1,0.1-2,0.2s-1-0.2-2.1-0.2s-1,0.4-2,0.4s-1-0.3-2.1-0.3s-1,0.4-2,0.5s-1-0.4-2.1-0.4s-1,0.4-2,0.4s-1-0.2-2.1-0.2s-1,0.2-2,0.3s-1,0.2-2,0.3s-1,0-2,0.1s-1-0.4-2.1-0.3s-1,0.1-2,0.2s-1,0.3-2,0.4s-1-0.2-2.1-0.1s-1,0.3-2,0.4s-1-0.3-2.1-0.3s-1,0.2-2,0.2s-1,0.1-2,0.1s-1,0.1-2,0.1s-1,0.1-2,0.2s-1,0-2,0s-1,0.2-2,0.2s-1-0.1-2-0.1l-2,0.1c-1,0.1-1,0-2,0s-1,0.1-2,0.2s-1-0.1-2.1-0.1s-1,0.3-2,0.4s-1-0.1-2.1-0.1s-1-0.2-2.1-0.2s-1,0.4-2,0.4s-1-0.1-2,0s-1,0.2-2,0.3s-1,0-2,0s-1-0.2-2.1-0.2s-1,0.4-2,0.4s-1-0.1-2.1-0.1L290.1,95.4z M282.9,33.9c-0.6,0.8,0,1,0.2,2s0.3,1,0.5,2s0.1,1,0.3,2s0.3,1,0.5,2s0.1,1,0.2,2s0.1,1,0.3,2s0.1,1,0.3,2s0.2,1,0.4,2s0.5,0.9,0.6,1.9s0.1,1,0.3,2s0.1,1,0.2,2s0.1,1,0.2,2s0.4,1,0.5,2s-0.1,1,0.1,2s0.5,0.9,0.7,1.9s0,1,0.1,2s0,1,0.1,2s0.2,1,0.4,2s0.4,1,0.6,2s0.1,1,0.3,2s-0.1,1,0.1,2s0.6,0.9,0.8,1.9s-0.2,1,0,2.1s0.1,1,0.3,2s0.6,0.9,0.7,1.9s0.2,1,0.3,2s0,1,0.1,2s-0.4,1.2,0.4,1.8s0.9,0.4,1.9,0.3l2.1-0.1c1-0.1,1-0.4,2-0.4s1,0.1,2.1,0.1s1-0.1,2.1-0.1s1,0,2.1-0.1s1,0.1,2.1,0.1s1-0.3,2-0.4s1-0.1,2.1-0.1s1,0.1,2.1,0s1-0.2,2.1-0.3s1,0.1,2.1,0.1s1,0,2.1,0s1-0.1,2.1-0.2s1,0.1,2.1,0s1,0.1,2.1,0.1s1-0.3,2.1-0.4s1-0.2,2.1-0.2s1,0.1,2.1,0.1s1-0.2,2-0.3s1,0.2,2.1,0.2s1-0.4,2-0.4s1,0.1,2.1,0.1s1,0,2.1,0s1-0.2,2.1-0.2s1,0.1,2.1,0s1-0.2,2.1-0.2s1,0.3,2.1,0.3s1-0.5,2-0.5s1,0.2,2.1,0.1s1-0.2,2.1-0.2s1,0,2.1,0s1,0.2,2.1,0.2s1-0.1,2.1-0.1s1-0.3,2-0.4s1,0.1,2.1,0s1,0.2,2.1,0.2s1-0.1,2.1-0.1s1-0.3,2-0.4s1,0,2.1,0s1-0.2,2.1-0.2s1,0.3,2.1,0.3s1-0.3,2.1-0.3s1.4,0.7,2.1-0.1s-0.4-1-0.5-2s0.2-1.1,0-2s-0.1-1-0.3-2s-0.4-1-0.6-2s-0.1-1-0.3-2s-0.2-1-0.4-2s-0.2-1-0.3-2s-0.1-1-0.2-2s-0.4-0.9-0.6-1.9s0.1-1.1,0-2s-0.3-1-0.4-2s-0.1-1-0.3-2s-0.3-1-0.4-2s-0.1-1-0.3-2s0-1-0.2-2s-0.3-1-0.4-2s-0.2-1-0.3-2s0-1-0.2-2s-0.1-1-0.3-2s-0.2-1-0.4-2s-0.6-0.9-0.7-1.9s-0.2-1-0.3-2c-0.1-0.7-0.3-1.3-0.5-2c-0.2-0.7-0.4-1.3-0.7-1.9c-0.3-0.4-0.6-0.9-1-1.3c-0.3-0.6-0.7-1.1-1.2-1.7c-0.8-1.1-1.8-2.1-3-2.8c-0.6-0.3-1.2-0.6-1.9-0.9c-1.3-0.4-2.6-0.7-4-0.9c-0.7-0.1-1.4-0.1-2.1-0.1c-1,0-1,0.4-2,0.4s-1-0.1-2.1,0s-1-0.2-2.1-0.2s-1,0.3-2,0.3s-1,0.2-2.1,0.3s-1,0-2.1,0s-1-0.3-2.1-0.3s-1,0.4-2,0.5s-1-0.1-2.1,0s-1,0-2.1,0s-1,0.2-2.1,0.3s-1,0.1-2,0.2s-1-0.1-2.1,0s-1,0.1-2.1,0.1s-1-0.2-2.1-0.1s-1,0.2-2.1,0.2s-1,0.2-2,0.2s-1-0.1-2.1-0.1s-1,0.1-2,0.2s-1-0.2-2.1-0.2s-1,0.4-2,0.4s-1-0.3-2.1-0.3s-1,0.4-2,0.5s-1.1-0.4-2.1-0.4s-1,0.4-2,0.4s-1-0.2-2.1-0.2s-1,0.2-2.1,0.3s-1,0.2-2,0.3s-1,0-2.1,0.1s-1.1-0.4-2.1-0.3s-1,0.2-2.1,0.2s-1,0.3-2,0.4s-1-0.2-2.1-0.1s-1,0.3-2,0.4s-1-0.3-2.1-0.3s-1,0.2-2.1,0.2s-1,0.3-2.1,0.1S283.6,33.1,282.9,33.9z"/>
      <path fill="#F48953" d="M317.9,131c-0.7,0.8-1.1-0.1-2.1-0.1s-1,0.2-2,0.3s-1-0.1-2-0.1s-1,0.3-2,0.4s-1-0.2-2-0.2s-1,0.4-2,0.4s-1-0.1-2-0.1s-1-0.1-2-0.1s-1,0.1-2,0.1s-1-0.1-2,0s-1,0.3-2,0.4s-1-0.1-2,0l-2,0.1c-1,0-1,0.1-2,0.1s-1,0.3-2,0.3s-1-0.4-2-0.4s-1,0.1-2,0.1s-1,0.3-2,0.3s-1-0.2-2-0.1s-1,0.2-2,0.3s-1-0.1-2,0s-1-0.1-2,0s-1,0.2-2,0.2s-1,0-2,0.1s-1,0.1-2,0.1s-1.4,1-2.1,0.3s0.2-1.2,0.1-2.2s0-1,0-2.1s-0.3-1-0.3-2s0.2-1.1,0.2-2.1s-0.5-1-0.5-2s0-1-0.1-2.1s0.3-1,0.2-2.1s0-1,0-2.1s-0.1-1-0.2-2.1s-0.7-1.3-0.7-2.3s0-1,0-2.1s-0.1-1-0.2-2.1s0.1-1,0-2.1s-0.2-1-0.2-2.1s-0.1-1-0.2-2.1s-0.1-1-0.1-2.1s0.1-1.1,0.1-2.1s0-1,0-2.1s-1-1.4-0.3-2.1s1.1-0.1,2.1-0.1s1,0.3,2,0.2s1-0.1,2-0.1s1-0.1,2-0.2s1,0,2,0s1-0.1,2-0.1s1-0.2,2-0.2s1,0,2-0.1s1,0.1,2,0s1-0.3,2-0.4s1,0.2,2,0.2s1-0.3,2-0.3s1,0.1,2,0.1s1-0.3,2-0.3s1,0.2,2,0.1s1-0.1,2-0.2s1,0.2,2,0.1s1-0.5,2-0.6s1,0.1,2,0.1s1,0,2,0s1,0,2-0.1s1-0.3,2-0.4s1,0.4,2,0.4s1-0.1,2-0.1s1-0.2,2-0.3s1.2-0.7,1.9,0s0.1,0.9,0.2,1.9s0,1,0,2.1s0.2,1,0.2,2.1s0,1,0,2.1s0,1,0,2.1s0,1,0.1,2.1s0.1,1,0.1,2.1s0.4,1,0.4,2.1s0,1,0,2.1s0,1,0,2.1s-0.1,1,0,2.1s0.2,1,0.3,2.1s-0.2,1-0.1,2.1s0.4,1,0.4,2.1s-0.1,1-0.1,2.1s-0.1,1.1-0.1,2.1s0.1,1,0.1,2.1c0,0.7,0.1,1.4,0.3,2.1C318.1,129.9,318.6,130.2,317.9,131z"/>
      <path fill="#003C3C" d="M265.3,136c-0.7,0-1.3-0.3-1.8-0.8c-0.5-0.5-0.7-1.1-0.7-1.7c0-1-0.3-1-0.4-2s0.1-1,0-2.1s-0.2-1-0.3-2.1s0.3-1.1,0.2-2.1s-0.4-1-0.5-2.1s0.4-1.1,0.3-2.1s-0.5-1-0.5-2s0-1,0-2.1s0.3-1.1,0.3-2.1s-0.1-1-0.2-2.1s0-1,0-2.1s-0.4-1-0.5-2s0.2-1.1,0.1-2.1s0-1-0.1-2.1s0-1-0.1-2.1s-0.2-1-0.2-2.1s-0.2-1-0.3-2.1s0.1-1,0.1-2.1s-0.1-1-0.1-2.1c0-0.7,0.2-1.4,0.6-2c0.6-0.5,1.3-0.7,2-0.7c1,0,1-0.1,2-0.1s1,0.1,2,0s1,0.1,2,0s1-0.4,2-0.4s1,0.1,2,0.1s1-0.1,2-0.1s1-0.3,2-0.3s1,0.3,2,0.3s1-0.1,2-0.2s1-0.3,2-0.3s1,0,2,0s1,0.2,2,0.2s1-0.1,2-0.2s1,0,2,0s1-0.2,2-0.3s1-0.2,2-0.2s1-0.1,2-0.1s1,0.1,2,0.1s1-0.2,2-0.3s1,0,2,0s1,0,2-0.1s1,0.1,2,0.1s1-0.1,2-0.2s1,0.2,2,0.2s1-0.2,2-0.3s1,0.2,2,0.1c0.7-0.1,1.3,0.1,1.8,0.5c0.6,0.4,1,1,1.1,1.7c0,1-0.2,1.1-0.2,2.1s-0.1,1-0.1,2.1s0.1,1,0.1,2.1s0.3,1,0.4,2s0.2,1,0.3,2.1s-0.1,1-0.1,2.1s0.2,1,0.2,2.1s-0.4,1-0.3,2.1s0.5,1,0.5,2.1s0,1,0,2.1s-0.3,1.1-0.2,2.1s0,1,0.1,2.1s0.2,1,0.2,2.1s0.1,1,0.1,2.1s-0.1,1.1,0,2.1s0,1,0,2.1s0.5,1,0.5,2.1s-0.3,1.1-0.3,2.1s0.4,1,0.4,2.1c0,0.7-0.3,1.4-0.9,1.8c-0.4,0.5-1.1,0.9-1.8,1c-1,0-1-0.2-2-0.1s-1,0.2-2,0.3s-1-0.1-2-0.1s-1,0.3-2,0.4s-1-0.2-2-0.2s-1,0.4-2,0.4s-1-0.1-2-0.1s-1-0.1-2-0.1s-1,0.1-2,0.1s-1-0.1-2,0s-1,0.3-2,0.4s-1-0.1-2-0.1l-2,0.1c-1,0-1,0.1-2,0.1s-1,0.3-2,0.3s-1-0.4-2-0.4s-1,0.1-2,0.1s-1,0.3-2,0.3s-1-0.2-2-0.1s-1,0.2-2,0.3s-1,0-2,0s-1-0.1-2,0s-1,0.2-2,0.2s-1,0-2,0s-1,0.1-2,0.2s-1,0.3-2,0.3C265.4,136.1,265.4,136,265.3,136z M266.3,96.5c-0.7,0.7-0.1,1,0,2s0,1,0,2s0.3,1,0.4,2s-0.1,1,0,2s0.2,1,0.3,2s-0.3,1-0.2,2s0.4,1,0.4,2s-0.4,1-0.3,2s0.5,1,0.5,2s0,1,0,2s-0.3,1-0.3,2s0.1,1,0.2,2s0,1,0,2s0.4,1,0.5,2s-0.2,1-0.1,2s0,1,0.1,2s-0.7,1.4,0.1,2.1s1.1-0.2,2.1-0.2s1-0.2,2-0.2s1,0.1,2.1,0.1s1-0.1,2-0.1s1-0.1,2-0.2s1,0.2,2.1,0.1s1-0.1,2-0.1s1,0.1,2.1,0s1,0.1,2.1,0s1-0.4,2-0.4s1,0.1,2.1,0.1s1-0.1,2-0.1s1-0.3,2-0.3s1,0.3,2.1,0.3s1-0.1,2-0.2s1-0.3,2-0.3s1,0,2.1,0s1,0.2,2.1,0.2s1-0.1,2-0.2s1,0,2.1-0.1s1-0.2,2.1-0.3s1-0.2,2-0.2s1.2,0.7,1.9,0s0.1-0.8,0-1.8s-0.2-1-0.3-2s0-1,0-2s0-1-0.1-2s0.1-1,0.1-2s-0.1-1-0.2-2s0.2-1,0.2-2s-0.2-1-0.3-2s0.2-1,0.1-2s-0.2-1-0.2-2s-0.3-1-0.4-2s0.2-1,0.2-2s0.1-1,0.1-2s-0.1-1-0.1-2s-0.3-1-0.4-2s-0.2-1-0.3-2s0.9-1.3,0.1-2s-1,0.2-2,0.2s-1-0.4-2.1-0.3s-1,0.5-2,0.5s-1,0-2.1,0s-1-0.3-2.1-0.2s-1,0-2.1,0.1s-1,0.2-2,0.2s-1,0.1-2.1,0.1s-1-0.1-2.1,0s-1-0.1-2.1,0s-1,0.4-2,0.5s-1-0.3-2.1-0.3s-1,0.4-2,0.4s-1-0.2-2.1-0.1s-1,0.2-2,0.3s-1-0.2-2.1-0.1s-1,0.2-2,0.3s-1-0.1-2.1-0.1s-1,0.3-2,0.4s-1-0.2-2.1-0.2s-1,0.4-2,0.5c-0.7,0.1-1.4,0-2.1-0.1C267.2,96.2,267,95.7,266.3,96.5L266.3,96.5z"/>
      <path fill="#00AD73" d="M316.1,91.6c-0.6,0.8-1,0.1-2.1,0.2s-1,0.2-2,0.2s-1-0.3-2-0.3s-1,0-2,0.1s-1,0.2-2,0.2l-2,0.1c-1,0-1-0.2-2-0.1s-1,0.1-2,0.2s-1,0.2-2,0.2s-1-0.1-2,0s-1,0-2,0s-1,0.3-2,0.4s-1-0.1-2,0s-1,0.2-2,0.3s-1-0.3-2-0.2s-1,0.4-2,0.4s-1-0.4-2-0.3s-1,0.5-2,0.5s-1,0-2,0s-1-0.3-2-0.3s-1,0.1-2,0.2s-1,0-2,0s-1,0.4-2,0.5s-1-0.2-2-0.1s-1,0-2,0.1s-1.2,0.8-2,0.1s-0.1-1-0.2-2s-0.2-1-0.2-2.1s0.1-1,0.1-2.1s-0.1-1-0.1-2.1s-0.1-1-0.2-2s0.2-1,0.1-2.1s-0.1-1-0.1-2.1s0.1-1,0-2.1s0.1-1,0-2.1s-0.4-1-0.4-2s0.1-1,0.1-2.1s-0.1-1-0.1-2.1s-0.3-1-0.3-2s0.3-1,0.3-2.1s-0.1-1-0.2-2.1s-0.3-1-0.3-2s0-1,0-2.1s0.2-1,0.2-2.1s-0.1-1-0.2-2.1s0-1-0.1-2.1s-0.2-1-0.3-2s-0.2-1-0.2-2.1s-0.1-1-0.1-2s0.2-1,0.1-2.1s-0.2-1-0.3-2.1s0-1,0-2.1s0-1-0.1-2.1s0.1-1,0.1-2.1s-0.1-1-0.2-2.1s-0.6-1.2,0.1-2s0.9-0.2,1.9-0.2s1,0.2,2,0.1s1-0.2,2-0.2s1-0.3,2-0.4s1,0.2,2,0.2s1,0.1,2,0.1s1-0.1,2-0.1s1-0.3,2-0.4s1-0.2,2-0.3s1,0.2,2,0.1s1-0.2,2-0.2s1,0.3,2,0.3s1-0.5,2-0.5s1,0,2,0s1,0.3,2,0.2c0.7,0,1.3,0,2,0.1c0.7,0,1.3,0.1,2,0.2c0.7,0.1,1.3,0.3,2,0.5c0.6,0.2,1.2,0.5,1.8,0.8c0.6,0.3,1.2,0.6,1.7,1c0.6,0.4,1.4,0.4,1.9,0.8s0.8,1.2,1.2,1.7s1.2,0.8,1.6,1.3c0.4,0.6,0.7,1.2,1,1.8c0.4,0.6,0.7,1.1,1.1,1.7c0.2,0.7,0.4,1.3,0.5,2c0.2,0.6,0.5,1.3,0.6,1.9c0.2,1,0,1.1,0.2,2.1s0.4,1,0.6,2s-0.1,1.1,0.1,2.1s0.5,1,0.7,2s0,1,0.2,2.1s0,1,0.2,2.1s0.2,1,0.4,2s0.1,1,0.2,2.1s0.4,1,0.6,2s0,1,0.2,2.1l0.3,2c0.2,1,0.2,1,0.4,2s0.4,1,0.6,2s-0.3,1.1-0.1,2.1s0.2,1,0.4,2s0.4,1,0.6,2s0,1.1,0.1,2.1s0.4,1,0.5,2s0.1,1,0.2,2s0,1,0.2,2.1s0.3,1,0.5,2s-0.1,1.1,0.3,2.1S316.7,90.8,316.1,91.6z"/>
      <path fill="#003C3C" d="M263.5,96.4c-0.7,0.1-1.4,0-1.9-0.4c-0.4-0.5-0.6-1.2-0.5-1.9c0-1,0-1-0.1-2.1s-0.3-1-0.3-2s-0.1-1-0.1-2.1s0.1-1,0-2.1s-0.1-1-0.1-2.1s-0.1-1-0.2-2s-0.1-1-0.1-2.1s0.1-1,0-2.1s0.1-1,0-2.1s-0.1-1-0.1-2s0-1,0-2.1s-0.1-1-0.1-2.1s0-1,0-2.1s0-1,0-2.1s0-1-0.1-2s-0.1-1-0.2-2.1s-0.1-1-0.1-2.1s0-1-0.1-2.1s-0.3-1-0.3-2s0.1-1,0.1-2.1l-0.1-2.1c0-1,0.1-1,0-2.1s-0.1-1-0.2-2.1s0-1,0-2.1s-0.5-1-0.5-2s0.2-1,0.2-2.1s0-1-0.1-2.1s0-1,0-2.1s-0.3-1-0.3-2s-0.2-1-0.2-2.1c0.1-0.7,0.4-1.3,1-1.8c0.4-0.5,1-0.9,1.7-1c1,0,1-0.2,2-0.2s1,0.3,2,0.2s1-0.1,2-0.1s1-0.4,2-0.4s1,0.3,2,0.2s1-0.2,2-0.3s1,0.2,2,0.1s1,0,2,0s1-0.2,2-0.3s1,0.1,2,0s1,0,2-0.1s1-0.3,2-0.4s1,0.1,2,0.1s1-0.3,2-0.3s1,0.3,2,0.2c0.7,0,1.4-0.3,2-0.3c0.7,0.1,1.3,0.1,2,0.3c0.7,0.1,1.3,0.3,2,0.5s1.2,0.6,1.9,0.8s1.3,0.3,1.9,0.6s1.2,0.6,1.8,0.9s0.9,1.1,1.4,1.5c1.1,0.8,2.1,1.7,3,2.7c0.8,1.1,1.5,2.2,2,3.4c0.3,0.6,0.9,1.1,1.1,1.7s0.5,1.2,0.7,1.9c0.1,0.7,0.2,1.3,0.3,2c0.2,1-0.1,1.1,0.1,2.1s0.1,1,0.3,2s0.5,1,0.7,2s0.2,1,0.3,2s0,1,0.2,2.1s0.5,1,0.6,2s0.1,1,0.3,2s-0.1,1.1,0,2.1s0.4,1,0.6,2s-0.1,1.1,0.1,2.1s0.2,1,0.3,2s0.1,1,0.3,2s0.3,1,0.5,2s0,1,0.2,2.1s0.3,1,0.5,2s0.3,1,0.5,2s0.1,1,0.3,2s0.1,1,0.3,2s0.2,1,0.4,2s0.3,1,0.5,2s-0.2,1.1,0,2.1s0.1,1,0.3,2s0.3,1,0.5,2c0.1,0.7-0.1,1.5-0.6,2.1c-0.5,0.5-1.2,0.8-1.9,0.8c-1,0-1,0.2-2,0.2s-1,0.2-2,0.3s-1-0.1-2,0s-1,0-2,0s-1,0.3-2,0.3s-1-0.1-2,0s-1,0.2-2,0.3s-1-0.3-2-0.2s-1,0.4-2,0.4s-1-0.4-2-0.3s-1,0.5-2,0.5s-1,0-2,0s-1-0.3-2-0.3s-1,0.1-2,0.2s-1,0-2,0s-1,0.4-2,0.5s-1-0.2-2-0.1s-1,0-2,0.1s-1,0-2,0.1s-1,0.2-2,0.2s-1,0.2-2,0.2s-1-0.1-2-0.1s-1,0.1-2,0.1s-1,0.1-2,0.2s-1-0.2-2-0.1s-1,0.1-2,0.1C263.6,96.6,263.6,96.4,263.5,96.4z M263.3,34.6c-0.7,0.8,0.4,1.2,0.4,2.2s-0.3,1.1-0.2,2.1s0.1,1,0.1,2.1s0.3,1,0.3,2.1c0,1.1,0.1,1,0.1,2.1s-0.1,1,0,2.1s0.1,1,0.1,2.1s0.1,1,0.2,2.1s0.1,1.1,0.1,2.1s-0.1,1.1,0,2.1s-0.1,1.1,0,2.1s0.1,1,0.1,2.1s0,1.1,0,2.1s0.1,1,0.2,2.1s0,1,0,2.1s0,1.1,0,2.1s0,1,0.1,2.1s0.1,1,0.2,2.1s0.1,1,0.1,2.1s0,1,0.1,2.1s0.3,1,0.3,2.1s-0.1,1.1-0.1,2.1l0.1,2.1c0,1-0.1,1,0,2.1s0.1,1,0.2,2.1s0,1.1,0,2.1s-0.3,1.2,0.4,1.9s0.9,0.2,1.9,0.1l2-0.1c1,0,1,0,2,0s1-0.3,2-0.3s1-0.2,2-0.2s1,0.3,2.1,0.2s1-0.3,2-0.4s1-0.2,2-0.2s1,0.3,2.1,0.2s1-0.1,2-0.1s1-0.4,2-0.4s1,0.3,2.1,0.2s1-0.2,2-0.3s1,0.2,2.1,0.1s1,0,2,0s1-0.2,2-0.3s1,0.1,2,0s1,0,2-0.1s1-0.3,2-0.4s1,0.1,2,0.1s1-0.3,2-0.3s1,0.3,2.1,0.2s1.3,0.5,1.9-0.3s-0.1-0.9-0.3-1.9s-0.1-1-0.3-2s0-1-0.1-2s-0.4-1-0.6-1.9s-0.3-1-0.4-2s0.2-1.1,0.1-2s-0.3-1-0.5-2s-0.2-1-0.4-2s-0.1-1-0.2-2s0-1-0.2-2s-0.5-0.9-0.7-1.9s-0.2-1-0.4-2s0-1-0.2-2s0.1-1-0.1-2s-0.1-1-0.3-2s-0.5-0.9-0.7-1.9l-0.3-2c-0.2-1,0-1-0.2-2s-0.5-0.9-0.6-1.9s-0.1-1-0.3-2s0.1-1,0-2s-0.4-1-0.6-2c0-0.7-0.1-1.3-0.2-2c-0.2-0.6-0.4-1.3-0.7-1.9c-0.3-0.6-0.6-1.2-0.9-1.8c-0.4-0.5-0.9-1-1.3-1.5c-0.4-0.5-0.9-1-1.3-1.5c-0.5-0.4-1.1-0.8-1.7-1.1c-0.6-0.3-1.2-0.6-1.8-0.8c-0.6-0.3-1.2-0.5-1.8-0.7c-0.6-0.2-1.3-0.3-1.9-0.4c-0.7-0.1-1.3-0.1-2-0.1c-0.2,0-0.4,0.1-0.6,0.1c-1.1,0-1.1-0.3-2.1-0.3s-1.1,0-2.1,0.1s-1,0.2-2.1,0.3s-1.1,0-2.1,0.1s-1.1-0.2-2.1-0.1s-1,0.2-2.1,0.2s-1,0.2-2.1,0.3s-1.1-0.1-2.1,0s-1.1,0-2.1,0s-1,0.3-2.1,0.3s-1.1-0.1-2.1,0s-1.1,0.5-2.2,0.3C264.4,34.6,264,33.8,263.3,34.6L263.3,34.6z"/>
      <path fill="#FFFFFF" d="M265.4,133.4c-0.7,0.8-1.2-0.2-2.2-0.2s-1,0.4-2,0.4s-1,0-2,0.1s-1-0.3-2.1-0.2s-1,0.3-2,0.3c-1,0.1-1-0.2-2.1-0.1s-1,0.4-2,0.5s-1,0-2.1,0.1s-1-0.4-2.1-0.3s-1,0.4-2,0.4s-1,0.1-2,0.2s-1-0.4-2.1-0.3s-1,0-2,0s-1,0.1-2,0.1s-1,0.4-2,0.5s-1-0.3-2.1-0.2s-1,0.3-2,0.3s-1,0.1-2,0.1s-1,0-2.1,0s-1,0.1-2,0.2s-1-0.2-2.1-0.2s-1,0.2-2,0.2s-1,0.2-2,0.3s-1-0.1-2.1-0.1s-1-0.1-2.1-0.1s-1,0.1-2,0.1s-1,0.4-2,0.5s-1-0.1-2.1,0s-1-0.2-2.1-0.2s-1,0.4-2,0.4l-2,0.1c-1,0.1-1-0.1-2.1,0s-1,0.1-2.1,0.2s-1,0.1-2,0.1s-1-0.3-2.1-0.3s-1,0.4-2,0.4s-1-0.1-2.1-0.1s-1,0.1-2,0.2s-1,0.3-2,0.3s-1,0-2.1,0s-1,0-2,0s-1,0.1-2.1,0.2s-1-0.2-2.1-0.2s-1,0-2.1,0s-1,0.2-2,0.3s-1-0.2-2.1-0.2s-1,0.4-2,0.4s-1-0.2-2.1-0.1s-1-0.1-2.1,0s-1,0.2-2,0.2s-1,0.1-2,0.2s-1,0.2-2,0.2s-1,0.1-2,0.2s-1-0.4-2.1-0.3s-1,0.1-2.1,0.2s-1,0.3-2,0.3s-1,0.1-2,0.2s-1,0-2.1,0.1s-1,0-2.1,0s-1,0-2.1,0s-1,0.1-2,0.2s-1-0.3-2.1-0.3s-1,0.2-2,0.3s-1,0.1-2.1,0.2s-1,0.1-2,0.1s-1-0.1-2.1,0s-1,0.1-2,0.2s-1,0.1-2,0.1c-1.1,0-1,0.1-2,0.1s-1,0.1-2.1,0.1s-1-0.1-2.1-0.1s-1,0.3-2,0.3s-1,0-2,0s-1,0-2,0.1s-1,0-2.1,0s-1,0.2-2,0.2s-1-0.2-2.1-0.1s-1,0.3-2,0.3s-1-0.3-2.1-0.2s-1,0.1-2,0.2s-1-0.1-2.1-0.1s-1,0.2-2,0.3s-1,0-2.1,0s-1,0-2,0.1s-1,0.2-2.1,0.2s-1-0.2-2.1-0.1s-1,0.4-2,0.4s-1,0-2.1,0s-1.5,0.8-2.2,0.1s0-1.2,0-2.2s0.2-1,0.2-2.1s-0.2-1-0.2-2s-0.2-1-0.2-2.1s0.3-1,0.2-2.1s-0.2-1-0.2-2.1s-0.1-1-0.1-2s-0.1-1-0.2-2.1s-0.2-1-0.3-2s0-1,0-2.1s0.3-1,0.2-2.1s-0.3-1-0.3-2s-0.2-1-0.3-2s0.3-1.1,0.3-2.1s-0.1-1-0.2-2.1s0-1,0-2.1s-0.3-1-0.3-2s-0.1-1-0.1-2.1s0.2-1,0.2-2.1s-0.2-1-0.2-2s-0.3-1-0.4-2.1s0.2-1,0.1-2.1s0-1-0.1-2.1s-0.1-1-0.2-2.1s0.2-1,0.1-2.1s-0.4-1-0.4-2s0.1-1,0-2.1s0.1-1,0.1-2.1l-0.1-2c0-1-0.4-1-0.5-2s0.2-1,0.2-2.1s-0.2-1-0.3-2s-0.2-1-0.2-2.1s0-1-0.1-2.1s-0.1-1-0.1-2.1s0.2-1,0.2-2.1s0.1-1,0-2.1s-0.1-1-0.1-2s0-1-0.1-2.1s-0.2-1-0.3-2.1s0.2-1,0.2-2.1s0-1,0-2.1s-0.1-1-0.1-2s-0.1-1-0.2-2.1s-0.1-1-0.1-2.1s-0.4-1-0.4-2s0.3-1,0.2-2.1s-0.2-1-0.3-2.1s0-1,0-2.1s0-1-0.1-2.1s0.2-1,0.1-2.1s-0.3-1-0.4-2s0-1,0-2.1s-0.3-1-0.3-2s0.4-1,0.4-2.1s-0.3-1-0.4-2s0-1,0-2.1l-0.1-2.1c-0.1-1-0.1-1-0.2-2.1s0.1-1,0.1-2.1s0-1-0.1-2.1s-0.9-1.3-0.2-2.1s1-0.2,2.1-0.3s1,0.1,2.1,0s1-0.1,2.1-0.2s1,0,2,0s1-0.2,2-0.2s1,0.2,2.1,0.1l2-0.1c1,0,1,0,2.1,0s1-0.1,2-0.2s1-0.3,2-0.4s1,0.3,2.1,0.2s1-0.2,2-0.3s1,0.2,2.1,0.2s1-0.3,2-0.4l2.1-0.1c1,0,1,0.1,2.1,0s1-0.2,2.1-0.2s1,0.1,2.1,0s1-0.2,2.1-0.3s1,0,2,0s1-0.3,2-0.3s1,0.3,2.1,0.3s1-0.3,2-0.3s1,0,2.1,0c1.1,0,1,0,2,0s1,0,2.1-0.1s1,0,2.1,0s1-0.3,2.1-0.3s1,0.2,2.1,0.2s1-0.1,2-0.2s1-0.4,2-0.4s1,0,2.1-0.1s1,0,2.1,0s1,0.1,2.1,0s1,0,2.1-0.1s1-0.1,2.1-0.2s1,0.2,2.1,0.2s1-0.1,2.1-0.2s1-0.4,2-0.4s1,0.1,2.1,0s1,0.1,2.1,0s1,0.2,2.1,0.1s1-0.2,2.1-0.2s1-0.3,2-0.3l2.1-0.1c1,0,1,0.2,2.1,0.2l2.1-0.1c1,0,1-0.3,2-0.4s1,0.3,2.1,0.3s1-0.3,2.1-0.3s1,0,2.1,0s1-0.2,2.1-0.3s1,0,2.1,0s1.1,0.3,2.1,0.3s1-0.2,2-0.3s1,0.2,2.1,0.1s1-0.2,2-0.3s1-0.2,2.1-0.2s1,0.2,2.1,0.2s1,0,2-0.1l2.1-0.1l2.1-0.1c1,0,1-0.2,2.1-0.3s1-0.2,2-0.3s1-0.1,2.1-0.2s1.1,0.4,2.1,0.4s1-0.1,2.1-0.1s1-0.2,2-0.2s1-0.4,2-0.4s1,0.2,2.1,0.2s1-0.2,2.1-0.2s1,0.1,2.1,0.1s1,0,2.1-0.1s1,0,2.1,0s1-0.2,2.1-0.3s1-0.1,2.1-0.1s1,0.1,2.1,0s1-0.2,2.1-0.3s1,0.1,2.1,0.1s1,0.1,2.1,0s1-0.1,2.1-0.1s1-0.4,2.1-0.4s1.1,0.3,2.1,0.3c1,0,1-0.4,2-0.5c0.7,0.1,1.4,0.2,2.1,0.5c0.7,0.1,1.4,0.3,2,0.6c0.7,0.2,1.4,0.5,2,0.9c0.6,0.4,1.1,0.9,1.6,1.4c0.4,0.6,0.8,1.2,1.1,1.8c0.3,0.6,0.6,1.3,0.8,2c0.2,0.7,0.4,1.4,0.4,2.1c0,1,0.1,1,0.1,2.1s-0.1,1,0,2.1s-0.1,1,0,2.1s0.1,1,0.1,2.1s0,1,0,2.1s0.1,1,0.1,2.1s0,1,0,2.1s0,1,0,2.1s0,1,0.1,2.1s0.1,1,0.2,2.1s0.1,1,0.1,2.1s0,1,0.1,2.1s0.3,1,0.3,2.1s-0.2,1-0.1,2.1s0,1,0.1,2.1s-0.1,1,0,2.1s0.1,1,0.2,2.1s0,1,0,2.1s0.5,1,0.5,2.1s-0.2,1-0.2,2.1s0,1,0.1,2.1s0,1,0,2.1s0.3,1,0.3,2.1s0.2,1,0.2,2.1s-0.3,1-0.2,2.1s0.3,1,0.4,2.1s0.2,1,0.2,2.1s-0.3,1.1-0.2,2.1s0.1,1,0.1,2.1s0.4,1,0.4,2.1s-0.3,1-0.2,2.1s0.2,1,0.3,2.1s-0.2,1.1-0.1,2.1s0,1,0,2.1s0.2,1,0.3,2.1s-0.1,1,0,2.1s0,1,0.1,2.1s0.3,1,0.4,2.1s-0.1,1.1-0.1,2.1s0.3,1,0.3,2.1s-0.3,1.1-0.2,2.1s0.3,1,0.4,2.1s0,1,0,2.1s0,1,0.1,2.1s-0.1,1.1-0.1,2.1s0.3,1,0.3,2.1s0.2,1,0.2,2.1s-0.4,1.1-0.3,2.1s0.2,1,0.2,2.1s0.1,1,0.1,2.1s0,1,0,2.1s-0.1,1,0,2.1s0.4,1,0.4,2.1s0.1,1,0.2,2.1s-0.1,1.1-0.1,2.1s-0.5,1.1-0.2,2.1S266.1,132.6,265.4,133.4z"/>
      <path fill="#003C3C" d="M83,144.3c-1.3-0.4-2.3-1.4-2.8-2.7c0-1,0-1-0.1-2.1s0.3-1,0.2-2.1s-0.3-1-0.3-2s0.2-1,0.1-2.1s-0.4-1-0.5-2s0-1-0.1-2.1s0.4-1,0.3-2.1s-0.4-1-0.4-2s-0.1-1-0.2-2s0.4-1.1,0.3-2.1s0-1,0-2.1s-0.1-1-0.1-2s-0.4-1-0.5-2s0.3-1,0.2-2.1s-0.3-1-0.3-2.1s-0.1-1-0.1-2.1s0-1,0-2.1s-0.1-1-0.2-2s0.2-1,0.2-2.1s-0.2-1-0.2-2s-0.2-1-0.3-2s0.1-1,0.1-2.1s0.1-1,0.1-2.1s-0.1-1-0.1-2.1s-0.4-1-0.4-2s0.1-1,0.1-2.1s0.2-1,0.2-2.1s-0.4-1-0.4-2l-0.1-2.1c0-1,0.1-1,0-2.1s-0.1-1-0.2-2.1s-0.1-1-0.1-2s0.3-1.1,0.3-2.1s-0.3-1-0.4-2s0.1-1,0.1-2.1s-0.1-1-0.2-2.1s-0.3-1-0.3-2s0-1,0-2.1s0-1,0-2.1s-0.1-1-0.2-2.1s0.2-1,0.2-2.1s0-1,0-2.1s-0.2-1-0.3-2s0.2-1,0.2-2.1s-0.4-1-0.5-2s0.2-1,0.2-2.1s0.1-1,0-2.1s-0.2-1-0.2-2.1s-0.2-1-0.2-2.1s-0.2-1-0.2-2s-0.1-1-0.2-2s0.4-1,0.3-2.1s-0.1-1-0.2-2s-0.3-1-0.3-2.1s-0.1-1-0.2-2.1s0-1-0.1-2.1s0-1,0-2.1s0-1,0-2.1s-0.1-1-0.2-2.1s0.3-1,0.3-2.1s-0.2-1-0.3-2.1s-0.1-1-0.2-2.1c-0.1-1.4,0.8-2.6,2.2-2.7c0.1,0,0.2,0,0.3,0c1,0,1-0.1,2.1-0.2s1-0.1,2-0.1s1-0.1,2-0.1s1-0.1,2-0.1s1,0.1,2.1,0.1s1-0.3,2-0.3s1,0,2-0.1s1,0,2-0.1s1,0,2.1,0s1-0.2,2-0.2s1,0.2,2.1,0.1s1-0.3,2-0.3s1.1,0.3,2.1,0.2s1-0.2,2.1-0.2s1,0.1,2.1,0.1s1-0.2,2-0.3s1,0,2.1,0s1,0,2-0.1s1-0.2,2-0.2s1,0.2,2.1,0.1s1-0.4,2-0.4s1,0,2.1,0s1-0.1,2-0.2s1,0.1,2.1,0s1,0.2,2.1,0.2c1.1,0,1-0.2,2-0.2s1-0.2,2.1-0.2s1,0.3,2.1,0.2s1-0.2,2.1-0.2s1-0.1,2.1-0.1s1-0.1,2.1-0.2s1-0.3,2-0.3s1,0,2.1,0s1,0.3,2.1,0.2s1-0.3,2-0.3s1-0.2,2.1-0.3s1,0.3,2.1,0.3s1-0.1,2.1-0.2s1,0,2.1,0s1-0.3,2-0.3s1-0.1,2.1-0.1s1,0.2,2.1,0.2s1-0.2,2.1-0.2s1-0.3,2-0.4s1,0.2,2.1,0.1s1,0,2.1-0.1s1-0.1,2-0.2s1,0.2,2.1,0.1s1-0.4,2-0.4s1,0.1,2.1,0s1,0.1,2.1,0.1l2.1-0.1c1,0,1-0.4,2-0.5s1,0.2,2.1,0.2s1-0.2,2.1-0.3s1-0.2,2.1-0.2s1,0,2.1-0.1s1-0.1,2-0.1s1,0.2,2.1,0.1s1,0.1,2.1,0.1s1-0.1,2.1-0.1s1,0,2.1,0s1-0.2,2.1-0.3s1,0.2,2.1,0.2s1,0,2.1,0s1,0,2.1-0.1s1-0.1,2.1-0.2s1,0,2-0.1s1-0.4,2.1-0.4s1,0.3,2.1,0.2s1-0.2,2.1-0.3s1,0,2.1,0s1,0,2.1-0.1s1,0.2,2.1,0.1s1-0.3,2.1-0.4s1,0,2.1,0s1-0.3,2-0.3s1.1,0.4,2.1,0.4s1-0.3,2-0.4s1,0,2.1,0l2.1-0.1c1,0,1-0.1,2.1-0.2s1,0.1,2.1,0s1,0,2.1,0c1.3-0.2,2.6-0.1,3.8,0.1c0.6,0.2,1.2,0.5,1.8,0.8c0.6,0.2,1.2,0.5,1.7,0.9c0.5,0.4,1,0.8,1.5,1.2c0.5,0.4,1,0.8,1.4,1.3c0.3,0.5,0.6,1.1,0.9,1.7c0.3,0.6,0.6,1.1,0.8,1.7c0.2,0.6,0.3,1.2,0.4,1.8c0.1,0.6,0.2,1.2,0.3,1.9c0,1,0.3,1,0.4,2.1s-0.3,1-0.2,2.1s0.2,1,0.3,2.1s-0.2,1-0.2,2.1s0.3,1,0.4,2.1s0,1,0.1,2.1s-0.1,1,0,2.1s0.2,1,0.2,2.1s-0.1,1,0,2.1s0.2,1,0.3,2.1s0,1,0,2.1s0.3,1,0.3,2.1s-0.3,1-0.3,2.1s0.3,1,0.3,2s0,1,0,2.1s0,1,0,2.1s0,1,0.1,2.1s0,1,0,2.1s0.3,1,0.3,2.1s-0.2,1-0.2,2.1s0.1,1,0.1,2.1s0.4,1,0.4,2s0,1,0,2.1s0,1,0,2.1s-0.1,1,0,2.1s0,1,0.1,2.1s0.1,1,0.2,2.1s-0.2,1.1-0.1,2.1s0.1,1,0.2,2.1s0.4,1,0.4,2.1s-0.1,1,0,2.1s-0.1,1,0,2.1s-0.2,1-0.1,2.1s0.2,1,0.2,2.1s0.3,1,0.3,2.1s0,1,0.1,2.1s-0.2,1.1-0.1,2.1s0,1,0.1,2.1s0.4,1,0.4,2s-0.4,1.1-0.3,2.1s0.3,1,0.4,2.1s0,1,0,2.1s0.2,1,0.3,2.1s0,1,0,2.1s-0.3,1-0.3,2.1s0.2,1,0.3,2.1s-0.2,1.1-0.1,2.1s0.2,1,0.3,2.1s0.2,1,0.2,2.1s-0.2,1.1-0.2,2.1s0,1,0.1,2.1l0.1,2.1c0,1,0,1,0.1,2.1s0.2,1,0.3,2.1s0.2,1,0.3,2.1s0.1,1,0.2,2.1s-0.4,1.1-0.4,2.1c0.1,0.6-0.2,1.3-0.6,1.7c-0.4,0.5-1,0.9-1.7,0.9c-1,0.1-1,0.4-2,0.4s-1-0.2-2.1-0.2s-1,0.2-2,0.2s-1-0.1-2-0.1c-1.1,0.1-1,0-2,0.1s-1-0.1-2,0s-1,0.2-2,0.3s-1,0.1-2,0.1s-1-0.1-2,0s-1,0.2-2,0.3s-1-0.1-2.1-0.1s-1-0.1-2,0s-1,0.1-2,0.1s-1,0.4-2,0.4s-1-0.3-2.1-0.3s-1,0.4-2,0.5s-1-0.3-2.1-0.2l-2,0.1c-1,0-1,0.3-2,0.3s-1,0.1-2.1,0.1s-1-0.1-2-0.1s-1,0.1-2.1,0.1s-1,0.1-2,0.2s-1,0.1-2,0.1s-1-0.1-2.1,0s-1-0.1-2,0s-1,0.1-2,0.1s-1,0-2,0s-1,0.1-2.1,0.1s-1,0-2,0s-1,0-2.1,0s-1,0-2.1,0.1s-1,0.1-2,0.2s-1,0.1-2.1,0.1s-1,0-2,0.1s-1,0.3-2,0.3s-1-0.1-2.1-0.1l-2,0.1c-1,0-1-0.1-2.1-0.1s-1,0.1-2.1,0.2s-1,0-2,0s-1,0.4-2,0.5s-1-0.2-2.1-0.2l-2.1,0.1c-1,0.1-1-0.1-2,0s-1,0.3-2,0.3s-1,0.1-2,0.2s-1-0.3-2.1-0.2s-1,0.3-2,0.4s-1,0.2-2.1,0.2s-1-0.3-2.1-0.2s-1,0.1-2,0.1s-1,0.4-2,0.4s-1-0.3-2.1-0.2s-1,0.2-2,0.3s-1-0.2-2.1-0.1s-1,0-2,0s-1,0.2-2,0.3s-1-0.1-2.1,0s-1,0-2.1,0.1s-1,0.3-2,0.4s-1-0.1-2.1-0.1s-1,0.3-2,0.3s-1-0.3-2.1-0.2s-1,0.3-2,0.4s-1,0-2.1,0s-1,0-2.1,0.1c-1.1,0.1-1-0.1-2-0.1s-1,0.3-2,0.3s-1,0.2-2,0.2s-1-0.4-2.1-0.3s-1,0.2-2,0.2s-1,0.1-2,0.1s-1,0-2,0s-1-0.1-2.1,0s-1,0.4-2,0.4s-1,0.1-2,0.2s-1-0.1-2.1-0.1s-1-0.2-2.1-0.2s-1,0-2,0.1s-1,0.4-2,0.4l-2.1,0.1c-1,0-1-0.1-2.1-0.1s-1,0.4-2,0.4s-1,0-2,0.1s-1-0.3-2.1-0.2s-1,0.3-2,0.4s-1-0.2-2.1-0.1l-2.1,0.1C84.1,145,83.1,144.3,83,144.3z M80.1,16.7c-0.7,0.8-0.2,0.9-0.2,2s0.4,1,0.4,2s0,1,0.1,2.1s-0.3,1-0.2,2.1s0.3,1,0.3,2.1s-0.2,1-0.1,2.1s0.4,1,0.5,2.1s0,1,0.1,2.1s-0.4,1.1-0.3,2.1s0.4,1,0.4,2s0.2,1,0.2,2.1s-0.4,1-0.3,2.1s0,1,0,2.1c0,1.1,0.1,1,0.1,2.1s0.4,1,0.5,2s-0.3,1.1-0.2,2.1s0.3,1,0.3,2.1s0.1,1,0.1,2.1s0,1,0,2.1s0.1,1,0.2,2.1s-0.2,1-0.2,2.1S82,61,82,62s0.2,1,0.3,2.1s-0.1,1.1-0.1,2.1s-0.1,1-0.1,2.1s0.1,1,0.1,2.1s0.4,1,0.4,2s-0.1,1.1,0,2.1s-0.2,1-0.2,2.1s0.4,1,0.4,2l0.1,2.1c0,1-0.1,1,0,2.1s0.1,1,0.2,2.1s0.1,1,0.1,2.1s-0.3,1-0.3,2.1s0.3,1,0.4,2.1s-0.1,1-0.1,2.1s0.1,1,0.2,2.1s0.3,1,0.3,2.1s0,1,0,2.1s0,1,0,2.1s0.1,1,0.2,2.1s-0.2,1-0.2,2.1s0,1,0,2.1s0.3,1,0.3,2.1s-0.2,1.1-0.2,2.1s0.4,1,0.4,2.1s-0.2,1.1-0.2,2.1s-0.1,1,0,2.1s0.2,1,0.2,2.1s0.2,1,0.2,2.1s0.2,1,0.2,2.1s0.1,1,0.2,2.1s-0.4,1.1-0.3,2.1s0.1,1,0.2,2.1s0.3,1,0.3,2.1s0.1,1,0.2,2.1s0,1,0.1,2.1s-0.8,1.3,0,2s1,0,2,0s1-0.1,2-0.2s1,0.3,2.1,0.3s1-0.2,2-0.3s1-0.1,2-0.1s1-0.1,2.1-0.1s1,0,2.1,0s1-0.1,2.1-0.2s1-0.1,2-0.1s1-0.1,2-0.1s1-0.1,2.1-0.1s1,0.1,2.1,0.1s1-0.3,2-0.3s1,0,2-0.1s1,0,2.1-0.1s1,0,2.1,0s1-0.2,2.1-0.2s1,0.2,2.1,0.1c1.1-0.1,1-0.3,2-0.4s1,0.3,2.1,0.2s1-0.1,2-0.2c1.1,0,1,0.1,2.1,0.1s1-0.2,2-0.3s1,0,2.1,0s1,0,2.1-0.1s1-0.2,2.1-0.2s1,0.2,2.1,0.1s1-0.4,2-0.4s1,0,2.1,0s1-0.1,2.1-0.2s1,0.1,2.1,0s1,0.2,2.1,0.2s1-0.2,2.1-0.2s1-0.1,2-0.2s1,0.3,2.1,0.2s1-0.2,2-0.2l2.1-0.1c1-0.1,1-0.1,2.1-0.1s1-0.3,2.1-0.3s1,0,2.1,0s1,0.3,2.1,0.2s1-0.3,2-0.4s1-0.2,2.1-0.3s1.1,0.3,2.1,0.3s1-0.1,2-0.2s1,0,2.1,0s1-0.3,2.1-0.3l2.1-0.1c1,0,1,0.2,2.1,0.2s1-0.1,2.1-0.2s1-0.3,2-0.4s1,0.2,2.1,0.1s1,0,2.1-0.1s1-0.1,2.1-0.1s1,0.1,2.1,0.1s1-0.4,2-0.4s1,0.1,2.1,0s1,0.1,2.1,0.1l2.1-0.1c1-0.1,1-0.4,2-0.5s1,0.2,2.1,0.2s1-0.2,2.1-0.3s1-0.2,2-0.2s1,0,2.1-0.1s1-0.1,2.1-0.1s1,0.2,2.1,0.1s1,0.1,2.1,0.1s1-0.1,2.1-0.1s1,0,2.1-0.1s1-0.2,2.1-0.3s1,0.2,2.1,0.2s1,0,2.1,0l2.1-0.1c1,0,1-0.1,2.1-0.2l2.1-0.1c1-0.1,1-0.4,2.1-0.4s1,0.3,2.1,0.2s1-0.2,2.1-0.3s1,0,2.1,0s1,0,2.1-0.1s1,0.1,2.1,0.1s1-0.3,2-0.4s1,0,2.1,0c1.1,0,1-0.3,2-0.3s1.1,0.4,2.1,0.4s1.3,0.4,2-0.4s0-1,0-2l-0.1-2c0-1-0.1-1-0.1-2.1s0.1-1,0-2.1s0-1,0-2.1s-0.2-1-0.2-2.1s-0.2-1-0.3-2s0.1-1,0-2.1s-0.1-1-0.1-2.1s0-1,0-2.1s-0.2-1-0.2-2.1s0.2-1,0.1-2.1l-0.1-2.1c0-1,0-1,0-2.1s-0.1-1-0.1-2.1s-0.3-1-0.4-2s0.3-1,0.2-2.1s-0.2-1-0.3-2.1s0.2-1,0.2-2.1s-0.3-1-0.4-2s0-1-0.1-2.1s0.1-1,0-2.1s-0.2-1-0.2-2s0.1-1,0-2.1s-0.2-1-0.3-2.1s0-1,0-2.1s-0.3-1-0.3-2.1s0.3-1,0.3-2.1s-0.3-1-0.3-2s0-1,0-2.1s0-1,0-2.1s0-1-0.1-2s0-1,0-2.1s-0.3-1-0.3-2.1s0.2-1,0.2-2.1s-0.1-1-0.1-2.1s-0.4-1-0.4-2s0-1,0-2.1s0-1,0-2.1s0.1-1,0-2.1s0-1-0.1-2.1s-0.1-1-0.2-2.1s0.2-1,0.1-2.1s-0.1-1-0.2-2.1s-0.4-1-0.4-2s0.1-1,0-2.1s0.1-1,0-2.1s0.2-1,0.1-2.1s-0.2-1-0.2-2.1s-0.3-1-0.3-2l-0.1-2.1c0-1,0.2-1,0.1-2.1s0-1-0.1-2.1s-0.4-1-0.4-2s0.3-1,0.3-2.1s-0.3-1-0.4-2.1c0.1-1.2-0.3-2.4-1.2-3.3c-0.3-0.5-0.7-1-1.1-1.4c-0.5-0.4-0.8-1-1.3-1.3c-0.6-0.2-1.2-0.4-1.8-0.4c-0.6-0.2-1.2-0.3-1.8-0.4c-1,0-1,0.2-2,0.3s-1,0.2-2,0.2s-1-0.2-2.1-0.2l-2,0.1l-2.1,0.1l-2,0.1c-1,0-1,0.2-2,0.2s-1,0.2-2,0.3s-1,0.1-2,0.2s-1-0.4-2.1-0.4s-1,0.1-2,0.1s-1,0.2-2,0.2s-1,0.4-2,0.4s-1-0.2-2.1-0.2s-1,0.2-2.1,0.2s-1-0.1-2-0.1s-1,0-2.1,0.1s-1,0-2.1,0s-1,0.2-2,0.3s-1,0.1-2,0.1s-1-0.1-2.1,0s-1,0.2-2,0.3s-1-0.1-2.1-0.1s-1-0.1-2.1-0.1s-1,0.1-2,0.1s-1,0.4-2,0.4s-1-0.3-2.1-0.3s-1,0.4-2,0.5s-1-0.3-2.1-0.2l-2,0.1c-1,0-1,0.3-2,0.3s-1,0.1-2,0.1s-1-0.1-2.1,0s-1,0.1-2,0.1s-1,0.1-2,0.2s-1,0.1-2.1,0.1s-1-0.1-2.1,0s-1-0.1-2.1,0s-1,0.1-2,0.1s-1,0-2.1,0s-1,0.1-2,0.2s-1,0-2.1,0s-1,0-2.1,0s-1,0-2.1,0.1s-1,0.1-2,0.2s-1,0.1-2.1,0.1s-1,0-2,0.1s-1,0.3-2,0.3s-1-0.2-2.1-0.1l-2,0.1c-1,0-1-0.1-2.1,0s-1,0.1-2.1,0.2s-1,0-2,0s-1,0.4-2,0.5s-1-0.2-2.1-0.2l-2.1,0.1c-1,0-1,0-2.1,0s-1,0.3-2,0.3s-1,0.2-2,0.2s-1-0.3-2.1-0.2c-1.1,0-1,0.3-2,0.3s-1,0.2-2,0.2s-1-0.3-2.1-0.2s-1,0.1-2,0.1s-1,0.4-2,0.4s-1-0.3-2.1-0.2s-1,0.2-2,0.3s-1-0.2-2.1-0.1s-1,0-2,0s-1,0.2-2,0.3s-1-0.1-2.1,0l-2,0.1c-1,0-1,0.3-2,0.4s-1-0.1-2.1-0.1s-1,0.3-2,0.3s-1-0.3-2.1-0.2s-1,0.3-2,0.4s-1,0-2,0s-1,0-2.1,0.1s-1-0.1-2.1-0.1s-1,0.3-2,0.3S84,17.4,83,17.2S80.8,16,80.1,16.7z"/>
      <path fill="#F48953" d="M265.4,133.3c-0.7,0.8-1.1-0.1-2.1-0.1s-1,0.4-2,0.4s-1-0.4-2.1-0.3l-2,0.1c-1,0-1,0.4-2,0.4c-1,0.1-1-0.3-2.1-0.2s-1,0.2-2,0.2s-1,0.3-2,0.3s-1,0.1-2,0.1s-1-0.2-2.1-0.2s-1,0.2-2,0.3s-1,0-2,0.1s-1-0.3-2.1-0.2s-1,0.2-2,0.3s-1,0.1-2,0.2s-1-0.2-2.1-0.2s-1,0.4-2,0.4s-1-0.1-2.1-0.1s-1-0.2-2.1-0.1s-1,0.1-2.1,0.1s-1,0.2-2,0.3s-1-0.1-2.1,0s-1,0-2,0s-1,0.3-2,0.4s-1-0.2-2.1-0.1s-1-0.1-2.1,0s-1,0.4-2,0.4s-1-0.1-2.1-0.1s-1,0.1-2,0.2s-1,0.2-2,0.3s-1-0.4-2.1-0.3s-1,0.2-2,0.3l-2.1,0.1c-1,0.1-1,0.1-2,0.2s-1,0-2.1,0.1s-1,0.1-2,0.2s-1,0.1-2,0.2s-1,0-2.1,0s-1,0-2.1,0.1s-1-0.1-2,0s-1-0.2-2.1-0.2l-2.1,0.1c-1,0.1-1,0.4-2,0.4s-1,0.1-2,0.1s-1-0.3-2.1-0.2s-1,0.1-2.1,0.2s-1-0.1-2,0s-1,0.2-2,0.3s-1,0-2,0.1s-1,0-2.1,0s-1,0-2,0.1s-1,0.1-2.1,0.1s-1,0.3-2,0.4s-1-0.2-2.1-0.2s-1,0-2.1,0s-1,0.3-2,0.4s-1,0-2.1,0s-1,0.1-2,0.1l-2.1,0.1l-2,0.1c-1,0-1,0.2-2,0.2s-1-0.1-2.1-0.1s-1,0-2,0.1s-1,0.1-2.1,0.1s-1-0.3-2.1-0.2s-1,0.2-2,0.3s-1,0.3-2,0.4s-1-0.2-2-0.1c-1.1,0-1,0.2-2,0.3l-2.1,0.1c-1,0.1-1-0.2-2.1-0.1s-1,0.2-2,0.3s-1,0-2.1,0s-1-0.1-2-0.1l-2.1,0.1c-1,0-1,0.3-2,0.3s-1,0.2-2,0.2s-1-0.1-2.1,0s-1-0.1-2.1,0s-1,0-2,0.1s-1,0.2-2,0.3l-2,0.1c-1,0-1,0.2-2,0.2s-1-0.2-2.1-0.2s-1-0.1-2.1,0s-1,0.1-2,0.1s-1-0.1-2.1,0s-1,0.4-2,0.4s-1.3,0.6-2-0.1s-0.1-1-0.1-2s0.2-1,0.1-2.1s-0.5-1-0.6-2.1s0-1,0-2.1s0.3-1.1,0.2-2.1s-0.1-1-0.1-2.1s-0.1-1-0.1-2.1s0.1-1,0.1-2.1s-0.1-1-0.1-2.1s-0.2-1-0.3-2.1s-0.8-1.3-0.1-2.1s1.1,0,2.1-0.1s1,0,2,0s1,0,2,0s1,0,2.1,0l2-0.1c1,0,1-0.2,2-0.2s1-0.2,2-0.3s1-0.1,2-0.2s1,0.3,2.1,0.2s1-0.4,2-0.4s1-0.1,2-0.1s1,0.3,2.1,0.2s1-0.1,2-0.1s1-0.1,2-0.1s1-0.1,2-0.2s1,0.2,2.1,0.2s1-0.4,2-0.4s1,0.3,2.1,0.3l2-0.1c1-0.1,1-0.3,2-0.3s1-0.2,2-0.2s1,0.4,2.1,0.3c1.1,0,1-0.1,2-0.2s1-0.2,2-0.3s1-0.2,2-0.2s1,0.1,2.1,0.1s1,0.2,2.1,0.2s1-0.3,2-0.3s1-0.1,2-0.2l2-0.1c1,0,1,0.1,2.1,0s1,0,2-0.1s1,0.1,2.1,0.1s1-0.1,2-0.2s1,0,2.1-0.1l2-0.1c1-0.1,1-0.3,2-0.3s1,0,2,0l2-0.1c1,0,1-0.1,2-0.2s1-0.1,2-0.1s1,0.1,2.1,0.1s1-0.1,2.1-0.2s1,0.1,2.1,0s1-0.3,2-0.3s1,0.4,2.1,0.3s1-0.1,2-0.1s1,0,2.1,0s1-0.3,2-0.3s1-0.1,2.1-0.2s1-0.2,2-0.2s1,0.1,2.1,0.1s1-0.2,2-0.2s1,0.1,2.1,0.1s1,0,2.1,0s1-0.3,2-0.3s1,0.3,2.1,0.2s1-0.4,2-0.4l2.1-0.1c1-0.1,1,0.3,2.1,0.2s1-0.3,2-0.3s1,0.2,2.1,0.1s1-0.4,2-0.5s1,0,2.1-0.1s1,0.4,2.1,0.3s1-0.4,2-0.5s1-0.1,2-0.2s1,0.4,2.1,0.3s1,0,2.1,0s1-0.1,2-0.1s1-0.4,2-0.5s1,0.3,2.1,0.2s1-0.3,2-0.3s1-0.1,2-0.1s1,0,2.1,0s1-0.1,2.1-0.2s1,0.2,2.1,0.2s1-0.2,2-0.2s1-0.2,2-0.3s1,0.1,2.1,0.1s1,0.1,2.1,0.1s1-0.1,2.1-0.1c1,0,1-0.4,2-0.5s1,0.1,2.1,0.1s1,0.2,2.1,0.2c1.1-0.1,1-0.4,2-0.4l2.1-0.1c1-0.1,1,0.1,2.1,0s1.4-0.8,2.1-0.1s0.1,1.1,0.2,2.1s-0.3,1.1-0.3,2.1s0.4,1,0.4,2.1s-0.1,1-0.1,2.1s0.1,1,0.2,2.1s0.3,1,0.3,2.1s0,1,0,2.1s0,1,0,2.1s0.1,1,0.2,2.1s-0.5,1.1-0.2,2.1S266.1,132.6,265.4,133.3z"/>
      <path fill="#003C3C" d="M83,144.3c-0.7,0-1.3-0.3-1.8-0.8c-0.5-0.5-0.8-1.2-0.8-1.9c0-1-0.2-1-0.3-2.1s0.1-1,0-2.1s0.1-1,0.1-2.1s-0.2-1-0.3-2.1s0.3-1.1,0.3-2.1s-0.5-1-0.5-2.1s0-1,0-2.1s0-1,0-2.1s0.2-1.1,0.1-2.1s-0.2-1-0.2-2.1s0-1,0-2.1c0-0.7,0.3-1.3,0.8-1.7c0.4-0.5,0.9-1.1,1.6-1.1c1,0,1,0,2,0s1-0.1,2-0.1s1,0.1,2.1,0.1s1-0.2,2-0.3s1,0.1,2,0.1s1,0.1,2,0.1s1-0.2,2-0.2s1-0.3,2-0.4s1,0.1,2.1,0.1s1,0.1,2,0.1s1-0.4,2-0.4s1,0.4,2.1,0.3l2-0.1c1,0,1-0.4,2-0.4s1,0.3,2.1,0.2s1-0.2,2-0.2s1-0.3,2-0.3s1-0.1,2.1-0.1s1,0.2,2.1,0.2s1-0.2,2-0.3s1,0,2-0.1s1,0.3,2.1,0.2s1-0.2,2-0.3c1-0.1,1-0.1,2-0.2s1,0.2,2,0.2s1-0.4,2-0.4s1,0.1,2.1,0.1s1,0.2,2.1,0.1s1-0.1,2-0.1s1-0.2,2-0.3s1,0.1,2.1,0s1,0,2.1,0s1-0.3,2-0.4s1,0.2,2.1,0.1s1,0,2,0s1-0.4,2-0.4s1,0.1,2.1,0.1s1-0.1,2-0.2s1-0.2,2-0.3s1,0.4,2.1,0.3s1-0.2,2-0.3l2-0.1c1-0.1,1-0.1,2.1-0.2s1,0,2.1-0.1s1-0.1,2-0.2s1-0.1,2-0.2s1,0,2.1,0s1,0,2.1-0.1s1,0.1,2,0s1,0.2,2.1,0.2l2.1-0.1c1-0.1,1-0.4,2-0.4s1-0.1,2-0.1s1,0.3,2.1,0.2s1-0.1,2.1-0.2s1,0.1,2.1,0s1-0.2,2-0.3s1,0,2-0.1s1,0,2.1-0.1l2.1-0.1c1-0.1,1-0.1,2.1-0.1s1-0.3,2-0.4s1,0.2,2.1,0.2s1,0,2,0s1-0.3,2-0.4s1,0,2.1,0s1-0.1,2.1-0.1l2-0.1c1-0.1,1-0.1,2.1-0.1s1-0.2,2-0.2s1,0.1,2.1,0.1s1,0,2.1-0.1s1-0.1,2-0.1s1,0.3,2.1,0.2s1-0.2,2.1-0.3s1-0.3,2-0.4s1,0.2,2.1,0.1s1-0.2,2-0.3l2.1-0.1c1-0.1,1,0.2,2.1,0.1s1-0.2,2-0.3s1,0,2.1,0s1,0.1,2.1,0.1l2-0.1c1,0,1-0.3,2-0.3s1-0.2,2.1-0.2c1-0.1,1,0.1,2.1,0s1,0.1,2.1,0l2.1-0.1c0.7-0.1,1.4,0.1,2,0.5c0.5,0.5,0.8,1.2,0.9,1.9c0,1,0.2,1,0.2,2.1s-0.2,1-0.2,2.1s-0.1,1.1,0,2.1s0.1,1,0.1,2.1s0,1,0,2.1s0.4,1,0.4,2.1s-0.1,1.1-0.1,2.1s0.1,1,0.1,2.1s-0.1,1-0.1,2.1s0.5,1,0.6,2.1s0,1,0,2.1c-0.1,0.7-0.4,1.3-1,1.8c-0.4,0.5-1,0.8-1.7,0.8c-1,0-1,0.1-2,0.1s-1-0.1-2.1-0.1s-1,0.1-2,0.1s-1,0.2-2,0.3c-1,0-1,0.1-2,0.1s-1,0-2,0s-1,0-2,0s-1,0-2,0s-1,0-2,0l-2,0.1c-1,0-1,0.2-2,0.2s-1,0.2-2,0.3s-1,0.1-2,0.2s-1-0.3-2.1-0.2s-1,0.4-2,0.4s-1,0.1-2,0.1s-1-0.3-2.1-0.2s-1,0.1-2.1,0.1s-1,0.1-2,0.1s-1,0.1-2,0.2s-1-0.2-2.1-0.2s-1,0.4-2,0.4s-1-0.3-2.1-0.3l-2.1,0.1c-1,0.1-1,0.3-2,0.3s-1,0.2-2,0.2s-1-0.4-2.1-0.3s-1,0.2-2,0.2s-1,0.2-2,0.3s-1,0.2-2,0.2s-1-0.1-2.1-0.1s-1-0.2-2.1-0.2s-1,0.3-2,0.3s-1,0.1-2,0.2L193,139c-1,0-1-0.1-2.1,0s-1,0-2,0.1s-1-0.1-2.1,0s-1,0.1-2,0.2s-1,0-2.1,0.1l-2,0.1c-1,0-1,0.3-2,0.3s-1,0-2.1,0l-2.1,0.1c-1,0-1,0.1-2,0.2s-1,0.1-2.1,0.1s-1-0.1-2-0.1s-1,0.1-2.1,0.2s-1-0.1-2,0s-1,0.3-2,0.3s-1-0.4-2.1-0.3s-1,0.1-2,0.1s-1,0-2.1,0s-1,0.3-2,0.3s-1,0.1-2.1,0.2s-1,0.2-2,0.2s-1-0.1-2.1-0.1s-1,0.2-2,0.2s-1-0.1-2.1-0.1s-1,0-2.1,0s-1,0.2-2,0.3s-1-0.3-2.1-0.2s-1,0.4-2,0.4l-2.1,0.1c-1,0-1-0.3-2.1-0.2s-1,0.3-2,0.3s-1-0.2-2.1-0.1c-1.1,0.1-1,0.4-2,0.5s-1,0-2,0.1s-1.1-0.4-2.1-0.3s-1,0.4-2,0.4s-1,0.1-2,0.2s-1-0.4-2.1-0.3s-1,0-2,0s-1,0.1-2,0.1s-1,0.4-2,0.5s-1-0.3-2.1-0.2s-1,0.3-2,0.3s-1,0.1-2,0.1s-1,0-2.1,0s-1,0.1-2,0.2s-1-0.2-2.1-0.2s-1,0.2-2.1,0.2s-1,0.2-2,0.3s-1-0.1-2.1-0.1s-1-0.1-2.1-0.1s-1,0.1-2.1,0.1s-1,0.4-2,0.4s-1-0.1-2.1,0C83.1,144.2,83.1,144.3,83,144.3z M84.8,121.4c-0.7,0.7,0,0.9,0.1,1.8s0,1,0,1.9s0.2,1,0.3,1.9s-0.1,1,0,1.9s-0.1,1-0.1,2s0.2,1,0.3,2s-0.3,1-0.3,2s0.5,1,0.5,1.9s-0.8,1.2,0,1.9s0.9,0,2-0.1s1,0.2,2.1,0.1s1-0.2,2-0.2s1,0,2,0s1,0.1,2.1,0.1s1-0.4,2-0.4s1,0,2.1,0s1-0.1,2.1-0.1s1,0.1,2.1,0.1s1-0.2,2-0.3s1,0.1,2.1,0.1s1,0.1,2.1,0.1s1-0.2,2-0.2s1-0.3,2-0.4s1,0.1,2.1,0.1s1,0.1,2.1,0.1s1-0.4,2.1-0.4s1,0.4,2.1,0.3l2.1-0.1c1,0,1-0.4,2-0.4s1,0.3,2.1,0.2c1.1,0,1-0.2,2.1-0.2s1-0.3,2-0.3s1-0.1,2.1-0.1s1,0.2,2.1,0.2s1-0.2,2-0.3s1,0,2.1-0.1s1.1,0.3,2.1,0.2s1-0.2,2-0.3s1-0.1,2.1-0.2s1,0.2,2.1,0.2s1-0.4,2.1-0.4s1,0.1,2.1,0.1s1,0.2,2.1,0.1s1-0.1,2.1-0.1s1-0.2,2-0.3s1,0.1,2.1,0s1,0,2.1,0s1-0.3,2-0.4s1,0.2,2.1,0.1s1,0,2.1,0s1-0.4,2-0.4s1,0.1,2.1,0.1s1-0.1,2.1-0.2s1-0.2,2.1-0.3s1,0.4,2.1,0.3s1-0.2,2.1-0.3l2.1-0.1c1,0,1-0.1,2.1-0.2s1,0,2.1,0s1-0.1,2-0.2s1-0.1,2.1-0.2s1,0,2.1,0s1,0,2.1-0.1s1,0.1,2.1,0s1,0.2,2.1,0.2l2.1-0.1c1,0,1-0.4,2.1-0.4s1-0.1,2.1-0.1s1,0.3,2.1,0.2s1-0.1,2.1-0.2s1,0.1,2.1,0s1-0.2,2.1-0.3s1,0,2.1-0.1s1,0,2.1,0s1,0,2.1-0.1s1-0.1,2.1-0.1s1-0.3,2.1-0.4s1,0.2,2.1,0.2s1,0,2.1,0s1-0.3,2.1-0.4s1,0.1,2.1,0s1-0.1,2.1-0.1l2.1-0.1l2.1-0.1c1-0.1,1-0.2,2.1-0.2s1,0.1,2.1,0.1s1,0,2.1-0.1s1-0.1,2.1-0.1s1,0.2,2.1,0.2s1-0.2,2.1-0.3s1-0.3,2-0.4s1,0.2,2.1,0.1c1.1-0.1,1-0.2,2-0.3s1,0,2.1-0.1s1.4,0.9,2.1,0.1s-0.2-1-0.2-2s0-1,0-2s0.1-1,0.1-1.9s-0.1-1-0.1-2s-0.3-1-0.3-1.9s-0.2-1-0.2-1.9s0.1-1,0-1.9s0.1-1,0-2s0.6-1.4-0.1-2s-1.1,0.2-2.1,0.3l-2.1,0.1c-1,0-1,0.1-2,0.2s-1-0.2-2.1-0.2s-1-0.1-2.1,0s-1,0.1-2.1,0.1s-1-0.1-2.1,0s-1,0.4-2,0.4s-1-0.1-2.1-0.1s-1,0.1-2.1,0.1s-1-0.1-2.1-0.1s-1,0.5-2,0.6s-1,0-2.1,0s-1-0.3-2.1-0.2s-1,0.1-2.1,0.1s-1,0.1-2.1,0.1s-1-0.1-2.1-0.1s-1,0.1-2.1,0.1s-1,0.2-2,0.3s-1,0.1-2.1,0.1s-1,0-2.1,0.1s-1-0.1-2.1,0s-1,0-2.1,0s-1,0-2.1,0l-2.1,0.1c-1,0-1,0.2-2.1,0.2s-1,0.2-2,0.3s-1,0.1-2.1,0.2s-1-0.3-2.1-0.2s-1,0.4-2.1,0.4s-1,0.1-2.1,0.1s-1-0.3-2.1-0.2s-1,0.1-2.1,0.1s-1,0.1-2,0.1s-1,0.1-2.1,0.2s-1-0.2-2.1-0.2s-1,0.4-2,0.4s-1-0.3-2.1-0.3s-1,0.1-2.1,0.1s-1,0.3-2.1,0.3s-1,0.2-2,0.2s-1.1-0.4-2.1-0.3s-1,0.2-2.1,0.2s-1,0.3-2,0.3s-1,0.2-2.1,0.2s-1-0.1-2.1-0.1s-1-0.2-2.1-0.2s-1,0.3-2.1,0.3s-1,0.1-2,0.2l-2.1,0.1c-1,0-1-0.1-2.1,0s-1,0-2.1,0.1s-1-0.1-2.1,0s-1,0.1-2,0.1s-1,0-2.1,0.1l-2.1,0.1c-1,0-1,0.3-2.1,0.3s-1,0-2.1,0s-1,0.1-2.1,0.1s-1,0.1-2.1,0.2s-1,0.1-2.1,0.1s-1-0.1-2.1-0.1s-1,0.1-2.1,0.2s-1-0.1-2.1,0s-1,0.3-2,0.4c-1,0-1.1-0.4-2.1-0.3s-1,0.1-2.1,0.1s-1,0-2.1,0s-1,0.3-2,0.3s-1,0.1-2.1,0.2s-1,0.2-2.1,0.2s-1-0.1-2.1-0.1s-1,0.2-2,0.2s-1-0.1-2.1-0.1s-1,0-2.1,0s-1,0.3-2,0.3s-1-0.3-2.1-0.2s-1,0.4-2.1,0.4s-1,0-2.1,0.1s-1.1-0.3-2.1-0.2s-1,0.3-2,0.3s-1-0.2-2.1-0.1s-1,0.4-2,0.5s-1,0-2.1,0.1s-1-0.2-2-0.3S85.5,120.6,84.8,121.4L84.8,121.4z"/>
      <path fill="#FFFFFF" d="M335.4,105.7c0.1,1.3-0.5,2.6-1.5,3.5c-0.4,0.5-0.8,1.1-1.4,1.4c-0.6,0.3-1.3,0.4-2,0.4c-0.7,0-1.4-0.1-2-0.3c-0.6-0.3-1.1-0.7-1.6-1.1c-0.5-0.4-1-0.9-1.3-1.5c-0.2-0.6-0.3-1.3-0.3-2c0.1-1.3,0.6-2.5,1.3-3.6c0.7-1.2,2-1.9,3.4-1.7c0.7,0,1.3,0.2,1.9,0.5c0.7,0.1,1.3,0.4,1.9,0.7c0.5,0.4,0.6,1.2,0.9,1.8C335.1,104.4,335.3,105,335.4,105.7z"/>
      <path fill="#FFFFFF" d="M379.1,103.7c0,0.7-0.1,1.4-0.4,2c-0.3,0.6-0.6,1.2-1.1,1.6c-0.4,0.5-0.9,1-1.5,1.4c-0.6,0.3-1.3,0.4-2,0.4c-1.3-0.2-2.6-0.6-3.7-1.3c-0.4-0.5-0.7-1.1-0.9-1.8c-0.3-0.6-0.9-1.1-0.9-1.8c0-0.7,0.1-1.4,0.4-2c0.3-0.6,0.6-1.2,1.1-1.7c0.5-0.4,1.1-0.8,1.7-1c0.6-0.3,1.2-0.5,1.8-0.6c0.7,0,1.3,0.1,1.9,0.4c0.6,0.3,1.1,0.6,1.5,1.1c0.5,0.4,1.1,0.8,1.4,1.4C378.9,102.3,379.1,103,379.1,103.7z"/>
      <path fill="#FFFFFF" d="M342.6,105.3c1.1,0,1.1,0.1,2.2,0s1.1-0.1,2.2-0.2s1.1,0.1,2.2,0.1s1.1-0.4,2.1-0.4s1.1,0.1,2.2,0s1.1,0.2,2.2,0.2s1.1-0.2,2.1-0.2s1.1-0.2,2.2-0.3s1.1,0,2.2,0"/>
      <path fill="#003C3C" d="M342.6,107.3c-1-0.1-1.9-0.9-2-1.9c0.1-1,1-1.9,2-1.8c1.1,0,1.1,0,2.2,0s1.1-0.4,2.1-0.5l2.2-0.1c1.1-0.1,1.1,0.1,2.2,0.1s1.1,0.2,2.2,0.2s1.1-0.3,2.1-0.4s1.1-0.1,2.1-0.2s1.1-0.1,2.2-0.2s1.1,0.2,2.2,0.1c1-0.1,1.9,0.7,2,1.7c0,1-0.8,1.8-1.8,1.8c0,0,0,0,0,0c-1.1,0.1-1.1,0.2-2.1,0.2s-1.1,0-2.2,0.1s-1.1,0.1-2.1,0.1s-1.1,0.1-2.1,0.2s-1.1,0-2.2,0s-1.1,0.2-2.1,0.3s-1.1-0.3-2.2-0.2s-1.1,0.2-2.1,0.2s-1.1,0.2-2.2,0.3C342.6,107.3,342.6,107.3,342.6,107.3z"/>
      <path fill="#F48953" d="M193.4,26.1c-0.6-0.2-1.2-0.3-1.8-0.2c-0.6,0-1.2,0.1-1.8,0.3c-0.6,0.2-1.2,0.6-1.7,1c-0.4,0.5-0.5,1.1-0.9,1.5s-0.7,1-1,1.4c0,0,0,0.1,0,0.1c-0.3,0.4-0.8,0.6-1,1c-0.1,0.2-0.1,0.4-0.2,0.5s-0.2-0.1-0.3,0c-0.3,0.5-0.6,1-0.9,1.5s-0.7,0.9-1,1.4s-0.6,1-0.9,1.4c-0.1,0.1,0,0.2-0.1,0.3c-0.4,0.6-0.9,1.2-1.2,1.8c-0.2,0.3-0.2,0.7-0.3,0.9c-0.4,0.7-1,1.2-1.4,1.8c-0.3,0.7-0.9,1.3-1.5,1.7c-0.7,0.4-1.5,0.7-2.3,0.7c-0.6,0-1.3-0.2-1.9-0.2s-1.3,0.1-2,0.1s-1.3-0.1-1.9-0.1s-1.3-0.1-1.9-0.1s-1.3,0.3-1.9,0.3s-1.3-0.2-2-0.1s-1.3,0.4-1.9,0.5s-1.3,0.3-1.9,0.4c-1.6,0-3.1-0.7-4.3-1.7c-0.4-0.6-0.5-1.5-0.9-2.1c-0.2-0.3-0.5-0.4-0.7-0.7c-0.4-0.6-1-1.1-1.4-1.7c-0.1-0.1,0-0.2-0.1-0.3c-0.4-0.4-0.8-0.8-1.2-1.3s-0.8-0.8-1.2-1.2s-0.5-1.1-0.8-1.6c-0.2-0.3-0.3-0.2-0.6-0.5s-0.5-0.8-0.8-1.2c0,0-0.2,0.1-0.2,0.1c-0.4-0.4-0.7-0.9-1.1-1.4s-0.9-0.8-1.3-1.2c-0.4-0.5-1-0.9-1.6-1.1c-0.6-0.2-1.3-0.3-1.9-0.3c-0.6,0.2-1.2,0.4-1.7,0.8c-0.6,0.2-1.1,0.6-1.6,1c-0.4,0.5-0.7,1-0.9,1.6c-0.2,0.6-0.3,1.2-0.3,1.8c0.1,1,0.1,1,0.1,2.1s-0.1,1.1,0,2.1s-0.1,1-0.1,2.1s0.1,1,0.1,2.1s0.5,1,0.5,2.1c0,1.1-0.2,1-0.2,2s0.2,1,0.2,2.1s-0.1,1,0,2.1s0.3,1,0.4,2.1s-0.2,1.1-0.2,2.1s0,1,0,2.1s0,1.1,0.1,2.1s0.1,1.1,0.1,2.1s0,1,0.1,2.1s0.1,1,0.2,2.1s0.1,1.1,0.1,2.1s0.2,1,0.2,2.1c0,0.6,0.1,1.3,0.3,1.9c0.2,0.6,0.4,1.2,0.6,1.8c0.2,0.6,0.4,1.2,0.6,1.8c0.4,0.5,0.8,1,1.3,1.5c0.4,0.5,0.6,1.2,1,1.7c0.5,0.4,1,0.8,1.6,1.2c0.6,0.3,1.1,0.6,1.7,0.9c0.6,0.3,1.4,0.4,2,0.7s1.3,0.6,1.9,0.9s1.1,0.9,1.7,1.2s1.1,0.8,1.7,1.2s1,0.9,1.6,1.3s1.3,0.6,1.8,1.1s1,1,1.5,1.4s1,1,1.5,1.5s0.8,1.1,1.2,1.7s1.2,0.8,1.6,1.4s0.4,1.4,0.9,1.9c0.1,0.1,0.3-0.1,0.3-0.1c0.4,0.5,0.8,1,1.3,1.5c0.4,0.5,0.9,1,1.4,1.4c0.6,0.3,1.2,0.5,1.9,0.6c0.6,0.2,1.3,0.3,1.9,0.3c0.7,0,1.3-0.2,1.9-0.4c0.6-0.2,1.2-0.6,1.7-1c0.5-0.4,0.9-0.9,1.3-1.4c0.4-0.5,0.8-1,1.1-1.6c0.1-0.1,0.3,0,0.4-0.1c0.3-0.6,0.7-1.2,1.1-1.8s0.6-1.3,1-1.8s0.9-1.1,1.3-1.6s1.1-0.9,1.5-1.4s0.6-1.3,1.1-1.8s1.3-0.7,1.8-1.1s0.9-1,1.4-1.5s0.8-1.2,1.4-1.6s1.4-0.5,1.9-0.9s1.1-0.8,1.7-1.1s1.1-0.8,1.8-1.1c0.5-0.4,1-0.8,1.5-1.3c0.5-0.4,1-0.8,1.5-1.2c0.4-0.5,0.8-1,1.1-1.6c0.4-0.5,0.8-1.1,1.1-1.6c0.2-0.6,0.3-1.3,0.4-1.9c0.2-0.6,0.3-1.2,0.4-1.9c0.2-0.6,0.3-1.3,0.3-1.9c-0.1-1-0.2-1-0.2-2.1s-0.2-1-0.3-2.1s0-1.1,0-2.1s0-1,0-2.1s-0.2-1-0.3-2.1s0-1.1,0-2.1s0.1-1.1,0.1-2.1s-0.3-1-0.3-2.1s0.3-1.1,0.2-2.1s-0.5-1-0.5-2.1s0-1.1,0-2.1s0-1,0-2.1s0.1-1.1,0.1-2.1s-0.2-1-0.3-2.1s0-1.1,0-2.1s0.1-1.1,0.1-2.1s-0.4-1-0.5-2.1c0-0.6-0.1-1.2-0.4-1.8c-0.3-0.6-0.7-1.1-1.1-1.4C194.6,26.4,194,26.2,193.4,26.1z M169.6,65.7c-0.2,0.4-0.6,0.8-1.1,0.9c-0.5-0.1-0.8-0.4-1-0.8c-0.2-0.6-0.3-1.4-0.6-2.1s-0.8-1.2-1.1-1.9s-0.6-1.3-0.9-1.9s-0.6-1.3-0.9-1.9s-0.4-1.4-0.7-2s-0.7-1.3-1-1.9s-0.4-1.4-0.7-2s-0.8-1.3-1.1-1.8c-0.2-0.4-0.2-0.8,0-1.1c0.2-0.4,0.5-0.6,0.9-0.7c0.7-0.1,1.4-0.3,2-0.4s1.4-0.1,2.1-0.1s1.4-0.3,2.1-0.3s1.4,0.3,2.1,0.2s1.4-0.1,2.1-0.1s1.4-0.1,2.1-0.1c0.4,0.1,0.8,0.3,1.1,0.7c0.3,0.4,0.3,0.9,0.2,1.3c-0.2,0.6-0.6,1.2-0.9,1.9s-0.6,1.3-0.9,2s-0.3,1.4-0.5,2.1s-0.7,1.3-1,1.9s-0.2,1.4-0.4,2.1s-0.4,1.4-0.6,2.1s-0.7,1.3-0.9,2S169.7,65.1,169.6,65.7L169.6,65.7z M172.7,89c-0.4-0.2-0.8-0.5-0.9-1c0-0.8,0.1-1.5,0.1-2.1c0.1-0.7,0.1-1.4,0.3-2.1c0-0.7-0.2-1.4-0.2-2.1s0-1.4,0-2.1s0-1.4,0.1-2.1s0.4-1.4,0.4-2s0-1.4,0.1-2.1s0.4-1.3,0.5-2s0.1-1.4,0.2-2s0.3-1.3,0.4-2s0.3-1.3,0.4-2s0.3-1.4,0.4-2s0.4-1.3,0.6-2s0.2-1.4,0.4-2s0.7-1.2,1-1.9s0.3-1.3,0.6-2s0.3-1.3,0.6-2s0.6-1.2,0.8-1.9c0.3-0.8,0.8-1.5,1.5-2c0.7-0.5,1.6-0.7,2.4-0.7c0.4,0,0.8,0.1,1.2,0.3c0.6,0.1,1.3,0.1,1.9,0.3s1.1,0.6,1.7,0.8s1.3,0.2,1.9,0.4c0.8,0.3,1.5,0.7,2.1,1.2c0.5,0.6,0.9,1.3,1.2,2c0.4,0.7,0.7,1.4,0.8,2.2c0,1-0.4,1-0.4,1.9s0.2,0.9,0.3,1.9s0.2,0.9,0.2,1.9s-0.1,0.9,0,1.9s0.2,0.9,0.2,1.9c0.1,0.8,0.1,1.5-0.1,2.3c-0.3,0.7-0.7,1.4-1.1,2c-0.3,0.6-0.8,1.2-1.3,1.7c-0.6,0.5-1.2,0.9-1.8,1.2c-0.6,0.4-1.2,0.9-1.8,1.3s-1.3,0.7-1.9,1.1s-1.1,0.9-1.7,1.4s-1.2,0.8-1.8,1.3s-1.1,1-1.6,1.5s-0.8,1.3-1.3,1.8s-1.1,1-1.6,1.5s-0.9,1.2-1.3,1.8c-0.3,0.4-0.8,1-1.4,1.9c-0.4,0.6-0.8,1.2-1.4,2C173.5,88.9,173.1,89.1,172.7,89L172.7,89z M193,45.6c0,0.5-0.2,0.9-0.6,1.2c-0.4,0.2-0.8,0.2-1.2,0c-0.6-0.2-1.1-0.7-1.7-0.9s-1.3-0.1-1.9-0.3s-1.2-0.3-1.8-0.4s-1.2-0.2-1.8-0.4c-0.4-0.1-0.6-0.5-0.7-0.9c-0.2-0.3-0.2-0.7-0.1-1c0.4-0.6,0.9-1.1,1.3-1.7s0.6-1.3,1-1.9s0.8-1.2,1.2-1.8s0.8-1.2,1.2-1.8s0.8-1.2,1.2-1.8s0.9-1.1,1.4-1.7c0.2-0.3,0.4-0.5,0.6-0.6s0.2,0.3,0.3,0.4c0.3,0.1,0.6,0.2,0.7,0.7c0,1.1,0.2,1.1,0.3,2.1s0,1.1,0,2.2s0.2,1.1,0.2,2.2s-0.1,1.1,0,2.2c-0.1,0.7-0.1,1.4-0.1,2.2C192.7,44.1,192.9,44.8,193,45.6L193,45.6z M146.1,52.9c0.6-0.3,1.1-0.6,1.7-0.8s1.2-0.3,1.8-0.6s1.3-0.2,1.9-0.4c0.6-0.3,1.3-0.5,2-0.5c0.7,0.1,1.4,0.3,2,0.7c0.6,0.4,1.1,0.9,1.5,1.5c0.3,0.6,0.4,1.3,0.8,1.9s0.7,1.2,1,1.8s0.4,1.3,0.7,2s0.7,1.2,1,1.8s0.5,1.3,0.8,1.9s0.5,1.3,0.8,1.9s0.5,1.3,0.8,1.9s0.4,1.3,0.6,2s0.6,1.2,0.8,1.9s0.1,1.4,0.3,2.1s0.5,1.3,0.6,2s0.5,1.3,0.6,2s0.2,1.4,0.4,2s0.4,1.3,0.5,2s0.1,1.4,0.2,2s0,1.4,0.1,2.1s0.4,1.2,0.4,2.1c0,0.6-0.2,1.3-0.2,2.1c0,0.5-0.1,0.8-0.4,1c-0.4,0.2-0.9,0.1-1.2-0.2c-0.6-0.7-0.9-1.5-1.4-2c-0.6-0.6-1.2-1.1-1.8-1.6c-0.5-0.5-0.7-1.4-1.2-1.9s-1.2-0.8-1.8-1.3s-1.2-0.8-1.8-1.3s-1.1-1-1.7-1.4s-1.3-0.7-1.9-1.1s-1.3-0.6-2-1s-1.1-1-1.7-1.4s-1.4-0.6-2-0.9c-0.6-0.4-1.2-0.8-1.8-1.3c-0.6-0.4-1.1-0.9-1.6-1.5c-0.7-1.3-1.1-2.7-1.3-4.2c0-0.9,0.1-0.9,0-1.9s-0.1-0.9-0.1-1.9s-0.4-0.9-0.4-1.9s0.1-1,0-1.9s-0.2-0.9-0.2-1.9c0-0.8,0.1-1.6,0.4-2.3c0.3-0.7,0.7-1.4,1.2-2C144.7,53.9,145.3,53.4,146.1,52.9L146.1,52.9z M143.4,34.3c0.5,0.5,1,1,1.5,1.6s0.8,1.2,1.3,1.7s0.7,1.3,1.1,1.8s1.1,0.9,1.6,1.5s0.9,1.1,1.4,1.7s0.9,1.1,1.3,1.7c0.2,0.3,0.1,0.8,0,1.1c-0.1,0.4-0.3,0.7-0.6,0.8c-0.6,0.2-1.3,0.2-1.8,0.4s-1.1,0.6-1.7,0.8s-1.2,0.5-1.7,0.7s-1.1,0.5-1.7,0.8c-0.3,0.2-0.7,0.2-1.1,0c-0.3-0.2-0.5-0.6-0.5-1c-0.1-1.1-0.2-1.1-0.3-2.1s0.3-1.1,0.2-2.2s-0.2-1.1-0.2-2.2s-0.2-1.1-0.3-2.2s0-1.1,0-2.2s-0.2-1.1-0.2-2.2c0-0.4,0.3-0.8,0.8-1c0.1,0,0.2,0.1,0.4,0.1S143.2,34.1,143.4,34.3z"/>
      <path fill="#003C3C" d="M94.2,133.2c0,0.7-0.2,1.4-0.7,1.9c-0.5,0.4-1.2,0.6-1.8,0.5c-0.6,0-1.2-0.2-1.6-0.6c-0.4-0.4-1.1-0.9-1.1-1.5c0-0.7,0.2-1.4,0.7-1.9c0.5-0.4,1.2-0.7,1.8-0.7c0.6,0.1,1.2,0.4,1.6,0.9C93.5,132.2,94.2,132.6,94.2,133.2z"/>
      <path fill="#FFFFFF" d="M274.7,105.7l2.3-0.1c1.1,0,1.1,0.1,2.3,0s1.1-0.1,2.3-0.2"/>
      <path fill="#003C3C" d="M274.7,107.9c-1-0.1-1.9-0.9-2-1.9c0-1.1,0.8-2,1.9-2c1.1-0.1,1.1-0.1,2.3-0.2s1.1-0.1,2.3-0.1s1.1-0.1,2.3-0.1c1,0.1,1.8,0.9,1.8,1.9c0.1,0.9-0.6,1.7-1.5,1.7c-0.1,0-0.1,0-0.2,0c-1.1,0.1-1.1,0.4-2.3,0.5l-2.3,0.1c-1.1,0.1-1.2-0.1-2.3-0.1C274.8,107.7,274.7,107.9,274.7,107.9z"/>
      <path fill="#FFFFFF" d="M317.3,119.5c1,0,1,0,2.1-0.1s1,0,2.1,0s1-0.5,2-0.5s1,0.4,2.1,0.3s1-0.3,2-0.3s1-0.1,2.1-0.1s1-0.1,2.1-0.2s1,0.4,2.1,0.3s1-0.4,2-0.4s1,0,2.1,0s1-0.1,2.1-0.1s1,0.2,2.1,0.1s1-0.3,2-0.3s1-0.2,2.1-0.2s1,0.1,2.1,0.1s1,0,2.1,0s1,0,2.1,0s1,0,2.1,0s1-0.2,2.1-0.2s1,0.2,2.1,0.1s1-0.2,2.1-0.2s1-0.2,2.1-0.2s1,0.1,2.1,0s1,0,2.1,0s1-0.4,2-0.4s1,0.2,2.1,0.2s1,0,2.1-0.1s1-0.4,2-0.4l2.1-0.1c1,0,1,0.1,2.1,0s1-0.1,2.1-0.2s1-0.1,2.1-0.1s1-0.1,2.1-0.1s1.1,0.3,2.1,0.2"/>
      <path fill="#003C3C" d="M317.3,121.1c-0.9,0-1.6-0.7-1.7-1.6c0,0,0,0,0-0.1c-0.1-0.9,0.5-1.6,1.4-1.7c0.1,0,0.1,0,0.2,0c1-0.1,1-0.5,2-0.5s1,0.4,2.1,0.3s1-0.3,2-0.3s1-0.1,2.1-0.1s1-0.1,2.1-0.2s1,0.4,2.1,0.3s1-0.4,2-0.4s1,0,2.1,0s1-0.1,2.1-0.1s1,0.2,2.1,0.1s1-0.3,2-0.3s1-0.2,2.1-0.2s1,0.1,2.1,0.1s1,0,2.1,0s1,0,2.1-0.1s1,0,2.1,0s1-0.2,2.1-0.2s1,0.2,2.1,0.1s1-0.2,2.1-0.2s1-0.2,2.1-0.2s1,0.1,2.1,0s1,0,2.1,0s1-0.4,2-0.4s1,0.2,2.1,0.2l2.1-0.1c1,0,1-0.4,2-0.4l2.1-0.1c1,0,1,0.1,2.1,0s1-0.1,2.1-0.2s1-0.1,2.1-0.1s1-0.1,2.1-0.1s1,0.3,2.1,0.2s1,0,2.1,0s1-0.4,2-0.5c1.1,0,2,0.9,2.2,1.9c0,1.1-0.9,2-2,2c-1,0-1-0.2-2.1-0.2s-1,0.3-2,0.4s-1,0.1-2.1,0.2s-1,0.1-2.1,0.2s-1-0.2-2.1-0.1s-1,0.2-2.1,0.2s-1-0.2-2.1-0.1s-1,0.2-2.1,0.2s-1,0-2.1,0.1l-2.1,0.1c-1,0-1,0.1-2.1,0.2s-1,0-2.1,0s-1,0.2-2,0.3s-1-0.3-2.1-0.2s-1,0.2-2.1,0.2s-1,0.2-2,0.3s-1,0-2.1,0s-1,0.2-2.1,0.2s-1-0.1-2.1,0s-1-0.1-2.1-0.1s-1,0.2-2.1,0.3s-1-0.2-2.1-0.2s-1,0.3-2,0.3s-1,0.1-2.1,0.2s-1-0.2-2.1-0.1s-1,0.3-2.1,0.4s-1-0.4-2.1-0.4s-1,0.2-2,0.3s-1,0.2-2.1,0.2s-1-0.1-2.1,0s-1,0.2-2.1,0.2s-1,0.2-2.1,0.2s-1-0.3-2.1-0.3s-1,0.2-2.1,0.2C317.4,121.2,317.3,121.1,317.3,121.1z"/>
      <path fill="#FFFFFF" d="M365.2,127.9c-0.7,0.8-0.9,0.3-1.9,0.3s-1.1-0.3-2.1-0.2s-1,0.1-2.1,0.2s-1,0.3-2.1,0.4s-1,0.1-2.1,0.2s-1.1-0.3-2.1-0.3l-2.1,0.1c-1.1,0-1,0.2-2.1,0.3l-2.1,0.1c-1.1,0.1-1.1,0-2.1,0s-1.3,0.8-2,0s-0.3-1-0.4-2.1s0.4-1.1,0.3-2.2s-0.3-1.1-0.4-2.1s0-1.1,0-2.2s-0.9-1.4-0.2-2.2s1.1,0.2,2.2,0.2s1-0.2,2.1-0.3s1-0.2,2.1-0.3s1-0.1,2.1-0.2s1.1,0.4,2.1,0.3s1-0.3,2.1-0.3s1.1,0.1,2.1,0.1s1-0.1,2.1-0.1s1-0.1,2.1-0.1s1.1,0,2.1-0.1s1.2-0.8,2-0.1s-0.1,1,0,2.1s0.5,1.1,0.5,2.1s-0.4,1.1-0.3,2.2c0,0.7,0.1,1.5,0.3,2.1C365.6,127,366,127.1,365.2,127.9z"/>
      <path fill="#003C3C" d="M342.2,130.7c-0.9,0.1-1.8-0.6-1.9-1.5c0,0,0,0,0,0c0-1.1,0.3-1.1,0.2-2.2s-0.1-1.1-0.2-2.2s-0.3-1.1-0.4-2.1s-0.2-1.1-0.2-2.2s0.3-1.1,0.3-2.2c0-0.4,0.1-0.9,0.4-1.2c0.3-0.4,0.7-0.7,1.1-0.7l2.1-0.1c1.1,0,1.1,0,2.1,0s1.1,0,2.1,0s1-0.4,2.1-0.4s1.1,0.4,2.1,0.3s1-0.3,2.1-0.4s1.1,0.1,2.1,0s1-0.2,2.1-0.2s1.1,0.2,2.1,0.2s1-0.2,2.1-0.3s1-0.2,2.1-0.3c1.1,0,2,0.8,2.1,1.9c0,1.1-0.4,1.1-0.3,2.2s0.3,1.1,0.4,2.1s-0.1,1.1-0.1,2.2s0.1,1.1,0.2,2.2s0.1,1.1,0.1,2.2c0,0.5-0.2,0.9-0.5,1.2c-0.3,0.3-0.7,0.5-1.2,0.5c-1,0-1,0-2.1,0s-1,0.5-2.1,0.5s-1.1-0.4-2.1-0.3s-1,0.3-2.1,0.3s-1,0.1-2.1,0.1s-1,0.1-2.1,0.2s-1.1-0.4-2.1-0.3s-1,0.4-2.1,0.4s-1.1,0-2.1,0.1s-1,0.1-2.1,0.1s-1.1-0.2-2.1-0.1C342.2,130.8,342.2,130.7,342.2,130.7z M343.4,119.9c-0.6,0.6,0.3,1.1,0.3,2s-0.3,0.9-0.2,1.8s0.1,0.9,0.2,1.8s-0.4,1.1,0.3,1.7s0.9-0.2,1.9-0.2s1,0.4,2,0.3l2-0.1c1,0,1-0.2,2-0.3s1-0.1,2-0.1s1,0,2,0s1,0,2,0s1-0.4,1.9-0.4s1,0.4,2,0.3s1.2,0.4,1.9-0.3s0-0.9,0-1.8s-0.2-0.9-0.2-1.8s0.2-0.9,0.2-1.8s0.4-1.2-0.3-1.8s-1,0.2-2,0.2s-1,0.1-2,0.2s-1-0.4-2-0.3s-1,0.3-1.9,0.3s-1-0.1-2-0.1s-1,0.1-2,0.1s-1,0.1-2,0.1s-1,0-2,0s-1,0.3-1.9,0.1C344.5,119.6,344.1,119.2,343.4,119.9z"/>
      <path fill="#FFFFFF" d="M355.2,90c-0.8-0.7-0.6-0.9-1.4-1.6s-0.9-0.6-1.6-1.3l-1.6-1.4c-0.8-0.7-0.9-0.6-1.7-1.2s-0.7-0.7-1.5-1.4s-0.6-0.9-1.4-1.6s-0.8-0.6-1.6-1.3s-1-0.5-1.8-1.1s-0.6-0.9-1.4-1.6s-0.9-0.6-1.6-1.3s-0.6-0.8-1.4-1.5s-1-0.4-1.8-1.1s-0.6-0.9-1.4-1.6"/>
      <path fill="#003C3C" d="M355.3,91.9c-0.4,0-0.8-0.4-1.2-0.7c-0.8-0.7-0.8-0.6-1.6-1.3s-0.7-0.7-1.5-1.4s-0.9-0.6-1.6-1.3s-0.7-0.7-1.5-1.4s-0.8-0.7-1.5-1.4s-0.9-0.6-1.7-1.2s-0.6-0.9-1.4-1.6s-0.8-0.6-1.6-1.3s-0.9-0.5-1.7-1.2s-0.8-0.6-1.6-1.3s-0.6-0.9-1.4-1.5s-1-0.5-1.8-1.1s-0.5-1-1.3-1.7c-0.7-0.5-0.8-1.4-0.4-2.1c0-0.1,0.1-0.1,0.2-0.2c0.6-0.7,1.6-0.9,2.3-0.3c0,0,0.1,0,0.1,0.1c0.8,0.7,0.7,0.8,1.5,1.4s0.9,0.6,1.7,1.2s0.6,0.8,1.4,1.5s0.9,0.6,1.6,1.3s0.7,0.8,1.5,1.5s1,0.4,1.8,1.1s0.7,0.7,1.5,1.4s0.7,0.8,1.5,1.4s0.9,0.5,1.7,1.2s0.9,0.6,1.6,1.3s0.6,0.9,1.4,1.5s0.8,0.6,1.6,1.3s0.8,0.6,1.6,1.3c0.7,0.7,0.7,1.8,0,2.5c0,0,0,0,0,0C356.2,91.3,355.8,91.9,355.3,91.9z"/>
      <path fill="#003C3C" d="M292.1,155.3v0.3c-0.7-0.1-1.5-0.2-2.2-0.4c-0.7-0.1-1.4-0.3-2.1-0.6c-0.7-0.1-1.4-0.3-2.1-0.6c-0.7-0.3-1.3-0.7-1.9-1.1c-0.6-0.5-1.1-1-1.6-1.5c-0.4-0.6-0.8-1.2-1.1-1.9c-0.4-0.6-0.7-1.2-1-1.9c-0.3-0.6-0.5-1.3-0.7-2c-0.1-0.7-0.1-1.4-0.1-2.1c0-1-0.4-0.9-0.4-1.9s0-1,0-1.9s-0.2-1-0.2-1.9s-0.1-1-0.2-1.9s0.1-1,0-1.9s-0.2-1-0.2-1.9s0.4-1,0.3-1.9c0-0.7,0-1.4,0.1-2.1c0-0.7,0.1-1.5,0.2-2.2c0.3-0.7,0.6-1.3,1-1.9c0.4-0.6,0.8-1.2,1.3-1.7c0.4-0.6,0.8-1.2,1.2-1.8c0.5-0.5,1-1,1.6-1.5c0.6-0.4,1.3-0.7,2-0.9c0.7-0.3,1.4-0.5,2.1-0.7c0.7-0.1,1.5-0.1,2.2-0.1v0.1c0.7,0,1.4,0,2.2,0.1c0.7,0.1,1.4,0.2,2.1,0.4c0.7,0.2,1.4,0.5,2,0.8c0.6,0.3,1.3,0.7,1.9,1.2c0.5,0.5,1,1.1,1.4,1.6c0.5,0.5,1.3,0.8,1.7,1.4c0.3,0.7,0.5,1.4,0.7,2.1c0.4,0.6,0.7,1.3,1,2c0.2,0.7,0.3,1.4,0.3,2.2c0,1-0.4,1-0.3,1.9s0.2,1,0.3,1.9s0.3,1,0.3,1.9l0.1,1.9c0,1-0.3,1-0.2,1.9s0.2,1,0.2,1.9s0,1,0.1,1.9c0.1,0.7,0.1,1.5,0.1,2.2c-0.1,0.7-0.3,1.4-0.5,2.1c-0.3,0.7-0.7,1.3-1.1,1.9c-0.3,0.6-0.7,1.3-1.1,1.9c-0.4,0.6-0.8,1.2-1.3,1.8c-0.6,0.4-1.2,0.8-1.9,1.1c-0.6,0.4-1.2,0.8-1.8,1.1c-0.7,0.2-1.4,0.4-2.1,0.4C293.6,155.1,292.8,155.2,292.1,155.3z"/>
      <path fill="#FFFFFF" d="M291.7,146.8v-0.2c-0.7,0.1-1.5,0-2.1-0.2c-0.6-0.4-1.2-0.9-1.5-1.5c-0.4-0.6-0.7-1.3-0.8-2.1c0-1,0.1-1,0-2.1s-0.1-1-0.2-2.1s0.1-1,0.1-2.1s-0.1-1-0.2-2.1s-0.2-1-0.2-2.1s0.2-1,0.2-2.1c0-0.7,0.1-1.4,0.5-2c0.2-0.7,0.7-1.3,1.2-1.8c0.7-0.3,1.4-0.4,2.2-0.4V126c0.7,0,1.5,0.2,2.1,0.6c0.7,0.3,1.3,0.8,1.7,1.4c0.4,0.6,0.6,1.4,0.7,2.1c0,1-0.1,1.1-0.1,2.1s0.2,1,0.3,2.1s-0.2,1-0.2,2.1s0.4,1,0.4,2.1s-0.2,1-0.2,2.1s0,1,0,2.1c0.1,0.7,0,1.4-0.2,2.1c-0.3,0.7-0.8,1.2-1.5,1.6C293.2,146.6,292.5,146.8,291.7,146.8z"/>
      <path fill="#003C3C" d="M125.8,162.9v-0.2c-0.7,0.1-1.4,0.2-2.2,0.2c-0.7-0.1-1.4-0.4-2.1-0.6c-0.7-0.2-1.4-0.5-2-0.9c-0.6-0.3-1.2-0.7-1.8-1.1c-0.6-0.4-1.2-0.8-1.8-1.3c-0.4-0.6-0.8-1.2-1.2-1.9c-0.3-0.6-0.6-1.3-0.9-2c-0.3-0.6-0.5-1.3-0.7-2c-0.1-0.7-0.2-1.4-0.2-2.1c0-1-0.3-1-0.4-1.9s0.3-1,0.2-1.9s-0.4-1-0.5-1.9s-0.1-1-0.2-1.9s0-1,0-1.9s0.1-1,0-1.9s0.2-1,0.2-1.9c-0.1-0.7-0.2-1.4-0.2-2.2c0.2-0.7,0.4-1.4,0.7-2.1c0.2-0.7,0.4-1.4,0.7-2c0.3-0.7,0.6-1.3,1-1.9c1-1.1,2-2.1,3.2-2.9c0.6-0.4,1.3-0.7,2-0.9c0.6-0.3,1.3-0.6,2-0.9c0.7-0.1,1.5-0.1,2.2,0v-0.2c0.7-0.1,1.5-0.1,2.2,0c0.7,0.2,1.4,0.5,2,0.8c0.7,0.1,1.4,0.4,2.1,0.6c0.6,0.3,1.2,0.7,1.8,1.2c0.6,0.4,1.2,0.8,1.8,1.3c0.4,0.6,0.8,1.2,1.1,1.9c0.4,0.6,0.8,1.2,1.1,1.8c0.3,0.6,0.6,1.3,0.8,2c0,0.7,0,1.5-0.1,2.2c0,1,0.1,1,0.1,1.9s0.3,0.9,0.4,1.9s-0.2,1-0.2,1.9s0.3,1,0.3,1.9s-0.1,1-0.1,1.9s0.3,0.9,0.3,1.9s0,1,0,1.9c0.1,0.7,0.1,1.5,0,2.2c-0.1,0.7-0.3,1.4-0.6,2.1c-0.2,0.7-0.4,1.4-0.7,2c-0.4,0.6-0.8,1.2-1.3,1.7c-0.4,0.6-0.9,1.1-1.4,1.6c-0.5,0.5-1,1-1.6,1.5c-0.7,0.3-1.3,0.6-2.1,0.8c-0.7,0.3-1.4,0.5-2.1,0.6C127.2,162.6,126.5,162.8,125.8,162.9z"/>
      <path fill="#FFFFFF" d="M125.4,154.4L125.4,154.4c-1.6,0.2-3.1-0.6-3.8-1.9c-0.4-0.6-0.6-1.4-0.7-2.1c0-1-0.1-1-0.1-2.1s0.3-1,0.2-2.1s-0.1-1-0.2-2.1s0-1-0.1-2.1s0-1,0-2.1s-0.3-1-0.4-2.1c0.1-1.5,0.8-2.8,2-3.7c0.6-0.3,1.4-0.4,2.1-0.4l0,0c0.7-0.1,1.4,0.1,2,0.4c0.7,0.3,1.3,0.7,1.8,1.2c0.3,0.7,0.4,1.4,0.4,2.1c0,1,0,1,0.1,2.1s0.4,1,0.5,2.1s-0.1,1.1-0.1,2.1s-0.1,1.1-0.1,2.1s0.3,1,0.4,2.1s-0.1,1-0.1,2.1c0,0.7-0.2,1.4-0.5,2c-0.3,0.6-0.8,1.2-1.4,1.5C126.8,154,126.1,154.3,125.4,154.4z"/>
      <path fill="#003C3C" d="M355.5,179.7c0,0.3-0.7,0.8-1.9,1c-0.5,0.1-1.3,0-2.1,0.1c-0.6,0.1-1.2,0.4-2,0.5s-1.3,0.1-2,0.2s-1.4-0.1-2.1,0s-1.3,0.4-2,0.5s-1.4-0.1-2.1-0.1s-1.3,0.5-2,0.5s-1.3,0.2-2,0.2s-1.4-0.3-2.1-0.2s-1.3,0.3-2,0.3s-1.4-0.2-2.1-0.1s-1.4,0.3-2,0.3s-1.4-0.1-2.1,0l-2,0.1c-0.7,0-1.4,0-2,0s-1.3,0.3-2,0.4s-1.4,0.1-2,0.1s-1.4-0.2-2.1-0.2l-2,0.1c-0.7,0-1.4,0.4-2,0.4s-1.4,0-2,0s-1.4,0-2,0s-1.4,0.1-2,0.1s-1.4-0.2-2.1-0.2s-1.4,0.3-2,0.3s-1.4-0.3-2.1-0.2s-1.4,0.1-2,0.2s-1.4,0.3-2,0.3s-1.4,0-2.1,0s-1.4,0.2-2,0.2s-1.4-0.1-2.1-0.1s-1.4,0-2,0s-1.4,0-2,0s-1.4,0.1-2,0.1s-1.4,0.2-2,0.2s-1.4-0.2-2-0.2s-1.4-0.2-2.1-0.2s-1.4,0.4-2,0.4s-1.4,0-2,0h-2h-2.1c-0.7,0-1.4,0.1-2,0.1h-2c-0.7,0-1.4-0.1-2.1-0.1s-1.4,0.1-2,0.1s-1.4-0.1-2-0.1s-1.4,0.1-2,0.1s-1.4,0.1-2,0.1c-0.6,0-1.4,0-2,0s-1.4,0.1-2.1,0.1s-1.4-0.2-2-0.2s-1.4,0.3-2.1,0.3s-1.4-0.1-2.1-0.1s-1.4-0.2-2-0.2s-1.4,0.2-2.1,0.2s-1.4-0.3-2.1-0.3s-1.4,0.2-2.1,0.2s-1.4,0-2.1,0s-1.4-0.2-2.1-0.2s-1.4,0.1-2.1,0.1s-1.4,0.4-2.1,0.4s-1.4-0.4-2.1-0.4s-1.4,0.4-2.1,0.4s-1.4-0.2-2.1-0.2h-2c-0.7,0-1.4,0-2.1,0s-1.4,0.2-2.1,0.2s-1.4-0.3-2.1-0.3s-1.4,0.2-2,0.2s-1.4-0.2-2.1-0.2s-1.4,0.2-2.1,0.2s-1.4-0.3-2-0.3s-1.4,0.2-2.1,0.2s-1.4-0.2-2.1-0.2s-1.4,0.1-2.1,0.1s-1.4-0.2-2-0.2s-1.4-0.3-2.1-0.3s-1.4,0.2-2.1,0.2s-1.4,0.2-2.1,0.1s-1.4-0.1-2-0.1s-1.4-0.2-2.1-0.3s-1.4,0-2-0.1s-1.4,0.1-2.1,0.1s-1.4-0.2-2.1-0.2s-1.4,0-2.1,0s-1.4,0.1-2,0.1s-1.4-0.2-2.1-0.2s-1.4-0.1-2-0.1h-2.1c-0.7,0-1.4,0-2.1,0s-1.4,0-2.1,0s-1.4-0.1-2.1-0.2H164c-0.7,0-1.4,0.4-2.1,0.4s-1.4-0.2-2-0.2s-1.4,0-2.1,0s-1.4-0.4-2-0.4s-1.4,0.3-2.1,0.2s-1.4,0-2.1,0s-1.4-0.4-2-0.5s-1.4,0.3-2.1,0.3s-1.4-0.3-2-0.4s-1.4,0.2-2.1,0.2s-1.4-0.3-2-0.4s-1.4,0.2-2.1,0.2s-1.4-0.1-2-0.1s-1.4-0.3-2-0.4s-1.4,0.4-2.1,0.3s-1.4-0.2-2-0.2s-1.4-0.2-2-0.2s-1.4,0.2-2.1,0.1c-0.7,0-1.4-0.4-2-0.4s-1.4,0.2-2.1,0.1l-2-0.1c-0.7,0-1.4-0.3-2-0.4s-1.4,0.1-2.1,0s-1.4-0.3-2-0.3s-1.4-0.3-2-0.4s-1.4,0-2.1-0.1s-1.4,0-2-0.1s-1.4-0.4-2-0.5c-0.8-0.1-1.5,0-2.1-0.1c-1.2-0.3-1.8-0.8-1.8-1.1s0.7-0.7,1.8-1c0.5-0.1,1.2-0.3,2-0.4c0.6-0.1,1.3-0.1,2-0.2s1.3-0.3,2-0.4s1.3,0.1,2.1,0.1s1.3-0.3,2-0.4s1.3-0.3,2-0.3s1.4,0.1,2.1,0.1s1.3-0.2,2-0.2s1.3-0.2,2-0.3s1.4,0,2.1,0s1.4,0.1,2.1,0.1c0.7,0,1.3-0.2,2-0.2s1.3-0.5,2-0.5s1.4,0.2,2.1,0.1s1.4,0.1,2.1,0.1s1.4-0.1,2-0.1s1.3-0.5,2-0.5s1.4,0,2,0s1.4-0.1,2.1-0.1s1.4,0.3,2.1,0.3s1.4-0.1,2-0.1s1.4-0.3,2-0.4s1.4,0.3,2.1,0.3s1.4-0.1,2-0.1l2.1,0c0.7,0,1.4-0.2,2.1-0.2s1.4-0.1,2-0.1l2.1-0.1c0.7,0,1.4-0.2,2-0.2s1.4,0.1,2.1,0.1s1.4,0.2,2.1,0.2s1.4,0.1,2,0.1l2-0.1c0.7,0,1.4-0.4,2-0.5s1.4,0.4,2.1,0.3s1.4-0.1,2.1-0.1s1.4-0.1,2-0.1s1.4-0.1,2-0.1s1.4,0.2,2.1,0.2s1.4-0.1,2.1-0.1s1.4-0.1,2.1-0.1s1.4,0,2,0s1.4-0.2,2.1-0.2s1.4,0.3,2.1,0.3s1.4-0.3,2-0.4s1.4,0.3,2.1,0.3s1.4-0.3,2-0.3s1.4,0.1,2.1,0.1s1.4-0.2,2.1-0.2s1.4,0,2.1,0s1.4,0.2,2,0.2s1.4-0.1,2.1-0.1s1.4,0.2,2.1,0.2s1.4-0.2,2-0.2s1.4,0.3,2.1,0.3s1.4-0.4,2.1-0.4s1.4,0.3,2.1,0.2s1.4,0.1,2.1,0.1s1.4-0.2,2.1-0.2s1.4,0.1,2.1,0.1h2.1c0.7,0,1.4,0,2,0s1.4-0.1,2.1-0.1s1.4,0.1,2.1,0.1s1.4-0.1,2-0.1s1.4,0.1,2.1,0.1s1.4,0.1,2.1,0.1s1.4-0.1,2.1,0s1.4-0.1,2.1-0.1s1.4,0.1,2.1,0.1h2h2c0.7,0,1.4,0.3,2.1,0.3s1.4,0,2,0h2.1c0.7,0,1.4,0.1,2.1,0.1s1.4-0.3,2-0.3s1.4,0.2,2,0.2h2.1c0.7,0,1.4,0.3,2,0.3h2c0.7,0,1.4-0.1,2,0s1.4-0.3,2.1-0.2s1.4,0.3,2,0.3s1.4,0.1,2,0.1s1.4-0.4,2.1-0.3s1.4,0.2,2,0.2s1.4,0.2,2,0.2s1.4-0.2,2.1-0.2s1.4,0.2,2,0.2s1.4,0.1,2,0.1h2c0.7,0,1.4-0.2,2.1-0.2s1.4,0.3,2,0.3s1.4,0.2,2,0.2s1.4,0,2.1,0s1.4,0.1,2,0.2s1.4-0.3,2.1-0.2s1.4,0.3,2,0.4s1.4-0.4,2.1-0.3s1.4,0,2.1,0s1.4,0.1,2,0.1s1.4,0.2,2,0.2s1.4,0.3,2,0.3s1.4-0.2,2.1-0.2s1.4,0.4,2,0.4s1.4,0,2,0s1.4-0.1,2.1,0s1.4,0.1,2,0.2s1.4,0,2.1,0s1.4,0.2,2,0.2s1.4-0.1,2.1-0.1s1.4,0.4,2,0.5s1.4-0.1,2.1-0.1s1.4,0,2,0.1s1.4,0.5,2,0.5s1.4-0.1,2.1,0s1.4,0.2,2,0.2s1.4-0.1,2.1,0s1.4,0.5,2,0.6s1.4,0,2,0.1c0.8,0.1,1.5,0.1,2,0.3C354.8,179,355.5,179.4,355.5,179.7z"/>
    </svg>
  